<svg width="54" height="54" viewBox="0 0 54 54" fill="none" xmlns="http://www.w3.org/2000/svg">
<path d="M1.33008 11.8099H36.8301V49.9699H1.33008V11.8099Z" fill="#59B5E7"/>
<path d="M8.43005 17.1299V11.8099H11.9801V17.1299C11.9984 17.3742 11.9661 17.6197 11.8852 17.851C11.8043 18.0822 11.6766 18.2942 11.51 18.4738C11.3434 18.6534 11.1415 18.7967 10.9169 18.8947C10.6924 18.9927 10.45 19.0433 10.2051 19.0433C9.96007 19.0433 9.71772 18.9927 9.49317 18.8947C9.26863 18.7967 9.06673 18.6534 8.90011 18.4738C8.73349 18.2942 8.60575 18.0822 8.52487 17.851C8.44398 17.6197 8.4117 17.3742 8.43005 17.1299V17.1299Z" fill="#4A8FCD"/>
<path d="M36.8301 15.36V49.97H1.33008V11.81H6.70007V18.02C6.69666 21.5481 7.44699 25.0363 8.90083 28.251C10.3547 31.4656 12.4785 34.3326 15.1301 36.66L15.6201 34.66C15.8589 33.7004 16.412 32.8482 17.1913 32.2393C17.9706 31.6304 18.9311 31.2998 19.9201 31.3H28.1001C27.3089 31.2991 26.5408 31.0339 25.9175 30.5465C25.2943 30.0592 24.8517 29.3776 24.6601 28.61L23.5601 24.2C23.3158 24.2184 23.0703 24.1861 22.8391 24.1052C22.6078 24.0243 22.3958 23.8966 22.2162 23.73C22.0366 23.5634 21.8933 23.3614 21.7953 23.1369C21.6973 22.9124 21.6467 22.67 21.6467 22.425C21.6467 22.18 21.6973 21.9377 21.7953 21.7132C21.8933 21.4886 22.0366 21.2867 22.2162 21.1201C22.3958 20.9535 22.6078 20.8257 22.8391 20.7448C23.0703 20.664 23.3158 20.6317 23.5601 20.65H24.4501L25.1601 18.51C24.939 18.3476 24.7594 18.1352 24.636 17.8902C24.5126 17.6452 24.4489 17.3744 24.4501 17.1V11.78H28.0001V15.43C28.2552 15.366 28.517 15.3324 28.7801 15.33L36.8301 15.36Z" fill="#4A8FCD"/>
<path d="M9.31994 10.97V17.18C9.30159 17.4243 9.33387 17.6697 9.41476 17.901C9.49564 18.1322 9.62339 18.3443 9.79 18.5239C9.95662 18.7035 10.1585 18.8468 10.3831 18.9447C10.6076 19.0427 10.85 19.0933 11.095 19.0933C11.3399 19.0933 11.5823 19.0427 11.8068 18.9447C12.0314 18.8468 12.2333 18.7035 12.3999 18.5239C12.5665 18.3443 12.6942 18.1322 12.7751 17.901C12.856 17.6697 12.8883 17.4243 12.8699 17.18V10.97C12.8699 9.32298 13.5242 7.74343 14.6888 6.57883C15.8534 5.41423 17.433 4.75998 19.08 4.75998C20.7269 4.75998 22.3065 5.41423 23.4711 6.57883C24.6357 7.74343 25.2899 9.32298 25.2899 10.97V17.18C25.2716 17.4243 25.3039 17.6697 25.3848 17.901C25.4656 18.1322 25.5934 18.3443 25.76 18.5239C25.9266 18.7035 26.1285 18.8468 26.3531 18.9447C26.5776 19.0427 26.82 19.0933 27.065 19.0933C27.3099 19.0933 27.5523 19.0427 27.7768 18.9447C28.0014 18.8468 28.2033 18.7035 28.3699 18.5239C28.5365 18.3443 28.6642 18.1322 28.7451 17.901C28.826 17.6697 28.8583 17.4243 28.8399 17.18V10.97C28.8399 8.38146 27.8117 5.89896 25.9813 4.0686C24.1509 2.23825 21.6685 1.20996 19.08 1.20996C16.4914 1.20996 14.0089 2.23825 12.1786 4.0686C10.3482 5.89896 9.31994 8.38146 9.31994 10.97V10.97Z" fill="#E94D8C"/>
<path d="M8.43015 22.46H29.7001V27.78H8.40015L8.43015 22.46Z" fill="#E94D8C"/>
<path d="M8.43018 27.24C8.50018 27.42 8.58019 27.6 8.66019 27.78H8.43018V27.24Z" fill="#FBBB08"/>
<path d="M29.7 22.46V27.78H24.38L23.49 24.23C23.0196 24.23 22.5684 24.0438 22.2348 23.7122C21.9013 23.3805 21.7126 22.9303 21.71 22.46H29.7Z" fill="#D50264"/>
<path d="M28.8399 13.51V17.13C28.8583 17.3743 28.826 17.6198 28.7451 17.851C28.6642 18.0823 28.5365 18.2943 28.3699 18.4739C28.2033 18.6535 28.0014 18.7968 27.7768 18.8948C27.5523 18.9928 27.3099 19.0433 27.065 19.0433C26.82 19.0433 26.5776 18.9928 26.3531 18.8948C26.1285 18.7968 25.9266 18.6535 25.76 18.4739C25.5934 18.2943 25.4656 18.0823 25.3848 17.851C25.3039 17.6198 25.2716 17.3743 25.2899 17.13V10.97C25.2899 9.32301 24.6357 7.74346 23.4711 6.57886C22.3065 5.41426 20.7269 4.76001 19.08 4.76001C17.433 4.76001 15.8534 5.41426 14.6888 6.57886C13.5242 7.74346 12.8699 9.32301 12.8699 10.97V10.97V17.18C12.8883 17.4243 12.856 17.6698 12.7751 17.901C12.6942 18.1323 12.5665 18.3443 12.3999 18.5239C12.2333 18.7035 12.0314 18.8468 11.8068 18.9448C11.5823 19.0427 11.3399 19.0933 11.095 19.0933C10.85 19.0933 10.6076 19.0427 10.3831 18.9448C10.1585 18.8468 9.95662 18.7035 9.79 18.5239C9.62339 18.3443 9.49564 18.1323 9.41476 17.901C9.33387 17.6698 9.30159 17.4243 9.31994 17.18V10.97C9.31978 8.53545 10.2295 6.18873 11.8706 4.39041C13.5116 2.59209 15.7655 1.472 18.19 1.25C20.6435 1.52649 22.9081 2.70093 24.5475 4.54718C26.187 6.39343 27.0855 8.78094 27.0699 11.25C27.0703 11.7702 27.2448 12.2754 27.5656 12.685C27.8863 13.0945 28.335 13.385 28.8399 13.51V13.51Z" fill="#D50264"/>
<path d="M41.2301 52.63H25.3301C24.0261 52.6309 22.755 52.2208 21.6976 51.4578C20.6401 50.6948 19.8502 49.6178 19.4401 48.38L17.3101 41.98H49.2501L47.1201 48.38C46.7099 49.6178 45.92 50.6948 44.8625 51.4578C43.8051 52.2208 42.534 52.6309 41.2301 52.63V52.63Z" fill="#CFD7D9"/>
<path d="M42.6401 43.75H48.6401L49.2301 41.98H17.3101L19.4401 48.38C19.8547 49.6169 20.6472 50.6925 21.7057 51.455C22.7643 52.2175 24.0355 52.6285 25.3401 52.63H41.2201C42.3526 52.6209 43.4613 52.3033 44.4269 51.7113C45.3924 51.1193 46.1783 50.2752 46.7001 49.27C45.8172 49.7307 44.8359 49.9709 43.8401 49.97C43.3803 49.9673 42.9403 49.7828 42.6161 49.4568C42.292 49.1308 42.1101 48.6897 42.1101 48.23V48.23V45.35C42.1183 44.781 42.2883 44.226 42.6001 43.75H42.6401ZM24.4101 48.82C23.3276 48.0567 22.5181 46.9668 22.1001 45.71L21.4501 43.71H23.9201C24.2318 44.186 24.4018 44.741 24.4101 45.31V48.82Z" fill="#939999"/>
<path d="M51.03 41.9699H15.53C15.0822 41.9363 14.6637 41.7347 14.3584 41.4055C14.053 41.0763 13.8833 40.6439 13.8833 40.1949C13.8833 39.7459 14.053 39.3135 14.3584 38.9843C14.6637 38.6551 15.0822 38.4536 15.53 38.4199H51.03C51.4777 38.4536 51.8962 38.6551 52.2016 38.9843C52.507 39.3135 52.6767 39.7459 52.6767 40.1949C52.6767 40.6439 52.507 41.0763 52.2016 41.4055C51.8962 41.7347 51.4777 41.9363 51.03 41.9699V41.9699Z" fill="#E7F0F1"/>
<path d="M52.8 40.2C52.7974 40.6695 52.6104 41.1192 52.2793 41.4522C51.9482 41.7852 51.4995 41.9747 51.03 41.9799H15.53C15.0822 41.9463 14.6637 41.7447 14.3584 41.4155C14.053 41.0864 13.8833 40.6539 13.8833 40.2049C13.8833 39.7559 14.053 39.3235 14.3584 38.9944C14.6637 38.6652 15.0822 38.4636 15.53 38.4299C15.5326 38.9003 15.7213 39.3505 16.0549 39.6821C16.3884 40.0138 16.8396 40.2 17.31 40.2H21.7V40.0299C21.7081 39.4638 21.8706 38.9105 22.17 38.4299H44.31C44.6094 38.9105 44.7719 39.4638 44.78 40.0299V40.2H52.8Z" fill="#CFD7D9"/>
<path d="M44.0201 31.33H22.5401C21.5516 31.3314 20.5918 31.6628 19.8129 32.2714C19.034 32.88 18.4805 33.7312 18.2401 34.69L17.3101 38.43H49.2501L48.3201 34.69C48.078 33.732 47.5241 32.8819 46.7455 32.2735C45.967 31.6651 45.0081 31.3332 44.0201 31.33Z" fill="#E7F0F1"/>
<path d="M49.2501 38.43H17.3101L18.2401 34.69C18.4553 33.8271 18.9252 33.0491 19.5886 32.4569C20.2521 31.8648 21.0784 31.4861 21.9601 31.37L21.7901 32.03C21.693 32.4141 21.673 32.8137 21.7312 33.2057C21.7894 33.5976 21.9247 33.9741 22.1293 34.3135C22.3338 34.6529 22.6036 34.9484 22.923 35.1829C23.2424 35.4174 23.605 35.5864 23.9901 35.68C24.1023 35.7057 24.2158 35.7257 24.3301 35.74C24.3819 35.517 24.4088 35.2889 24.4101 35.06V31.33H38.6001C38.6106 32.5077 39.0845 33.634 39.9192 34.465C40.7539 35.2959 41.8823 35.7647 43.0601 35.77H48.5901L49.2501 38.43Z" fill="#CFD7D9"/>
<path d="M41.7 37.54C41.2924 37.2669 40.9581 36.898 40.7262 36.4656C40.4943 36.0332 40.372 35.5506 40.37 35.06V31.33H26.17V35.06C26.168 35.5506 26.0457 36.0332 25.8138 36.4656C25.582 36.898 25.2476 37.2669 24.84 37.54C24.431 37.814 24.0958 38.1845 23.8638 38.6188C23.6319 39.053 23.5104 39.5377 23.51 40.03V40.38C23.5104 40.8723 23.6319 41.3569 23.8638 41.7912C24.0958 42.2254 24.431 42.5959 24.84 42.87C25.2476 43.1431 25.582 43.512 25.8138 43.9443C26.0457 44.3767 26.168 44.8594 26.17 45.35V52.63H40.37V45.35C40.372 44.8594 40.4943 44.3767 40.7262 43.9443C40.9581 43.512 41.2924 43.1431 41.7 42.87C42.109 42.5959 42.4442 42.2254 42.6762 41.7912C42.9081 41.3569 43.0297 40.8723 43.03 40.38V40.03C43.0297 39.5377 42.9081 39.053 42.6762 38.6188C42.4442 38.1845 42.109 37.814 41.7 37.54Z" fill="#E94D8C"/>
<path d="M33.2801 42.8699C35.7322 42.8699 37.7201 41.679 37.7201 40.2099C37.7201 38.7409 35.7322 37.5499 33.2801 37.5499C30.8279 37.5499 28.8401 38.7409 28.8401 40.2099C28.8401 41.679 30.8279 42.8699 33.2801 42.8699Z" fill="#E7F0F1"/>
<path d="M40.47 44.64C40.41 44.8719 40.3797 45.1104 40.38 45.35V46.42H28.98C29.2201 47.4286 29.7925 48.3271 30.6051 48.971C31.4177 49.6149 32.4232 49.9667 33.46 49.97H40.38V52.63H26.18V45.35C26.178 44.8594 26.0557 44.3767 25.8238 43.9443C25.592 43.512 25.2576 43.1431 24.85 42.87C24.441 42.5959 24.1058 42.2254 23.8738 41.7912C23.6419 41.3569 23.5204 40.8723 23.52 40.38V40.03C23.5204 39.5377 23.6419 39.053 23.8738 38.6188C24.1058 38.1845 24.441 37.814 24.85 37.54C25.2576 37.2669 25.592 36.898 25.8238 36.4656C26.0557 36.0332 26.178 35.5506 26.18 35.06V31.33H28.84V35.07C28.8256 35.5728 28.691 36.0649 28.4475 36.5051C28.2039 36.9453 27.8584 37.3207 27.44 37.6C27.0523 37.876 26.7358 38.2404 26.5167 38.6629C26.2976 39.0854 26.1822 39.554 26.18 40.03V40.39C26.1944 40.8928 26.329 41.3849 26.5726 41.8251C26.8161 42.2653 27.1616 42.6407 27.58 42.92C28.9676 43.9871 30.66 44.5827 32.41 44.62L40.47 44.64Z" fill="#D50264"/>
<path d="M37.7001 40.5799C37.4101 41.8699 35.5601 42.8699 33.3201 42.8699C30.8701 42.8699 28.8801 41.68 28.8801 40.2C28.9451 39.7043 29.1526 39.2382 29.4775 38.8583C29.8023 38.4784 30.2306 38.201 30.7101 38.0599C30.6781 38.1807 30.6613 38.305 30.6601 38.4299C30.6601 39.8999 32.6601 41.0899 35.0901 41.0899C35.9856 41.0977 36.8734 40.9242 37.7001 40.5799V40.5799Z" fill="#CFD7D9"/>
<path d="M29.7002 49.08H36.8002V52.63H29.7002V49.08Z" fill="#E7F0F1"/>
<path d="M36.8302 49.97V52.63H29.7002V49.08H30.7002C31.4845 49.6601 32.4347 49.9722 33.4102 49.97H36.8302Z" fill="#CFD7D9"/>
<path d="M41.1602 31.33H30.7001C29.9077 31.3295 29.1381 31.0647 28.5132 30.5774C27.8883 30.0902 27.4438 29.4084 27.2502 28.64L26.1501 24.23H45.7001L44.6001 28.64C44.4085 29.4076 43.9659 30.0891 43.3427 30.5765C42.7195 31.0638 41.9513 31.329 41.1602 31.33Z" fill="#CFD7D9"/>
<path d="M41.5502 25.9699H45.2602L45.7002 24.1899H26.1802L27.2802 28.5999C27.4734 29.3667 27.9164 30.0473 28.5393 30.5343C29.1622 31.0214 29.9295 31.2873 30.7202 31.2899H41.1602C41.8414 31.2897 42.5081 31.0934 43.0809 30.7246C43.6536 30.3558 44.1081 29.83 44.3902 29.2099C43.9302 29.413 43.433 29.5186 42.9302 29.5199C42.7113 29.5199 42.4947 29.4767 42.2926 29.3926C42.0905 29.3086 41.9071 29.1854 41.7528 29.0302C41.5986 28.875 41.4765 28.6908 41.3937 28.4883C41.3108 28.2857 41.2689 28.0688 41.2702 27.8499V27.8499V27.2199C41.2724 26.788 41.3679 26.3616 41.5502 25.9699V25.9699ZM31.5502 29.36C30.9565 29.1887 30.418 28.8651 29.9882 28.4212C29.5584 27.9774 29.2523 27.4288 29.1002 26.8299L28.8802 25.9699H31.2602C31.4419 26.3622 31.5406 26.7878 31.5502 27.2199V29.36Z" fill="#939999"/>
<path d="M45.7001 24.2299H26.1801C25.7324 24.1963 25.3139 23.9947 25.0085 23.6655C24.7031 23.3364 24.5334 22.9039 24.5334 22.4549C24.5334 22.0059 24.7031 21.5735 25.0085 21.2443C25.3139 20.9152 25.7324 20.7136 26.1801 20.6799H45.7001C45.9444 20.6616 46.1899 20.6939 46.4211 20.7747C46.6524 20.8556 46.8644 20.9834 47.044 21.15C47.2236 21.3166 47.3669 21.5185 47.4649 21.7431C47.5629 21.9676 47.6134 22.2099 47.6134 22.4549C47.6134 22.6999 47.5629 22.9423 47.4649 23.1668C47.3669 23.3913 47.2236 23.5933 47.044 23.7599C46.8644 23.9265 46.6524 24.0542 46.4211 24.1351C46.1899 24.216 45.9444 24.2483 45.7001 24.2299Z" fill="#E7F0F1"/>
<path d="M47.4801 22.4599C47.4749 22.9295 47.2853 23.3782 46.9524 23.7093C46.6194 24.0404 46.1697 24.2274 45.7001 24.2299H26.1801C25.7324 24.1963 25.3139 23.9947 25.0085 23.6655C24.7031 23.3364 24.5334 22.9039 24.5334 22.4549C24.5334 22.0059 24.7031 21.5735 25.0085 21.2444C25.3139 20.9152 25.7324 20.7136 26.1801 20.6799C26.1827 21.1512 26.3711 21.6025 26.7044 21.9357C27.0376 22.2689 27.4888 22.4573 27.9601 22.4599H29.7001V21.9699C29.7024 21.538 29.7979 21.1116 29.9801 20.7199H42.7401C42.9189 21.1124 43.011 21.5387 43.0101 21.9699V22.4999L47.4801 22.4599Z" fill="#CFD7D9"/>
<path d="M40.48 15.36H31.4C30.6551 15.3575 29.9284 15.5901 29.3233 16.0246C28.7183 16.4591 28.2657 17.0733 28.03 17.78L27.03 20.68H44.78L43.78 17.78C43.543 17.0742 43.0901 16.4607 42.4854 16.0264C41.8806 15.5922 41.1546 15.359 40.41 15.36H40.48Z" fill="#E7F0F1"/>
<path d="M44.8201 20.68H27.0701L28.0701 17.79C28.2383 17.2686 28.527 16.7941 28.9126 16.4049C29.2983 16.0158 29.7702 15.7229 30.2901 15.55L30.0401 16.29C29.8686 16.8316 29.873 17.4135 30.0527 17.9524C30.2323 18.4913 30.578 18.9596 31.0401 19.29C31.3582 18.7941 31.5314 18.2191 31.5401 17.63V15.33H40.5401C40.8026 15.3303 41.0643 15.3605 41.3201 15.42V17.65C41.3461 18.2273 41.5972 18.7716 42.0197 19.166C42.4421 19.5604 43.0023 19.7736 43.5801 19.76H44.5801L44.8201 20.68Z" fill="#CFD7D9"/>
<path d="M40.3802 19.79C40.0973 19.5101 39.873 19.1768 39.7202 18.8094C39.5674 18.442 39.4892 18.0479 39.4902 17.65V15.36H32.3902V17.65C32.3925 18.0472 32.3158 18.4409 32.1648 18.8082C32.0137 19.1756 31.7912 19.5093 31.5102 19.79C31.2261 20.071 31.0011 20.406 30.8482 20.7752C30.6954 21.1444 30.6179 21.5404 30.6202 21.94V22.94C30.6192 23.3379 30.6974 23.732 30.8502 24.0994C31.003 24.4668 31.2273 24.8001 31.5102 25.08C32.0723 25.6506 32.3882 26.419 32.3902 27.22V31.29H39.4902V27.22C39.4892 26.8221 39.5674 26.4279 39.7202 26.0605C39.873 25.6932 40.0973 25.3598 40.3802 25.08C40.663 24.8001 40.8874 24.4668 41.0402 24.0994C41.193 23.732 41.2712 23.3379 41.2702 22.94V21.94C41.2725 21.5404 41.195 21.1444 41.0421 20.7752C40.8893 20.406 40.6642 20.071 40.3802 19.79Z" fill="#E94D8C"/>
<path d="M35.9402 24.2299C36.9177 24.2299 37.7102 23.4375 37.7102 22.4599C37.7102 21.4824 36.9177 20.6899 35.9402 20.6899C34.9626 20.6899 34.1702 21.4824 34.1702 22.4599C34.1702 23.4375 34.9626 24.2299 35.9402 24.2299Z" fill="#E7F0F1"/>
<path d="M35.0501 26.8899C34.6966 26.8957 34.3491 26.7984 34.0501 26.6099C34.1019 26.8227 34.1287 27.0409 34.1301 27.2599C34.1301 27.562 34.1896 27.861 34.3051 28.1401C34.4207 28.4191 34.5901 28.6727 34.8037 28.8863C35.0173 29.0998 35.2708 29.2692 35.5499 29.3848C35.8289 29.5004 36.128 29.5599 36.4301 29.5599H39.4301V31.3299H32.3301V27.2599C32.3281 26.4589 32.0122 25.6906 31.4501 25.1199C31.1672 24.84 30.9429 24.5067 30.7901 24.1393C30.6373 23.7719 30.5591 23.3778 30.5601 22.9799V21.9699C30.5591 21.572 30.6373 21.1779 30.7901 20.8105C30.9429 20.4431 31.1672 20.1098 31.4501 19.8299C31.7299 19.5504 31.9517 19.2183 32.1028 18.8528C32.2538 18.4872 32.331 18.0954 32.3301 17.6999V15.3999H34.1101V17.6999C34.0704 18.5371 33.7127 19.3275 33.1101 19.9099C32.5837 20.4667 32.2903 21.2037 32.2901 21.9699V22.9699C32.3186 23.5491 32.5715 24.0943 32.9953 24.4901C33.4191 24.8859 33.9803 25.101 34.5601 25.0899H40.2801C39.8025 25.5664 39.4996 26.19 39.4201 26.8599L35.0501 26.8899Z" fill="#D50264"/>
<path d="M37.5601 23.18C37.4444 23.4455 37.2656 23.6787 37.0393 23.8594C36.813 24.0402 36.546 24.163 36.2615 24.2172C35.9769 24.2713 35.6835 24.2553 35.4066 24.1704C35.1297 24.0855 34.8777 23.9343 34.6725 23.7299C34.4672 23.5256 34.315 23.2742 34.2289 22.9977C34.1428 22.7211 34.1255 22.4278 34.1785 22.143C34.2314 21.8583 34.3531 21.5908 34.5329 21.3637C34.7126 21.1366 34.9451 20.9568 35.2101 20.84C35.1074 21.0698 35.0529 21.3183 35.0501 21.57C35.0528 22.0403 35.2415 22.4905 35.575 22.8222C35.9085 23.1538 36.3597 23.34 36.8301 23.34C37.0828 23.347 37.3335 23.292 37.5601 23.18V23.18Z" fill="#CFD7D9"/>
<path d="M9.31993 44.64C9.08389 44.64 8.85752 44.7338 8.69061 44.9007C8.52371 45.0676 8.42993 45.294 8.42993 45.53C8.42993 45.766 8.52371 45.9924 8.69061 46.1593C8.85752 46.3262 9.08389 46.42 9.31993 46.42H15.5299C15.766 46.42 15.9923 46.3262 16.1593 46.1593C16.3262 45.9924 16.4199 45.766 16.4199 45.53C16.4199 45.294 16.3262 45.0676 16.1593 44.9007C15.9923 44.7338 15.766 44.64 15.5299 44.64H9.31993Z" fill="#464A51"/>
<path d="M51.03 37.54H49.94L49.18 34.48C48.9224 33.4312 48.3505 32.486 47.541 31.7711C46.7314 31.0562 45.7227 30.6058 44.65 30.48C45.0294 29.9946 45.3051 29.4364 45.46 28.84L46.46 24.99C47.0779 24.8156 47.6119 24.4236 47.9635 23.8863C48.315 23.349 48.4603 22.7027 48.3725 22.0666C48.2848 21.4305 47.97 20.8477 47.4861 20.4256C47.0023 20.0035 46.3821 19.7706 45.74 19.77H41.55C41.4063 19.5458 41.2386 19.3379 41.05 19.15C40.849 18.9514 40.6897 18.7147 40.5815 18.4536C40.4733 18.1926 40.4184 17.9126 40.42 17.63V16.23H40.52C41.0171 16.2277 41.5048 16.3653 41.9274 16.627C42.35 16.8887 42.6905 17.264 42.91 17.71C43.0187 17.908 43.1986 18.0573 43.4132 18.1276C43.6279 18.1979 43.8612 18.1839 44.066 18.0886C44.2707 17.9932 44.4316 17.8235 44.5159 17.614C44.6002 17.4044 44.6016 17.1706 44.52 16.96C44.1499 16.2155 43.5794 15.5891 42.8728 15.151C42.1662 14.7129 41.3514 14.4805 40.52 14.48H31.4C30.8264 14.4827 30.2589 14.5982 29.73 14.82V12.71H36.83C37.066 12.71 37.2924 12.6163 37.4593 12.4494C37.6262 12.2825 37.72 12.0561 37.72 11.82C37.72 11.584 37.6262 11.3576 37.4593 11.1907C37.2924 11.0238 37.066 10.93 36.83 10.93H29.7C29.7 8.10547 28.5779 5.39662 26.5807 3.39935C24.5834 1.40209 21.8745 0.280029 19.05 0.280029C16.2254 0.280029 13.5165 1.40209 11.5193 3.39935C9.52202 5.39662 8.39998 8.10547 8.39998 10.93H1.29998C1.18358 10.93 1.06831 10.9531 0.960889 10.998C0.853465 11.0428 0.756009 11.1085 0.674161 11.1913C0.592313 11.2741 0.527698 11.3723 0.484067 11.4802C0.440435 11.5881 0.418657 11.7036 0.41998 11.82V49.97C0.41864 50.086 0.440485 50.201 0.484235 50.3084C0.527984 50.4158 0.592757 50.5133 0.674741 50.5953C0.756725 50.6773 0.854265 50.742 0.961637 50.7858C1.06901 50.8295 1.18405 50.8514 1.29998 50.85H16.7C16.8241 50.8632 16.9496 50.8502 17.0684 50.8117C17.1871 50.7733 17.2965 50.7103 17.3893 50.6268C17.4821 50.5434 17.5563 50.4413 17.6071 50.3273C17.6579 50.2133 17.6842 50.0899 17.6842 49.965C17.6842 49.8402 17.6579 49.7168 17.6071 49.6028C17.5563 49.4887 17.4821 49.3867 17.3893 49.3032C17.2965 49.2198 17.1871 49.1568 17.0684 49.1183C16.9496 49.0799 16.8241 49.0668 16.7 49.08H2.21998V12.7H8.42997V17.13C8.47156 17.8086 8.77044 18.4458 9.26565 18.9116C9.76087 19.3774 10.4151 19.6367 11.095 19.6367C11.7748 19.6367 12.4291 19.3774 12.9243 18.9116C13.4195 18.4458 13.7184 17.8086 13.76 17.13V12.7H24.41V16.25C24.4332 16.4685 24.5365 16.6707 24.6999 16.8176C24.8633 16.9645 25.0752 17.0458 25.295 17.0458C25.5147 17.0458 25.7267 16.9645 25.8901 16.8176C26.0535 16.6707 26.1567 16.4685 26.18 16.25V10.97C26.18 9.08699 25.4319 7.28109 24.1004 5.94958C22.7689 4.61808 20.963 3.87003 19.08 3.87003C17.1969 3.87003 15.391 4.61808 14.0595 5.94958C12.728 7.28109 11.98 9.08699 11.98 10.97V17.18C11.9932 17.3041 11.9801 17.4297 11.9417 17.5484C11.9032 17.6672 11.8402 17.7765 11.7568 17.8693C11.6733 17.9621 11.5713 18.0364 11.4572 18.0872C11.3432 18.138 11.2198 18.1642 11.095 18.1642C10.9702 18.1642 10.8467 18.138 10.7327 18.0872C10.6187 18.0364 10.5166 17.9621 10.4332 17.8693C10.3497 17.7765 10.2867 17.6672 10.2483 17.5484C10.2098 17.4297 10.1968 17.3041 10.21 17.18V10.97C10.2873 8.6678 11.2562 6.48568 12.9121 4.8844C14.5681 3.28312 16.7814 2.38797 19.085 2.38797C21.3885 2.38797 23.6019 3.28312 25.2578 4.8844C26.9138 6.48568 27.8827 8.6678 27.96 10.97V16.18C27.6217 16.5858 27.3607 17.0501 27.19 17.55L26.43 19.84H26.18C25.5379 19.8406 24.9177 20.0735 24.4338 20.4955C23.95 20.9176 23.6352 21.5005 23.5474 22.1366C23.4597 22.7726 23.605 23.419 23.9565 23.9563C24.308 24.4936 24.842 24.8856 25.46 25.06L25.93 26.94H9.31997V23.39H20.86C21.0785 23.3668 21.2806 23.2635 21.4276 23.1001C21.5745 22.9367 21.6558 22.7248 21.6558 22.505C21.6558 22.2853 21.5745 22.0733 21.4276 21.9099C21.2806 21.7466 21.0785 21.6433 20.86 21.62H8.42997C8.31357 21.62 8.19832 21.6431 8.09089 21.688C7.98347 21.7328 7.88601 21.7985 7.80417 21.8813C7.72232 21.9641 7.6577 22.0623 7.61407 22.1702C7.57044 22.2781 7.54866 22.3936 7.54998 22.51V27.83C7.54866 27.9464 7.57044 28.0619 7.61407 28.1699C7.6577 28.2778 7.72232 28.376 7.80417 28.4588C7.88601 28.5415 7.98347 28.6073 8.09089 28.6521C8.19832 28.6969 8.31357 28.72 8.42997 28.72H26.43V28.91C26.5795 29.4825 26.8413 30.0195 27.2 30.49H22.55C21.6175 30.491 20.7018 30.7385 19.8957 31.2074C19.0896 31.6763 18.4218 32.3499 17.96 33.16H8.43998C8.22149 33.1833 8.01931 33.2866 7.87239 33.45C7.72547 33.6133 7.64419 33.8253 7.64419 34.045C7.64419 34.2648 7.72547 34.4767 7.87239 34.6401C8.01931 34.8035 8.22149 34.9068 8.43998 34.93H17.29L16.63 37.59H15.54C14.9911 37.595 14.4571 37.7684 14.01 38.0868C13.5629 38.4051 13.2243 38.853 13.04 39.37H7.55998C7.43586 39.3568 7.31034 39.3699 7.19159 39.4083C7.07283 39.4468 6.9635 39.5098 6.87068 39.5932C6.77786 39.6767 6.70364 39.7787 6.65283 39.8928C6.60202 40.0068 6.57577 40.1302 6.57577 40.255C6.57577 40.3799 6.60202 40.5033 6.65283 40.6173C6.70364 40.7313 6.77786 40.8334 6.87068 40.9168C6.9635 41.0003 7.07283 41.0633 7.19159 41.1017C7.31034 41.1402 7.43586 41.1533 7.55998 41.14H13.04C13.2243 41.657 13.5629 42.105 14.01 42.4233C14.4571 42.7416 14.9911 42.915 15.54 42.92H16.7L18.63 48.71C19.0977 50.1244 20.0003 51.3549 21.2089 52.2258C22.4175 53.0968 23.8703 53.5637 25.36 53.56H41.26C42.7497 53.5637 44.2025 53.0968 45.4111 52.2258C46.6196 51.3549 47.5222 50.1244 47.99 48.71L48.99 45.86C49.0642 45.6359 49.0464 45.3915 48.9405 45.1805C48.8345 44.9695 48.6491 44.8093 48.425 44.735C48.2009 44.6608 47.9564 44.6786 47.7455 44.7845C47.5345 44.8905 47.3742 45.0759 47.3 45.3L46.36 48.15C46.0071 49.2102 45.3294 50.1324 44.423 50.7858C43.5165 51.4391 42.4274 51.7905 41.31 51.79H37.7V49.13C37.7 48.894 37.6062 48.6676 37.4393 48.5007C37.2724 48.3338 37.046 48.24 36.81 48.24H29.7C29.4639 48.24 29.2376 48.3338 29.0707 48.5007C28.9038 48.6676 28.81 48.894 28.81 49.13V51.79H27.04V46.47H28.81C29.046 46.47 29.2724 46.3763 29.4393 46.2094C29.6062 46.0424 29.7 45.8161 29.7 45.58C29.7 45.344 29.6062 45.1176 29.4393 44.9507C29.2724 44.7838 29.046 44.69 28.81 44.69H27C26.906 44.1816 26.7106 43.6974 26.4254 43.2661C26.1402 42.8349 25.771 42.4655 25.34 42.18C25.0535 41.9868 24.8189 41.7262 24.6567 41.421C24.4946 41.1159 24.4099 40.7756 24.41 40.43V40.08C24.409 39.7343 24.4933 39.3937 24.6556 39.0884C24.8178 38.7832 25.0529 38.5226 25.34 38.33C25.9401 37.9255 26.4147 37.3608 26.71 36.7H27.96C28.1785 36.6768 28.3806 36.5735 28.5276 36.4101C28.6745 36.2467 28.7558 36.0348 28.7558 35.815C28.7558 35.5953 28.6745 35.3833 28.5276 35.2199C28.3806 35.0566 28.1785 34.9533 27.96 34.93H27.07V32.27H39.49V34.93H38.6C38.3815 34.9533 38.1793 35.0566 38.0324 35.2199C37.8855 35.3833 37.8042 35.5953 37.8042 35.815C37.8042 36.0348 37.8855 36.2467 38.0324 36.4101C38.1793 36.5735 38.3815 36.6768 38.6 36.7H39.85C40.1424 37.3625 40.6177 37.9279 41.22 38.33C41.5064 38.5233 41.7411 38.7839 41.9032 39.0891C42.0654 39.3942 42.1501 39.7345 42.15 40.08V40.43C42.1501 40.7756 42.0654 41.1159 41.9032 41.421C41.7411 41.7262 41.5064 41.9868 41.22 42.18C40.7901 42.4668 40.4218 42.8365 40.1367 43.2675C39.8517 43.6986 39.6556 44.1822 39.56 44.69H38.56C38.3239 44.69 38.0976 44.7838 37.9307 44.9507C37.7638 45.1176 37.67 45.344 37.67 45.58C37.67 45.8161 37.7638 46.0424 37.9307 46.2094C38.0976 46.3763 38.3239 46.47 38.56 46.47H39.45V49.13C39.45 49.3661 39.5438 49.5925 39.7107 49.7594C39.8776 49.9263 40.1039 50.02 40.34 50.02C40.576 50.02 40.8024 49.9263 40.9693 49.7594C41.1362 49.5925 41.23 49.3661 41.23 49.13V45.4C41.2281 45.0542 41.3121 44.7132 41.4744 44.4078C41.6367 44.1024 41.8723 43.842 42.16 43.65C42.4672 43.4477 42.7434 43.2018 42.98 42.92H50.98C51.6586 42.8785 52.2957 42.5796 52.7615 42.0844C53.2273 41.5891 53.4867 40.9349 53.4867 40.255C53.4867 39.5752 53.2273 38.9209 52.7615 38.4257C52.2957 37.9305 51.6586 37.6316 50.98 37.59L51.03 37.54ZM19.03 5.60004C20.4419 5.60003 21.796 6.16022 22.7953 7.15762C23.7946 8.15503 24.3573 9.50817 24.36 10.92H13.76C13.76 9.50909 14.3205 8.15593 15.3182 7.15823C16.3159 6.16054 17.669 5.60004 19.08 5.60004H19.03ZM45.65 21.6C45.7741 21.5868 45.8996 21.5999 46.0184 21.6383C46.1371 21.6768 46.2465 21.7398 46.3393 21.8232C46.4321 21.9067 46.5063 22.0088 46.5571 22.1228C46.6079 22.2368 46.6342 22.3602 46.6342 22.485C46.6342 22.6099 46.6079 22.7333 46.5571 22.8473C46.5063 22.9613 46.4321 23.0634 46.3393 23.1468C46.2465 23.2303 46.1371 23.2933 46.0184 23.3318C45.8996 23.3702 45.7741 23.3832 45.65 23.37H42.07C42.07 23.25 42.07 23.13 42.07 23.01V22.01C42.07 21.88 42.07 21.76 42.07 21.64L45.65 21.6ZM40.96 25.78C41.1488 25.5886 41.3164 25.3774 41.46 25.15H44.52L43.69 28.46C43.5433 29.0327 43.2101 29.5402 42.7429 29.9023C42.2757 30.2645 41.7011 30.4607 41.11 30.46H40.33V27.28C40.328 26.9989 40.3828 26.7203 40.4911 26.4608C40.5993 26.2014 40.7588 25.9664 40.96 25.77V25.78ZM28.82 18.1C28.9441 17.7267 29.149 17.3853 29.42 17.1C29.6662 16.8377 29.9637 16.6287 30.2939 16.4859C30.6242 16.3432 30.9802 16.2697 31.34 16.27H31.45V17.67C31.4487 18.24 31.2223 18.7863 30.82 19.19C30.6311 19.3804 30.4603 19.5879 30.31 19.81H28.3L28.82 18.1ZM26.13 21.6H29.72C29.7096 21.7232 29.7096 21.8469 29.72 21.97V22.97C29.7101 23.0898 29.7101 23.2102 29.72 23.33H26.13C26.0058 23.3432 25.8803 23.3302 25.7616 23.2917C25.6428 23.2533 25.5335 23.1903 25.4407 23.1068C25.3479 23.0234 25.2736 22.9213 25.2228 22.8073C25.172 22.6933 25.1458 22.5699 25.1458 22.445C25.1458 22.3202 25.172 22.1968 25.2228 22.0828C25.2736 21.9687 25.3479 21.8667 25.4407 21.7832C25.5335 21.6998 25.6428 21.6368 25.7616 21.5983C25.8803 21.5599 26.0058 21.5468 26.13 21.56V21.6ZM30.57 50H35.89V51.77H30.57V50ZM25.24 45.38V51.77C24.1312 51.76 23.0532 51.4038 22.1567 50.7512C21.2602 50.0986 20.5901 49.1822 20.24 48.13L18.5 42.9H23.5C23.7365 43.1818 24.0127 43.4277 24.32 43.63C24.6064 43.8233 24.8411 44.0839 25.0032 44.3891C25.1654 44.6942 25.2501 45.0345 25.25 45.38H25.24ZM25.24 35.09C25.2401 35.4356 25.1554 35.7759 24.9932 36.081C24.8311 36.3861 24.5964 36.6468 24.31 36.84C23.7774 37.1914 23.3404 37.6696 23.0385 38.2316C22.7365 38.7937 22.5789 39.422 22.58 40.06V40.41C22.583 40.6483 22.6064 40.8858 22.65 41.12H15.48C15.2615 41.0968 15.0593 40.9935 14.9124 40.8301C14.7655 40.6667 14.6842 40.4548 14.6842 40.235C14.6842 40.0153 14.7655 39.8033 14.9124 39.64C15.0593 39.4766 15.2615 39.3733 15.48 39.35H20.41C20.646 39.35 20.8724 39.2563 21.0393 39.0894C21.2062 38.9224 21.3 38.6961 21.3 38.46C21.3 38.224 21.2062 37.9976 21.0393 37.8307C20.8724 37.6638 20.646 37.57 20.41 37.57H18.41L19.07 34.94C19.2632 34.1733 19.7062 33.4927 20.3291 33.0056C20.952 32.5186 21.7193 32.2527 22.51 32.25H25.26L25.24 35.09ZM28.09 28.46L27.27 25.15H30.27C30.4202 25.3753 30.5909 25.5862 30.78 25.78C30.9793 25.9778 31.1376 26.213 31.2458 26.4721C31.3539 26.7313 31.4097 27.0092 31.41 27.29V27.81C31.3968 27.9342 31.4098 28.0597 31.4483 28.1784C31.4867 28.2972 31.5497 28.4065 31.6332 28.4993C31.7167 28.5921 31.8187 28.6664 31.9327 28.7172C32.0467 28.768 32.1702 28.7943 32.295 28.7943C32.4198 28.7943 32.5432 28.768 32.6572 28.7172C32.7713 28.6664 32.8733 28.5921 32.9568 28.4993C33.0402 28.4065 33.1032 28.2972 33.1417 28.1784C33.1801 28.0597 33.1932 27.9342 33.18 27.81V27.29C33.1811 26.7752 33.0801 26.2652 32.8827 25.7897C32.6853 25.3142 32.3954 24.8827 32.03 24.52C31.8302 24.3231 31.6722 24.0879 31.5657 23.8284C31.4591 23.5689 31.4062 23.2905 31.41 23.01V22.01C31.4065 21.7281 31.4596 21.4483 31.5661 21.1873C31.6726 20.9262 31.8303 20.6891 32.03 20.49C32.3954 20.1274 32.6853 19.6958 32.8827 19.2203C33.0801 18.7448 33.1811 18.2349 33.18 17.72V16.32H38.5V17.72C38.4988 18.2349 38.5999 18.7448 38.7973 19.2203C38.9947 19.6958 39.2845 20.1274 39.65 20.49C40.0523 20.8937 40.2787 21.4401 40.28 22.01V23.01C40.2797 23.2908 40.2239 23.5688 40.1157 23.8279C40.0076 24.0871 39.8493 24.3223 39.65 24.52C39.2845 24.8827 38.9947 25.3142 38.7973 25.7897C38.5999 26.2652 38.4988 26.7752 38.5 27.29V30.47H30.7C30.108 30.4695 29.5328 30.273 29.0643 29.9112C28.5958 29.5494 28.2602 29.0426 28.11 28.47L28.09 28.46ZM50.98 41.12H43.81C43.8536 40.8858 43.877 40.6483 43.88 40.41V40.06C43.88 39.4208 43.7221 38.7915 43.4203 38.228C43.1185 37.6645 42.6821 37.1842 42.15 36.83C41.8643 36.6383 41.6301 36.3795 41.4679 36.076C41.3058 35.7726 41.2206 35.434 41.22 35.09V32.25H43.97C44.7616 32.2492 45.5306 32.5138 46.1542 33.0014C46.7777 33.489 47.2199 34.1716 47.41 34.94L48.07 37.57H46.07C45.8339 37.57 45.6076 37.6638 45.4407 37.8307C45.2737 37.9976 45.18 38.224 45.18 38.46C45.18 38.6961 45.2737 38.9224 45.4407 39.0894C45.6076 39.2563 45.8339 39.35 46.07 39.35H51C51.2185 39.3733 51.4206 39.4766 51.5676 39.64C51.7145 39.8033 51.7958 40.0153 51.7958 40.235C51.7958 40.4548 51.7145 40.6667 51.5676 40.8301C51.4206 40.9935 51.2185 41.0968 51 41.12H50.98Z" fill="#464A51"/>
<path d="M33.28 36.65C30.28 36.65 27.96 38.21 27.96 40.2C27.96 42.19 30.29 43.75 33.28 43.75C36.27 43.75 38.6 42.19 38.6 40.2C38.6 38.21 36.26 36.65 33.28 36.65ZM33.28 41.98C31.28 41.98 29.73 41.04 29.73 40.2C29.73 39.36 31.25 38.43 33.28 38.43C35.31 38.43 36.83 39.37 36.83 40.2C36.83 41.03 35.31 41.97 33.28 41.97V41.98Z" fill="#464A51"/>
<path d="M38.6 22.46C38.6 21.934 38.444 21.4197 38.1517 20.9822C37.8594 20.5448 37.444 20.2039 36.958 20.0025C36.4719 19.8012 35.9371 19.7485 35.4211 19.8512C34.9051 19.9538 34.4311 20.2072 34.0591 20.5792C33.6871 20.9512 33.4338 21.4251 33.3311 21.9411C33.2285 22.4571 33.2812 22.9919 33.4825 23.478C33.6838 23.964 34.0248 24.3795 34.4622 24.6718C34.8996 24.9641 35.4139 25.1201 35.94 25.1201C36.6447 25.1174 37.3197 24.8363 37.818 24.338C38.3163 23.8398 38.5974 23.1647 38.6 22.46ZM35.05 22.46C35.048 22.2836 35.0985 22.1106 35.1951 21.9629C35.2917 21.8152 35.43 21.6996 35.5924 21.6307C35.7549 21.5618 35.9342 21.5428 36.1074 21.576C36.2807 21.6092 36.4403 21.6931 36.5657 21.8172C36.6912 21.9413 36.777 22.0998 36.8121 22.2727C36.8473 22.4456 36.8303 22.6251 36.7632 22.7883C36.6961 22.9515 36.5821 23.0911 36.4355 23.1894C36.2889 23.2876 36.1165 23.34 35.94 23.3401C35.7057 23.3401 35.4808 23.2477 35.3142 23.0829C35.1476 22.9182 35.0527 22.6944 35.05 22.46V22.46Z" fill="#464A51"/>
<path d="M35.94 28.68C36.4316 28.68 36.83 28.2816 36.83 27.79C36.83 27.2985 36.4316 26.9 35.94 26.9C35.4485 26.9 35.05 27.2985 35.05 27.79C35.05 28.2816 35.4485 28.68 35.94 28.68Z" fill="#464A51"/>
</svg>
