<svg width="54" height="53" viewBox="0 0 54 53" fill="none" xmlns="http://www.w3.org/2000/svg">
<path d="M48.8502 1.34998H4.48018C2.51957 1.34998 0.930176 2.93937 0.930176 4.89998V31.52C0.930176 33.4806 2.51957 35.07 4.48018 35.07H48.8502C50.8108 35.07 52.4002 33.4806 52.4002 31.52V4.89998C52.4002 2.93937 50.8108 1.34998 48.8502 1.34998Z" fill="#E94D8C"/>
<path d="M52.4002 25.3V31.51C52.4002 31.9762 52.3084 32.4378 52.13 32.8685C51.9516 33.2992 51.6901 33.6906 51.3604 34.0202C51.0308 34.3499 50.6394 34.6113 50.2087 34.7897C49.778 34.9681 49.3164 35.06 48.8502 35.06H4.49019C4.024 35.06 3.56237 34.9681 3.13166 34.7897C2.70095 34.6113 2.30961 34.3499 1.97996 34.0202C1.65031 33.6906 1.38882 33.2992 1.21042 32.8685C1.03201 32.4378 0.940186 31.9762 0.940186 31.51V4.88998C0.940186 3.94847 1.3142 3.04548 1.97996 2.37973C2.64571 1.71398 3.54867 1.33997 4.49019 1.33997H10.7002V21.75C10.7002 22.6915 11.0742 23.5944 11.74 24.2602C12.4057 24.9259 13.3087 25.3 14.2502 25.3H52.4002Z" fill="#D50264"/>
<path d="M4.49023 4.89001H45.3002V31.51H4.49023V4.89001Z" fill="#85D0F2"/>
<path d="M4.49023 4.89001V31.51H45.3002V4.89001H4.49023ZM42.6402 25.3H26.7002C22.4568 25.3 18.3871 23.6143 15.3865 20.6137C12.3859 17.6131 10.7002 13.5435 10.7002 9.29999V7.51999H39.0902C40.0318 7.51999 40.9347 7.89403 41.6005 8.55978C42.2662 9.22554 42.6402 10.1285 42.6402 11.07V25.3Z" fill="#59B5E7"/>
<path d="M27.5601 12.88C27.5601 15.0017 28.4029 17.0365 29.9032 18.5368C31.4035 20.0371 33.4383 20.88 35.5601 20.88L40.0001 9.33997L27.5601 12.88Z" fill="#F8E006"/>
<path d="M39.9803 9.32996L35.5403 20.87C33.4186 20.87 31.3837 20.0271 29.8834 18.5268C28.3831 17.0265 27.5403 14.9917 27.5403 12.87L28.3203 12.65C28.6816 13.2972 29.1883 13.8518 29.8003 14.27L30.1003 14.47C30.3301 14.6065 30.5709 14.7236 30.8203 14.82C31.5961 15.121 32.4316 15.2362 33.2599 15.1563C34.0882 15.0764 34.8863 14.8037 35.5903 14.36C35.7008 14.2924 35.8076 14.219 35.9103 14.14C36.1175 13.9827 36.3114 13.8088 36.4903 13.62C36.9698 13.1119 37.3437 12.5136 37.5903 11.86L38.4003 9.73996L39.9803 9.32996Z" fill="#FBBB08"/>
<path d="M27.5601 12.88C27.5601 15.0017 28.403 17.0366 29.9033 18.5369C31.4036 20.0372 33.4384 20.88 35.5601 20.88V22.48C35.5614 22.7133 35.5166 22.9445 35.4283 23.1604C35.3399 23.3763 35.2097 23.5726 35.0453 23.738C34.8808 23.9035 34.6852 24.0348 34.4698 24.1243C34.2544 24.2139 34.0234 24.26 33.7901 24.26C33.6904 24.27 33.5899 24.27 33.4901 24.26C31.1855 23.835 29.0642 22.7202 27.4071 21.063C25.7499 19.4059 24.6351 17.2847 24.2101 14.98C24.1345 14.5164 24.2441 14.0416 24.5154 13.6581C24.7867 13.2746 25.1978 13.0131 25.6601 12.93H25.9601L27.5601 12.88Z" fill="#E3962E"/>
<path d="M39.9802 9.32996L38.6302 12.83C38.034 12.7312 37.4902 12.4293 37.0911 11.9755C36.692 11.5217 36.462 10.9439 36.4402 10.34L39.9802 9.32996Z" fill="#F29A8D"/>
<path d="M36.7901 17.6299L35.5401 20.8699C34.6483 20.861 33.7637 20.7091 32.9201 20.42C32.9052 20.2737 32.9052 20.1262 32.9201 19.9799C32.9227 19.2736 33.2052 18.597 33.7056 18.0984C34.2061 17.5999 34.8837 17.3199 35.5901 17.3199C36.0093 17.3246 36.421 17.431 36.7901 17.6299V17.6299Z" fill="#EB6652"/>
<path d="M33.7701 12.88C33.7729 13.1513 33.7137 13.4197 33.5969 13.6646C33.4802 13.9095 33.309 14.1245 33.0964 14.2931C32.8838 14.4617 32.6355 14.5795 32.3704 14.6375C32.1054 14.6954 31.8305 14.692 31.567 14.6275C31.3034 14.563 31.0581 14.4391 30.8498 14.2653C30.6415 14.0914 30.4756 13.8722 30.365 13.6245C30.2543 13.3768 30.2018 13.107 30.2113 12.8358C30.2209 12.5647 30.2923 12.2993 30.4201 12.06L32.9001 11.35C33.1653 11.5077 33.3849 11.7317 33.5375 11.9999C33.69 12.2681 33.7702 12.5714 33.7701 12.88Z" fill="#F29A8D"/>
<path d="M39.9802 9.32996L38.6302 12.83C38.1965 12.758 37.7876 12.5793 37.4402 12.31C37.5137 12.1713 37.5771 12.0276 37.6302 11.88L38.4402 9.75998L39.9802 9.32996Z" fill="#EB6652"/>
<path d="M45.3002 32.4V42.16C45.3007 43.0943 45.0551 44.0123 44.5882 44.8216C44.1212 45.6308 43.4494 46.3028 42.6402 46.77V51.97H31.9902V47.47C30.9977 47.2982 30.0975 46.7818 29.4482 46.0118C28.7989 45.2417 28.4419 44.2673 28.4402 43.26C28.4421 42.5134 28.249 41.7792 27.8802 41.13L24.3102 34.94C24.013 34.4212 23.9335 33.8058 24.0891 33.2286C24.2446 32.6513 24.6226 32.1592 25.1402 31.86C25.2688 31.7899 25.4025 31.7297 25.5402 31.68C26.0471 31.5189 26.5942 31.5385 27.0883 31.7354C27.5825 31.9323 27.9931 32.2944 28.2502 32.76L31.1102 37.7V25.3C31.1438 24.8522 31.3455 24.4338 31.6746 24.1284C32.0038 23.823 32.4362 23.6533 32.8852 23.6533C33.3342 23.6533 33.7666 23.823 34.0958 24.1284C34.425 24.4338 34.6266 24.8522 34.6602 25.3V30.63C34.6419 30.3857 34.6741 30.1402 34.755 29.909C34.8359 29.6777 34.9637 29.4657 35.1303 29.2861C35.2969 29.1065 35.4988 28.9632 35.7233 28.8652C35.9479 28.7673 36.1902 28.7167 36.4352 28.7167C36.6802 28.7167 36.9226 28.7673 37.1471 28.8652C37.3716 28.9632 37.5735 29.1065 37.7401 29.2861C37.9068 29.4657 38.0345 29.6777 38.1154 29.909C38.1963 30.1402 38.2286 30.3857 38.2102 30.63C38.2102 30.3976 38.256 30.1674 38.3449 29.9526C38.4339 29.7379 38.5643 29.5428 38.7286 29.3784C38.893 29.2141 39.0881 29.0837 39.3029 28.9947C39.5176 28.9058 39.7478 28.86 39.9802 28.86C40.2126 28.86 40.4428 28.9058 40.6576 28.9947C40.8723 29.0837 41.0674 29.2141 41.2318 29.3784C41.3962 29.5428 41.5265 29.7379 41.6155 29.9526C41.7044 30.1674 41.7502 30.3976 41.7502 30.63V32.4C41.7838 31.9522 41.9854 31.5338 42.3146 31.2284C42.6438 30.923 43.0762 30.7533 43.5252 30.7533C43.9742 30.7533 44.4066 30.923 44.7358 31.2284C45.065 31.5338 45.2666 31.9522 45.3002 32.4V32.4Z" fill="#F8E006"/>
<path d="M36.4301 28.85C35.9598 28.8526 35.5096 29.0413 35.178 29.3748C34.8463 29.7084 34.6601 30.1596 34.6602 30.63V35.06C35.1296 35.06 35.5798 34.8735 35.9117 34.5416C36.2437 34.2096 36.4301 33.7594 36.4301 33.29V31.51C36.4335 31.0818 36.591 30.6692 36.8738 30.3478C37.1567 30.0264 37.5459 29.8177 37.9702 29.76C37.8182 29.4845 37.5952 29.2548 37.3244 29.0947C37.0535 28.9347 36.7447 28.8502 36.4301 28.85V28.85Z" fill="#FBBB08"/>
<path d="M39.9802 28.85C39.5099 28.8526 39.0597 29.0413 38.728 29.3748C38.3964 29.7084 38.2102 30.1596 38.2102 30.63V35.06C38.6796 35.06 39.1299 34.8735 39.4618 34.5416C39.7937 34.2096 39.9802 33.7594 39.9802 33.29V31.51C39.9835 31.0818 40.141 30.6692 40.4239 30.3478C40.7067 30.0264 41.096 29.8177 41.5202 29.76C41.3683 29.4845 41.1453 29.2548 40.8744 29.0947C40.6036 28.9347 40.2948 28.8502 39.9802 28.85V28.85Z" fill="#FBBB08"/>
<path d="M43.5302 30.63C43.0599 30.63 42.6086 30.8161 42.2751 31.1478C41.9416 31.4795 41.7529 31.9296 41.7502 32.4V35.97C42.2206 35.97 42.6718 35.7838 43.0054 35.4522C43.3389 35.1205 43.5276 34.6704 43.5302 34.2V33.31C43.5293 32.8807 43.6853 32.4658 43.969 32.1435C44.2526 31.8212 44.6443 31.6137 45.0702 31.56C44.9209 31.2808 44.6991 31.047 44.428 30.8834C44.157 30.7197 43.8469 30.6322 43.5302 30.63V30.63Z" fill="#FBBB08"/>
<path d="M45.2202 43.05C45.0949 43.8233 44.7982 44.5587 44.3518 45.2024C43.9053 45.8461 43.3205 46.3817 42.6402 46.77V51.97H31.9902V47.47C30.9977 47.2982 30.0975 46.7819 29.4482 46.0118C28.7989 45.2418 28.4419 44.2673 28.4402 43.26C28.4421 42.5134 28.249 41.7792 27.8802 41.13L24.3102 34.94C24.013 34.4213 23.9335 33.8059 24.0891 33.2286C24.2446 32.6513 24.6226 32.1593 25.1402 31.8601C25.2688 31.7899 25.4025 31.7297 25.5402 31.68C25.8765 31.5729 26.2336 31.5478 26.5815 31.607C26.9295 31.6662 27.2582 31.8078 27.5402 32.02C27.0993 32.3483 26.7946 32.8273 26.684 33.3657C26.5733 33.9042 26.6645 34.4645 26.9402 34.94L27.4302 35.8C27.7913 36.4409 28.3245 36.9679 28.9696 37.3213C29.6146 37.6748 30.3458 37.8406 31.0802 37.8V25.3C31.079 24.9069 31.2087 24.5247 31.4488 24.2134C31.6889 23.9022 32.0258 23.6798 32.4064 23.5812C32.7869 23.4826 33.1894 23.5135 33.5504 23.669C33.9114 23.8245 34.2104 24.0958 34.4002 24.44C33.975 24.4975 33.5846 24.7059 33.3001 25.0271C33.0156 25.3483 32.8559 25.761 32.8502 26.19V32.4C32.8502 35.2246 33.9723 37.9335 35.9695 39.9307C37.9668 41.928 40.6757 43.05 43.5002 43.05H45.2202Z" fill="#FBBB08"/>
<path d="M31.9902 50.15V47.49H34.7002C33.5298 48.0556 32.5776 48.9902 31.9902 50.15Z" fill="#E3962E"/>
<path d="M8.92017 9.32996H19.5702V12.88H8.92017V9.32996Z" fill="#EB6652"/>
<path d="M11.1102 12.88H8.92017V9.32996H10.7002C10.6916 10.5256 10.8292 11.7178 11.1102 12.88V12.88Z" fill="#CC5244"/>
<path d="M48.85 0.459954H32.85C32.7259 0.446741 32.6004 0.459799 32.4817 0.498254C32.3629 0.536708 32.2536 0.599698 32.1608 0.68316C32.0679 0.766621 31.9937 0.868675 31.9429 0.98269C31.8921 1.0967 31.8658 1.22014 31.8658 1.34496C31.8658 1.46979 31.8921 1.59322 31.9429 1.70724C31.9937 1.82125 32.0679 1.92331 32.1608 2.00677C32.2536 2.09023 32.3629 2.15322 32.4817 2.19167C32.6004 2.23013 32.7259 2.24319 32.85 2.22997H48.85C49.5564 2.22997 50.2341 2.50989 50.7345 3.00845C51.2349 3.50701 51.5174 4.18358 51.5201 4.88998V31.51C51.5174 32.2173 51.2353 32.8949 50.7351 33.395C50.235 33.8952 49.5574 34.1773 48.85 34.18H46.1901V32.4C46.1901 32.0506 46.1212 31.7047 45.9876 31.382C45.8539 31.0593 45.658 30.7661 45.411 30.5191C45.164 30.2721 44.8707 30.0761 44.548 29.9424C44.2253 29.8088 43.8794 29.74 43.5301 29.74C43.1873 29.7346 42.847 29.7993 42.5301 29.93C42.4117 29.4919 42.1833 29.0914 41.8664 28.7665C41.5496 28.4417 41.155 28.2033 40.72 28.074C40.285 27.9447 39.8242 27.9289 39.3814 28.0279C38.9386 28.127 38.5285 28.3377 38.1901 28.64C37.8278 28.3301 37.3915 28.1193 36.9236 28.0282C36.4556 27.9371 35.9721 27.9687 35.5201 28.12V25.2999C35.5193 25.0452 35.4788 24.7922 35.4 24.5499C35.7133 24.3016 35.9662 23.9853 36.1394 23.625C36.3126 23.2647 36.4017 22.8698 36.4 22.47V21.03L40.7801 9.64996C40.8648 9.42982 40.8587 9.18505 40.7631 8.96941C40.6674 8.75378 40.4901 8.58493 40.2701 8.49996C40.089 8.43509 39.8911 8.43509 39.71 8.49996L27.43 11.97H25.9401C25.5457 11.9749 25.1573 12.0671 24.8029 12.24C24.4484 12.4129 24.1367 12.6622 23.8901 12.97C23.6429 13.2664 23.4638 13.6135 23.3653 13.9867C23.2668 14.3599 23.2514 14.7502 23.3201 15.13C23.681 17.1128 24.5199 18.9778 25.764 20.5635C27.0081 22.1491 28.62 23.4076 30.46 24.23C30.3005 24.5711 30.2186 24.9434 30.2201 25.32V34.37L29.0201 32.29C28.6735 31.6417 28.1097 31.136 27.4277 30.8617C26.7456 30.5874 25.9888 30.562 25.2898 30.7898C24.5909 31.0176 23.9944 31.4842 23.605 32.1077C23.2156 32.7312 23.0581 33.4719 23.16 34.2H4.49005C3.78273 34.1973 3.10514 33.9152 2.60499 33.415C2.10484 32.9149 1.82269 32.2373 1.82005 31.53V4.88998C1.8227 4.18358 2.10516 3.50701 2.6056 3.00845C3.10603 2.50989 3.78365 2.22997 4.49005 2.22997H29.3301C29.4542 2.24319 29.5797 2.23013 29.6984 2.19167C29.8172 2.15322 29.9265 2.09023 30.0193 2.00677C30.1122 1.92331 30.1864 1.82125 30.2372 1.70724C30.288 1.59322 30.3143 1.46979 30.3143 1.34496C30.3143 1.22014 30.288 1.0967 30.2372 0.98269C30.1864 0.868675 30.1122 0.766621 30.0193 0.68316C29.9265 0.599698 29.8172 0.536708 29.6984 0.498254C29.5797 0.459799 29.4542 0.446741 29.3301 0.459954H4.49005C3.90745 0.458639 3.33032 0.572265 2.79169 0.794305C2.25307 1.01634 1.76352 1.34244 1.3511 1.75393C0.938674 2.16542 0.611475 2.65425 0.388222 3.19238C0.164968 3.7305 0.0500473 4.30738 0.0500488 4.88998V31.51C0.0500488 32.6875 0.517833 33.8169 1.35049 34.6495C2.18316 35.4822 3.31249 35.95 4.49005 35.95H23.8901L27.1101 41.52C27.4027 42.0353 27.5577 42.6173 27.5601 43.21C27.5554 44.2989 27.8966 45.3612 28.5347 46.2436C29.1727 47.1261 30.0745 47.7831 31.1101 48.12V51.97C31.0968 52.0941 31.1099 52.2196 31.1483 52.3383C31.1868 52.4571 31.2498 52.5664 31.3333 52.6593C31.4167 52.7521 31.5188 52.8263 31.6328 52.8771C31.7468 52.9279 31.8702 52.9542 31.995 52.9542C32.1199 52.9542 32.2433 52.9279 32.3573 52.8771C32.4713 52.8263 32.5734 52.7521 32.6568 52.6593C32.7403 52.5664 32.8033 52.4571 32.8418 52.3383C32.8802 52.2196 32.8933 52.0941 32.88 51.97V47.47C32.8803 47.2606 32.806 47.0581 32.6704 46.8986C32.5347 46.7392 32.3467 46.6333 32.1401 46.6C31.3533 46.4634 30.6401 46.0534 30.126 45.4424C29.6119 44.8314 29.3301 44.0585 29.3301 43.26C29.3276 42.3592 29.0934 41.4741 28.65 40.69L25.08 34.5C24.9907 34.3437 24.933 34.1714 24.9102 33.9928C24.8875 33.8143 24.9002 33.6329 24.9475 33.4593C24.9949 33.2856 25.076 33.123 25.1863 32.9807C25.2965 32.8384 25.4337 32.7192 25.59 32.63C25.6648 32.5829 25.7455 32.5458 25.8301 32.52C26.1425 32.4284 26.4769 32.4469 26.7773 32.5726C27.0777 32.6982 27.3258 32.9232 27.48 33.21L30.34 38.15C30.398 38.2509 30.4754 38.3394 30.5678 38.4102C30.6602 38.481 30.7657 38.5328 30.8782 38.5626C30.9908 38.5923 31.1081 38.5995 31.2234 38.5836C31.3387 38.5677 31.4498 38.5291 31.5501 38.47C31.6843 38.3913 31.7956 38.2788 31.8728 38.1437C31.95 38.0086 31.9904 37.8556 31.99 37.7V25.2999C31.99 25.0639 32.0838 24.8376 32.2507 24.6706C32.4176 24.5037 32.644 24.41 32.88 24.41C33.1161 24.41 33.3425 24.5037 33.5094 24.6706C33.6763 24.8376 33.7701 25.0639 33.7701 25.2999V34.18C33.7933 34.3985 33.8966 34.6006 34.06 34.7476C34.2233 34.8945 34.4353 34.9758 34.6551 34.9758C34.8748 34.9758 35.0867 34.8945 35.2501 34.7476C35.4135 34.6006 35.5168 34.3985 35.54 34.18V30.63C35.54 30.3939 35.6338 30.1675 35.8007 30.0006C35.9676 29.8337 36.194 29.74 36.43 29.74C36.6661 29.74 36.8925 29.8337 37.0594 30.0006C37.2263 30.1675 37.32 30.3939 37.32 30.63V34.18C37.3433 34.3985 37.4466 34.6006 37.61 34.7476C37.7734 34.8945 37.9853 34.9758 38.2051 34.9758C38.4248 34.9758 38.6367 34.8945 38.8001 34.7476C38.9635 34.6006 39.0668 34.3985 39.09 34.18V30.63C39.09 30.3939 39.1838 30.1675 39.3507 30.0006C39.5176 29.8337 39.744 29.74 39.98 29.74C40.2161 29.74 40.4425 29.8337 40.6094 30.0006C40.7763 30.1675 40.87 30.3939 40.87 30.63V35.06C40.8568 35.1841 40.8699 35.3096 40.9083 35.4283C40.9468 35.5471 41.0098 35.6564 41.0933 35.7493C41.1767 35.8421 41.2788 35.9163 41.3928 35.9671C41.5068 36.0179 41.6302 36.0442 41.755 36.0442C41.8799 36.0442 42.0033 36.0179 42.1173 35.9671C42.2313 35.9163 42.3334 35.8421 42.4168 35.7493C42.5003 35.6564 42.5633 35.5471 42.6018 35.4283C42.6402 35.3096 42.6533 35.1841 42.6401 35.06V32.4C42.6401 32.1639 42.7338 31.9376 42.9007 31.7707C43.0676 31.6037 43.294 31.51 43.5301 31.51C43.7661 31.51 43.9925 31.6037 44.1594 31.7707C44.3263 31.9376 44.4201 32.1639 44.4201 32.4V38.61C44.4068 38.7341 44.4199 38.8596 44.4583 38.9784C44.4968 39.0971 44.5598 39.2064 44.6433 39.2992C44.7267 39.3921 44.8288 39.4663 44.9428 39.5171C45.0568 39.5679 45.1802 39.5942 45.305 39.5942C45.4299 39.5942 45.5533 39.5679 45.6673 39.5171C45.7813 39.4663 45.8834 39.3921 45.9669 39.2992C46.0503 39.2064 46.1133 39.0971 46.1518 38.9784C46.1902 38.8596 46.2033 38.7341 46.1901 38.61V35.97H48.85C50.0276 35.97 51.1569 35.5022 51.9896 34.6695C52.8223 33.8369 53.29 32.7075 53.29 31.53V4.88998C53.29 4.30738 53.1751 3.7305 52.9519 3.19238C52.7286 2.65425 52.4014 2.16542 51.989 1.75393C51.5766 1.34244 51.087 1.01634 50.5484 0.794305C50.0098 0.572265 49.4326 0.458639 48.85 0.459954V0.459954ZM32.7001 12.34C32.8225 12.4934 32.8894 12.6837 32.8901 12.88C32.9033 13.0041 32.8902 13.1296 32.8518 13.2483C32.8133 13.3671 32.7503 13.4765 32.6668 13.5693C32.5834 13.6621 32.4813 13.7363 32.3673 13.7871C32.2533 13.8379 32.1299 13.8642 32.005 13.8642C31.8802 13.8642 31.7568 13.8379 31.6428 13.7871C31.5288 13.7363 31.4267 13.6621 31.3433 13.5693C31.2598 13.4765 31.1968 13.3671 31.1583 13.2483C31.1199 13.1296 31.1068 13.0041 31.12 12.88C31.1154 12.8468 31.1154 12.8131 31.12 12.78L32.7001 12.34ZM32.0001 15.54C32.4426 15.5499 32.8805 15.4472 33.2724 15.2414C33.6643 15.0355 33.9974 14.7334 34.2404 14.3634C34.4835 13.9934 34.6284 13.5676 34.6615 13.1262C34.6947 12.6847 34.615 12.2421 34.43 11.84L35.79 11.45C36.0985 12.2789 36.7045 12.9634 37.49 13.37L36.2801 16.51C35.3887 16.3165 34.457 16.4776 33.6824 16.9592C32.9077 17.4408 32.351 18.205 32.13 19.09C31.1177 18.5307 30.257 17.7329 29.6227 16.7658C28.9884 15.7986 28.5996 14.6914 28.49 13.54L29.3901 13.28C29.4833 13.9064 29.7977 14.4788 30.2765 14.8933C30.7553 15.3079 31.3667 15.5373 32.0001 15.54V15.54ZM35.5501 18.2H35.62L34.96 19.94C34.5688 19.9034 34.181 19.8365 33.8001 19.74C33.8595 19.3182 34.0673 18.9315 34.3862 18.6493C34.7051 18.367 35.1142 18.2077 35.54 18.2H35.5501ZM38.13 11.69C37.8547 11.5117 37.6362 11.2584 37.5001 10.96L38.5001 10.67L38.13 11.69ZM32.8901 22.64C32.5462 22.6442 32.2065 22.7155 31.8901 22.85C30.1566 22.2121 28.6195 21.1332 27.4305 19.7197C26.2415 18.3062 25.4417 16.607 25.1101 14.79C25.0851 14.6666 25.0893 14.539 25.1223 14.4175C25.1553 14.296 25.2162 14.1838 25.3 14.09C25.3823 13.9892 25.486 13.9081 25.6037 13.8527C25.7214 13.7974 25.85 13.7691 25.98 13.77H26.7001C26.9122 15.8134 27.8248 17.7206 29.283 19.1678C30.7411 20.615 32.6551 21.5132 34.7001 21.71V22.47C34.6867 22.71 34.5873 22.9372 34.4201 23.11C33.9697 22.7937 33.4303 22.6291 32.88 22.64H32.8901Z" fill="#464A51"/>
<path d="M45.3001 28.8499C45.5361 28.8499 45.7625 28.7562 45.9294 28.5893C46.0963 28.4224 46.1901 28.196 46.1901 27.9599V4.88995C46.1901 4.77354 46.167 4.65826 46.1222 4.55084C46.0773 4.44341 46.0116 4.34597 45.9288 4.26413C45.846 4.18228 45.7479 4.11766 45.6399 4.07403C45.532 4.0304 45.4165 4.00862 45.3001 4.00994H4.4901C4.3737 4.00862 4.25818 4.0304 4.15026 4.07403C4.04234 4.11766 3.94414 4.18228 3.86137 4.26413C3.77859 4.34597 3.71287 4.44341 3.66802 4.55084C3.62317 4.65826 3.60009 4.77354 3.6001 4.88995V31.5099C3.6001 31.746 3.69386 31.9723 3.86077 32.1392C4.02768 32.3062 4.25405 32.3999 4.4901 32.3999H21.3501C21.5686 32.3767 21.7708 32.2734 21.9177 32.11C22.0646 31.9466 22.1459 31.7347 22.1459 31.5149C22.1459 31.2952 22.0646 31.0832 21.9177 30.9199C21.7708 30.7565 21.5686 30.6532 21.3501 30.6299H5.3501V5.77993H44.4001V27.9699C44.4001 28.0872 44.4235 28.2033 44.4689 28.3114C44.5144 28.4195 44.581 28.5174 44.6649 28.5994C44.7487 28.6813 44.8481 28.7458 44.9572 28.7888C45.0663 28.8318 45.1829 28.8526 45.3001 28.8499V28.8499Z" fill="#464A51"/>
<path d="M49.7001 21.75V12.88C49.7133 12.7559 49.7002 12.6303 49.6618 12.5116C49.6233 12.3928 49.5603 12.2835 49.4768 12.1907C49.3934 12.0979 49.2913 12.0236 49.1773 11.9728C49.0633 11.922 48.9399 11.8958 48.8151 11.8958C48.6902 11.8958 48.5668 11.922 48.4528 11.9728C48.3388 12.0236 48.2367 12.0979 48.1533 12.1907C48.0698 12.2835 48.0068 12.3928 47.9683 12.5116C47.9299 12.6303 47.9168 12.7559 47.93 12.88V21.75C47.9168 21.8741 47.9299 21.9996 47.9683 22.1183C48.0068 22.2371 48.0698 22.3465 48.1533 22.4393C48.2367 22.5321 48.3388 22.6063 48.4528 22.6571C48.5668 22.7079 48.6902 22.7342 48.8151 22.7342C48.9399 22.7342 49.0633 22.7079 49.1773 22.6571C49.2913 22.6063 49.3934 22.5321 49.4768 22.4393C49.5603 22.3465 49.6233 22.2371 49.6618 22.1183C49.7002 21.9996 49.7133 21.8741 49.7001 21.75V21.75Z" fill="#464A51"/>
<path d="M45.3 41.27C45.1836 41.27 45.0683 41.2931 44.9609 41.338C44.8535 41.3828 44.756 41.4485 44.6742 41.5313C44.5923 41.6141 44.5277 41.7123 44.4841 41.8202C44.4405 41.9281 44.4187 42.0436 44.42 42.16C44.4119 42.933 44.203 43.6907 43.8138 44.3586C43.4246 45.0265 42.8685 45.5818 42.2 45.97C42.0632 46.0466 41.9493 46.1584 41.8702 46.2938C41.7911 46.4292 41.7496 46.5832 41.75 46.74V51.97C41.75 52.2061 41.8438 52.4325 42.0107 52.5994C42.1776 52.7663 42.404 52.86 42.64 52.86C42.876 52.86 43.1024 52.7663 43.2693 52.5994C43.4362 52.4325 43.53 52.2061 43.53 51.97V47.3C44.3498 46.7278 45.0196 45.9665 45.4826 45.0804C45.9457 44.1944 46.1883 43.2098 46.19 42.21C46.1968 42.089 46.1788 41.9679 46.1372 41.8541C46.0955 41.7402 46.031 41.6361 45.9477 41.5481C45.8643 41.4601 45.7639 41.39 45.6525 41.3422C45.5412 41.2944 45.4212 41.2698 45.3 41.27V41.27Z" fill="#464A51"/>
<path d="M20.46 12.8799V9.32993C20.46 9.09388 20.3663 8.86753 20.1994 8.70062C20.0324 8.53372 19.8061 8.43994 19.57 8.43994H8.92003C8.68399 8.43994 8.45761 8.53372 8.2907 8.70062C8.1238 8.86753 8.03003 9.09388 8.03003 9.32993C8.03003 9.56597 8.1238 9.79235 8.2907 9.95926C8.45761 10.1262 8.68399 10.2199 8.92003 10.2199H18.7V11.9699H8.94003C8.70398 11.9699 8.47761 12.0637 8.3107 12.2306C8.14379 12.3975 8.05003 12.6239 8.05003 12.86C8.05003 13.096 8.14379 13.3224 8.3107 13.4893C8.47761 13.6562 8.70398 13.7499 8.94003 13.7499H19.59C19.8192 13.7448 20.0375 13.6515 20.1996 13.4895C20.3616 13.3274 20.4549 13.1091 20.46 12.8799V12.8799Z" fill="#464A51"/>
<path d="M16.91 16.43C16.91 16.194 16.8163 15.9676 16.6494 15.8007C16.4824 15.6338 16.2561 15.54 16.02 15.54H8.92003C8.80315 15.54 8.68742 15.5631 8.57944 15.6078C8.47146 15.6525 8.37335 15.7181 8.2907 15.8007C8.20806 15.8834 8.1425 15.9815 8.09777 16.0894C8.05304 16.1974 8.03003 16.3131 8.03003 16.43C8.03003 16.5469 8.05304 16.6627 8.09777 16.7706C8.1425 16.8786 8.20806 16.9767 8.2907 17.0594C8.37335 17.142 8.47146 17.2076 8.57944 17.2523C8.68742 17.297 8.80315 17.32 8.92003 17.32H16.02C16.2561 17.32 16.4824 17.2263 16.6494 17.0594C16.8163 16.8924 16.91 16.6661 16.91 16.43V16.43Z" fill="#464A51"/>
<path d="M20.4601 19.97C20.6961 19.97 20.9225 20.0637 21.0894 20.2307C21.2563 20.3976 21.3501 20.6239 21.3501 20.86C21.3733 21.0785 21.4766 21.2806 21.64 21.4276C21.8034 21.5745 22.0153 21.6558 22.2351 21.6558C22.4548 21.6558 22.6668 21.5745 22.8301 21.4276C22.9935 21.2806 23.0968 21.0785 23.1201 20.86C23.1216 20.311 22.952 19.7751 22.6347 19.327C22.3175 18.8789 21.8684 18.5409 21.3501 18.36V17.36C21.3501 17.1239 21.2563 16.8976 21.0894 16.7307C20.9225 16.5637 20.6961 16.47 20.4601 16.47C20.224 16.47 19.9976 16.5637 19.8307 16.7307C19.6638 16.8976 19.5701 17.1239 19.5701 17.36V18.36C18.9837 18.5731 18.4908 18.9855 18.1777 19.5251C17.8646 20.0648 17.7512 20.6973 17.8572 21.3122C17.9633 21.927 18.2821 22.485 18.7579 22.8885C19.2336 23.2921 19.8362 23.5156 20.4601 23.52C20.6365 23.52 20.809 23.5724 20.9555 23.6707C21.1021 23.7689 21.2162 23.9085 21.2832 24.0717C21.3503 24.235 21.3673 24.4144 21.3322 24.5873C21.297 24.7602 21.2112 24.9188 21.0858 25.0428C20.9603 25.1669 20.8008 25.2509 20.6275 25.2841C20.4542 25.3173 20.2749 25.2982 20.1125 25.2293C19.95 25.1604 19.8117 25.0448 19.7152 24.8971C19.6186 24.7495 19.5681 24.5764 19.5701 24.4C19.5468 24.1815 19.4435 23.9793 19.2801 23.8324C19.1168 23.6855 18.9048 23.6042 18.6851 23.6042C18.4653 23.6042 18.2534 23.6855 18.09 23.8324C17.9266 23.9793 17.8233 24.1815 17.8001 24.4C17.7985 24.949 17.9682 25.4848 18.2854 25.9329C18.6026 26.381 19.0517 26.719 19.5701 26.9V27.97C19.5701 28.206 19.6638 28.4324 19.8307 28.5993C19.9976 28.7662 20.224 28.86 20.4601 28.86C20.6961 28.86 20.9225 28.7662 21.0894 28.5993C21.2563 28.4324 21.3501 28.206 21.3501 27.97V26.92C21.9365 26.7069 22.4293 26.2945 22.7424 25.7548C23.0555 25.2152 23.169 24.5826 23.0629 23.9678C22.9569 23.3529 22.6381 22.795 22.1623 22.3914C21.6865 21.9878 21.084 21.7643 20.4601 21.76C20.3359 21.7732 20.2104 21.7601 20.0917 21.7217C19.9729 21.6832 19.8636 21.6202 19.7708 21.5368C19.678 21.4533 19.6037 21.3513 19.5529 21.2372C19.5021 21.1232 19.4759 20.9998 19.4759 20.875C19.4759 20.7501 19.5021 20.6267 19.5529 20.5127C19.6037 20.3987 19.678 20.2966 19.7708 20.2132C19.8636 20.1297 19.9729 20.0667 20.0917 20.0283C20.2104 19.9898 20.3359 19.9767 20.4601 19.99V19.97Z" fill="#464A51"/>
<path d="M13.3601 20.87C13.4769 20.87 13.5927 20.8469 13.7006 20.8022C13.8086 20.7575 13.9067 20.6919 13.9894 20.6093C14.072 20.5266 14.1376 20.4285 14.1823 20.3206C14.227 20.2126 14.2501 20.0969 14.2501 19.98C14.2501 19.8631 14.227 19.7474 14.1823 19.6394C14.1376 19.5314 14.072 19.4333 13.9894 19.3506C13.9067 19.268 13.8086 19.2024 13.7006 19.1577C13.5927 19.113 13.4769 19.09 13.3601 19.09H10.7001C10.464 19.09 10.2376 19.1837 10.0707 19.3506C9.90382 19.5176 9.81006 19.7439 9.81006 19.98C9.81006 20.216 9.90382 20.4424 10.0707 20.6093C10.2376 20.7762 10.464 20.87 10.7001 20.87H13.3601Z" fill="#464A51"/>
<path d="M15.13 22.64H8.92C8.79588 22.6268 8.67036 22.6398 8.55161 22.6783C8.43285 22.7167 8.32352 22.7798 8.23071 22.8632C8.13789 22.9467 8.06366 23.0487 8.01286 23.1627C7.96205 23.2768 7.93579 23.4002 7.93579 23.525C7.93579 23.6498 7.96205 23.7733 8.01286 23.8873C8.06366 24.0013 8.13789 24.1033 8.23071 24.1868C8.32352 24.2703 8.43285 24.3332 8.55161 24.3717C8.67036 24.4102 8.79588 24.4232 8.92 24.41H15.13C15.2541 24.4232 15.3796 24.4102 15.4984 24.3717C15.6171 24.3332 15.7265 24.2703 15.8193 24.1868C15.9121 24.1033 15.9863 24.0013 16.0371 23.8873C16.0879 23.7733 16.1142 23.6498 16.1142 23.525C16.1142 23.4002 16.0879 23.2768 16.0371 23.1627C15.9863 23.0487 15.9121 22.9467 15.8193 22.8632C15.7265 22.7798 15.6171 22.7167 15.4984 22.6783C15.3796 22.6398 15.2541 22.6268 15.13 22.64Z" fill="#464A51"/>
<path d="M15.13 26.1899H10.7C10.5759 26.1767 10.4504 26.1898 10.3316 26.2282C10.2129 26.2667 10.1036 26.3297 10.0107 26.4131C9.91792 26.4966 9.84369 26.5987 9.79288 26.7127C9.74208 26.8267 9.71582 26.9501 9.71582 27.0749C9.71582 27.1998 9.74208 27.3232 9.79288 27.4372C9.84369 27.5512 9.91792 27.6533 10.0107 27.7367C10.1036 27.8202 10.2129 27.8832 10.3316 27.9217C10.4504 27.9601 10.5759 27.9731 10.7 27.9599H15.13C15.2541 27.9731 15.3797 27.9601 15.4984 27.9217C15.6172 27.8832 15.7265 27.8202 15.8193 27.7367C15.9121 27.6533 15.9864 27.5512 16.0372 27.4372C16.088 27.3232 16.1142 27.1998 16.1142 27.0749C16.1142 26.9501 16.088 26.8267 16.0372 26.7127C15.9864 26.5987 15.9121 26.4966 15.8193 26.4131C15.7265 26.3297 15.6172 26.2667 15.4984 26.2282C15.3797 26.1898 15.2541 26.1767 15.13 26.1899V26.1899Z" fill="#464A51"/>
<path d="M41.7501 16.4399C42.2416 16.4399 42.6401 16.0414 42.6401 15.5499C42.6401 15.0584 42.2416 14.6599 41.7501 14.6599C41.2586 14.6599 40.8601 15.0584 40.8601 15.5499C40.8601 16.0414 41.2586 16.4399 41.7501 16.4399Z" fill="#464A51"/>
<path d="M39.9801 19.98C40.4716 19.98 40.8701 19.5815 40.8701 19.09C40.8701 18.5984 40.4716 18.2 39.9801 18.2C39.4886 18.2 39.0901 18.5984 39.0901 19.09C39.0901 19.5815 39.4886 19.98 39.9801 19.98Z" fill="#464A51"/>
<path d="M41.7501 22.65C42.2416 22.65 42.6401 22.2515 42.6401 21.76C42.6401 21.2685 42.2416 20.87 41.7501 20.87C41.2586 20.87 40.8601 21.2685 40.8601 21.76C40.8601 22.2515 41.2586 22.65 41.7501 22.65Z" fill="#464A51"/>
</svg>
