<svg width="52" height="54" viewBox="0 0 52 54" fill="none" xmlns="http://www.w3.org/2000/svg">
<path d="M42.5901 20.1001C45.7767 20.1001 48.36 17.5167 48.36 14.3301C48.36 11.1434 45.7767 8.56006 42.5901 8.56006C39.4034 8.56006 36.8201 11.1434 36.8201 14.3301C36.8201 17.5167 39.4034 20.1001 42.5901 20.1001Z" fill="#F29A8D"/>
<path d="M48.3601 14.3201C48.3618 15.4055 48.0574 16.4693 47.4818 17.3895C46.9061 18.3097 46.0827 19.0488 45.1059 19.5221C44.1291 19.9953 43.0387 20.1834 41.9598 20.0649C40.8809 19.9463 39.8573 19.5259 39.0066 18.8518C38.156 18.1777 37.5126 17.2774 37.1506 16.2542C36.7885 15.231 36.7224 14.1264 36.9598 13.0673C37.1972 12.0082 37.7285 11.0376 38.4927 10.2668C39.2569 9.49608 40.223 8.9565 41.2801 8.71008C41.3676 9.52248 41.6268 10.307 42.0403 11.0117C42.4539 11.7165 43.0124 12.3253 43.6789 12.798C44.3454 13.2707 45.1047 13.5965 45.9065 13.7537C46.7083 13.9109 47.5344 13.8961 48.3301 13.7101C48.3507 13.9128 48.3607 14.1164 48.3601 14.3201V14.3201Z" fill="#EB6652"/>
<path d="M40.37 5.89006C40.3734 5.43276 40.2579 4.98242 40.0349 4.58318C39.8118 4.18393 39.4889 3.84948 39.0978 3.61256C38.7066 3.37565 38.2606 3.24442 37.8035 3.23171C37.3463 3.21899 36.8938 3.32524 36.49 3.54006C36.1037 2.68509 35.3938 2.01842 34.5163 1.68654C33.6388 1.35466 32.6654 1.38469 31.81 1.77004C31.0252 2.12289 30.3984 2.75326 30.05 3.54006C29.5509 3.27487 28.9798 3.1769 28.4208 3.26054C27.8618 3.34419 27.3444 3.60504 26.9447 4.00472C26.545 4.40439 26.2842 4.92178 26.2005 5.48079C26.1169 6.03979 26.2148 6.6109 26.48 7.11006C25.939 7.35208 25.4679 7.72678 25.1103 8.19942C24.7527 8.67206 24.5203 9.22734 24.4345 9.81377C24.3487 10.4002 24.4124 10.9988 24.6197 11.554C24.8269 12.1093 25.171 12.6032 25.62 12.99C24.9119 13.6067 24.4777 14.4793 24.413 15.4161C24.3483 16.3528 24.6584 17.2769 25.275 17.9851C25.8917 18.6932 26.7643 19.1273 27.7011 19.192C28.6378 19.2567 29.5619 18.9467 30.27 18.33C30.4981 18.1373 30.6998 17.9154 30.87 17.6701C31.1706 18.2648 31.6841 18.7244 32.3083 18.9575C32.9325 19.1905 33.6217 19.1799 34.2384 18.9276C34.8551 18.6754 35.3542 18.2001 35.6361 17.5964C35.9181 16.9927 35.9624 16.3049 35.76 15.6701H35.93C36.4482 15.6819 36.9583 15.5409 37.3969 15.2647C37.8355 14.9886 38.1831 14.5894 38.3963 14.117C38.6096 13.6446 38.6791 13.12 38.5962 12.6084C38.5133 12.0967 38.2816 11.6209 37.93 11.24C38.2672 10.8731 38.4932 10.418 38.5818 9.92757C38.6703 9.43716 38.6177 8.9317 38.43 8.47005C38.9924 8.31369 39.4874 7.97603 39.8382 7.50951C40.189 7.04299 40.3759 6.47372 40.37 5.89006V5.89006Z" fill="#A0C52D"/>
<path d="M38.6001 12.9701C38.5975 13.6765 38.315 14.353 37.8146 14.8516C37.3141 15.3501 36.6365 15.6301 35.9301 15.6301H35.7601C35.8722 15.9169 35.9298 16.2221 35.9301 16.5301C35.9263 17.1319 35.7185 17.7146 35.3406 18.1831C34.9628 18.6516 34.4373 18.978 33.8499 19.1092C33.2625 19.2404 32.6481 19.1685 32.1068 18.9053C31.5656 18.6421 31.1296 18.2031 30.8701 17.6601C30.3397 18.4371 29.5223 18.9717 28.5977 19.1461C27.6732 19.3205 26.7172 19.1205 25.9401 18.5901C25.163 18.0596 24.6285 17.2422 24.4541 16.3177C24.2797 15.3931 24.4797 14.4371 25.0101 13.6601C25.1807 13.4031 25.386 13.1709 25.6201 12.9701C25.1708 12.584 24.8261 12.0907 24.6181 11.536C24.4102 10.9812 24.3456 10.383 24.4303 9.79663C24.5151 9.21029 24.7465 8.65483 25.103 8.1817C25.4596 7.70858 25.9298 7.33309 26.4701 7.09006C26.2062 6.58944 26.1095 6.01747 26.1941 5.45792C26.2788 4.89836 26.5403 4.38061 26.9405 3.98044C27.3407 3.58027 27.8584 3.31871 28.418 3.23407C28.9775 3.14943 29.5495 3.24616 30.0501 3.51007C30.3147 2.93175 30.729 2.43461 31.2501 2.07007C30.7477 2.78447 30.5289 3.6601 30.6361 4.52686C30.7433 5.39361 31.1688 6.18957 31.8301 6.76007C31.122 7.3767 30.6878 8.24935 30.6231 9.1861C30.5584 10.1228 30.8685 11.0469 31.4851 11.7551C32.1017 12.4632 32.9744 12.8974 33.9112 12.9621C34.8479 13.0268 35.772 12.7167 36.4801 12.1001C36.7081 11.9073 36.9099 11.6854 37.0801 11.4401C37.2289 11.7568 37.4389 12.041 37.6981 12.2761C37.9572 12.5112 38.2604 12.6927 38.5901 12.8101C38.5901 12.8601 38.5901 12.9201 38.5901 12.9701H38.6001Z" fill="#79B72F"/>
<path d="M26.11 18.84L16.89 24.1601L7.13001 7.26006C6.89684 6.85626 6.74552 6.4105 6.68466 5.9482C6.62381 5.48591 6.65461 5.01614 6.77533 4.56576C6.89605 4.11537 7.10433 3.69317 7.38825 3.32329C7.67216 2.95341 8.02616 2.6431 8.43003 2.41006C9.23626 1.94355 10.1265 1.64049 11.0499 1.51818C11.9733 1.39587 12.9118 1.4567 13.8117 1.69723C14.7116 1.93775 15.5552 2.35326 16.2945 2.91997C17.0337 3.48669 17.6541 4.1935 18.12 5.00005V5.00005L26.11 18.84Z" fill="#FBBB08"/>
<path d="M26.1101 18.8401L16.8901 24.1601L7.13009 7.2601C6.65836 6.44581 6.52925 5.4775 6.77114 4.56805C7.01304 3.6586 7.60615 2.88242 8.4201 2.4101V2.4101C8.61355 2.29158 8.81392 2.18472 9.02011 2.09009L11.5601 6.4801C12.4393 8.00889 13.8574 9.15452 15.5368 9.69275C17.2162 10.231 19.0361 10.1231 20.6401 9.39011L26.1101 18.8401Z" fill="#E3962E"/>
<path d="M34.16 17.4301L28.83 13.8801L23.51 17.4301L18.19 13.8801L12.86 17.4301L7.54004 13.8801V52.8801H39.48V13.8801L34.16 17.4301Z" fill="#E94D8C"/>
<path d="M39.48 43.1601V52.9701H7.54004V13.9701L12.86 17.5201L18.19 13.9701V21.9701C18.2165 27.5992 20.4712 32.9887 24.461 36.9598C28.4508 40.9308 33.8509 43.1602 39.48 43.1601V43.1601Z" fill="#D50264"/>
<path d="M39.4802 13.8801L44.8102 17.4301L50.1302 13.8801V52.8801H39.4802V13.8801Z" fill="#E94D8C"/>
<path d="M50.1301 13.8801V52.8801H44.8101V17.4301L50.1301 13.8801Z" fill="#D50264"/>
<path d="M44.8102 47.6001L39.4802 52.9701H50.1302L44.8102 47.6001Z" fill="#E94D8C"/>
<path d="M10.2001 29.9701V25.3801H4.88012V29.9701C4.8801 30.7671 4.72288 31.5563 4.41744 32.2924C4.112 33.0286 3.66434 33.6972 3.10012 34.2601C2.53622 34.8207 2.08937 35.4877 1.78551 36.2224C1.48165 36.9572 1.32686 37.745 1.33013 38.5401V52.9701H13.7501V38.5701C13.7521 37.7743 13.5957 36.9861 13.2901 36.2513C12.9845 35.5165 12.5358 34.8498 11.9701 34.2901C10.8306 33.1418 10.1939 31.5879 10.2001 29.9701Z" fill="#85D0F2"/>
<path d="M13.7501 41.48V52.97H1.33013V38.57C1.32686 37.7749 1.48165 36.9871 1.78551 36.2523C2.08937 35.5176 2.53622 34.8506 3.10012 34.29C3.66434 33.7271 4.112 33.0585 4.41744 32.3223C4.72288 31.5862 4.8801 30.797 4.88012 30V25.41H10.2001V27.2C9.48289 27.2384 8.80755 27.5499 8.31286 28.0706C7.81816 28.5914 7.54165 29.2818 7.54012 30C7.5401 30.797 7.38288 31.5862 7.07744 32.3223C6.772 33.0585 6.32435 33.7271 5.76012 34.29C4.62947 35.4279 3.99343 36.9659 3.99013 38.57C3.98764 40.6012 4.60998 42.5841 5.77276 44.2495C6.93553 45.915 8.58247 47.1825 10.4901 47.88C10.3181 47.2061 10.2208 46.5153 10.2001 45.82C10.2005 44.7982 10.5542 43.8079 11.2011 43.0169C11.8481 42.226 12.7486 41.683 13.7501 41.48V41.48Z" fill="#59B5E7"/>
<path d="M3.99023 21.8701H11.0902V25.4101H3.99023V21.8701Z" fill="#CFD7D9"/>
<path d="M1.33008 40.5H13.7501V46.71H1.33008V40.5Z" fill="#CFD7D9"/>
<path d="M6.89008 45.58C7.30595 45.9996 7.76139 46.378 8.25006 46.71H1.33008V40.5H4.18008C4.55556 42.4261 5.49947 44.1955 6.89008 45.58V45.58Z" fill="#939999"/>
<path d="M13.7502 41.4801V46.7101H10.2702C10.2266 46.4154 10.2032 46.118 10.2002 45.8201C10.2006 44.7982 10.5542 43.8079 11.2012 43.017C11.8482 42.226 12.7487 41.6831 13.7502 41.4801V41.4801Z" fill="#939999"/>
<path d="M11.0902 23.6401V25.4101H3.99023V21.8701H6.24023C6.55207 22.4082 6.99979 22.855 7.53857 23.1656C8.07736 23.4762 8.68829 23.6399 9.31021 23.6401H11.0902Z" fill="#939999"/>
<path d="M21.7002 40.5C20.734 40.4999 19.7951 40.8199 19.0302 41.41C18.1001 40.6991 16.9261 40.3862 15.7656 40.54C14.6051 40.6937 13.5531 41.3015 12.8402 42.23C12.2497 43.0101 11.9302 43.9617 11.9302 44.94C11.9302 47.39 13.9302 52.94 16.3702 52.94C17.3331 52.9394 18.2686 52.6194 19.0302 52.03C19.7912 52.6309 20.7305 52.9616 21.7002 52.97C24.1502 52.97 26.1302 47.44 26.1302 44.97C26.1354 44.3849 26.0248 43.8045 25.8045 43.2624C25.5842 42.7203 25.2588 42.2272 24.8469 41.8116C24.435 41.396 23.9449 41.0661 23.4048 40.841C22.8647 40.6159 22.2853 40.5 21.7002 40.5Z" fill="#F29A8D"/>
<path d="M25.4602 48.4201C24.6602 50.6901 23.3002 52.9201 21.7402 52.9201C20.776 52.9186 19.8386 52.6026 19.0702 52.0201C18.3057 52.6025 17.3714 52.9187 16.4102 52.9201C13.9602 52.9201 11.9702 47.3901 11.9702 44.9201C11.9725 43.8873 12.334 42.8875 12.9926 42.0921C13.6512 41.2966 14.5661 40.755 15.5802 40.5601C15.8169 42.7338 16.8481 44.7436 18.476 46.2035C20.1038 47.6634 22.2136 48.4706 24.4002 48.4701C24.7543 48.4783 25.1085 48.4616 25.4602 48.4201V48.4201Z" fill="#EB6652"/>
<path d="M21.7 37.84H19.03C19.03 37.3738 19.1219 36.9122 19.3003 36.4815C19.4787 36.0508 19.7402 35.6595 20.0698 35.3298C20.3995 35.0002 20.7908 34.7387 21.2215 34.5603C21.6522 34.3819 22.1139 34.29 22.58 34.29H25.2401C25.2414 34.7558 25.1508 35.2171 24.9734 35.6478C24.7961 36.0784 24.5356 36.4699 24.2068 36.7997C23.8779 37.1294 23.4872 37.3911 23.0571 37.5696C22.6269 37.7481 22.1658 37.84 21.7 37.84Z" fill="#A0C52D"/>
<path d="M24.8101 36.0601C24.652 36.3271 24.4641 36.5753 24.2501 36.8001C23.5762 37.4485 22.6753 37.8074 21.7401 37.8001H19.0701C19.066 36.8655 19.4244 35.9658 20.0701 35.2901C20.1882 35.1668 20.3189 35.0561 20.4601 34.9601C20.7053 35.2909 21.025 35.5594 21.3934 35.7435C21.7617 35.9277 22.1683 36.0224 22.5801 36.0201L24.8101 36.0601Z" fill="#79B72F"/>
<path d="M50.13 44.9701C50.366 44.9701 50.5924 44.8763 50.7593 44.7094C50.9262 44.5425 51.02 44.3161 51.02 44.0801V13.8801C51.02 13.644 50.9262 13.4177 50.7593 13.2507C50.5924 13.0838 50.366 12.9901 50.13 12.9901C49.9552 12.9891 49.7843 13.0415 49.64 13.1401L49.18 13.4501C48.9881 12.0154 48.3353 10.6818 47.32 9.65007C47.5329 9.5848 47.7501 9.53468 47.97 9.50007L48.47 9.43007C48.7021 9.39824 48.912 9.27554 49.0536 9.08894C49.1952 8.90234 49.2568 8.66713 49.225 8.43507C49.1932 8.20301 49.0705 7.9931 48.8839 7.85151C48.6973 7.70992 48.4621 7.64824 48.23 7.68007V7.68007L47.73 7.74006C47.001 7.84592 46.2947 8.07236 45.64 8.41008C44.8625 8.00384 44.0111 7.75819 43.1367 7.68776C42.2622 7.61732 41.3826 7.72353 40.55 8.00007C40.9477 7.47459 41.1903 6.84829 41.2504 6.19206C41.3105 5.53583 41.1858 4.87587 40.8902 4.28688C40.5947 3.69788 40.1402 3.20335 39.5781 2.8593C39.0161 2.51524 38.369 2.33538 37.71 2.34007C37.4338 2.34252 37.1587 2.37607 36.89 2.44008C36.5549 1.96211 36.1285 1.5551 35.6356 1.24244C35.1426 0.929784 34.5927 0.717641 34.0175 0.618207C33.4422 0.518772 32.853 0.534005 32.2837 0.663037C31.7144 0.792069 31.1762 1.03235 30.7 1.37007C30.2859 1.66422 29.9242 2.02594 29.63 2.44008C29.3578 2.37671 29.0795 2.34318 28.8 2.34007C27.8585 2.34007 26.9555 2.71408 26.2898 3.37983C25.624 4.04559 25.25 4.94857 25.25 5.89009C25.2515 6.17029 25.2885 6.44916 25.36 6.72007C24.8865 7.05155 24.4829 7.47307 24.1723 7.96058C23.8617 8.44809 23.6502 8.99202 23.5499 9.56129C23.4496 10.1306 23.4625 10.714 23.5877 11.2783C23.713 11.8426 23.9482 12.3767 24.28 12.8501L24.38 12.9901C24.2551 13.1625 24.1416 13.3429 24.04 13.5301L19.75 6.10008L18.87 4.56007C17.8079 2.72892 16.0632 1.39343 14.0183 0.846112C11.9733 0.298797 9.79485 0.584304 7.96002 1.64009V1.64009C6.94249 2.22971 6.20044 3.19891 5.89672 4.33503C5.59301 5.47115 5.75245 6.68138 6.34002 7.70009L7.34002 9.46006C7.46275 9.65471 7.65608 9.79427 7.87948 9.84944C8.10288 9.90461 8.33894 9.8711 8.53817 9.75596C8.7374 9.64082 8.88432 9.45299 8.94805 9.23188C9.01179 9.01078 8.98738 8.7736 8.88 8.57008L7.88 6.81007C7.70566 6.50647 7.59321 6.17133 7.54913 5.82402C7.50505 5.47671 7.53024 5.12413 7.62323 4.7866C7.71621 4.44908 7.87513 4.1333 8.09085 3.85756C8.30656 3.58181 8.57478 3.35155 8.88 3.18007C10.3069 2.35811 12.0019 2.13656 13.5921 2.56413C15.1824 2.9917 16.5377 4.03336 17.36 5.46006V5.46006L17.81 6.23008L14.7 7.97007C14.5054 8.0928 14.3658 8.28614 14.3106 8.50953C14.2555 8.73293 14.289 8.96903 14.4041 9.16826C14.5192 9.36749 14.7071 9.51438 14.9282 9.57811C15.1493 9.64184 15.3865 9.61746 15.59 9.51008L18.67 7.73008L20 10.0401L16.92 11.8201C16.768 11.9116 16.6468 12.0464 16.572 12.2072C16.4972 12.3681 16.4721 12.5476 16.5001 12.7228C16.528 12.898 16.6077 13.0608 16.7288 13.1904C16.85 13.32 17.0071 13.4104 17.18 13.4501L13.24 16.0801L10.51 11.3601C10.38 11.1829 10.1891 11.06 9.97399 11.0151C9.75887 10.9703 9.53477 11.0066 9.34481 11.1171C9.15486 11.2276 9.01248 11.4044 8.94512 11.6136C8.87777 11.8228 8.89021 12.0495 8.98001 12.2501L10.4 14.7101L8.01001 13.1201C7.81355 12.9908 7.57391 12.9445 7.34344 12.9913C7.11297 13.0382 6.91038 13.1743 6.77999 13.3701C6.68018 13.5138 6.62774 13.6851 6.63 13.8601V18.3001C6.63 18.5361 6.72377 18.7625 6.89068 18.9294C7.05759 19.0963 7.28397 19.1901 7.52002 19.1901C7.75606 19.1901 7.98241 19.0963 8.14932 18.9294C8.31623 18.7625 8.41 18.5361 8.41 18.3001V15.5201L12.35 18.1501C12.497 18.2516 12.6714 18.3059 12.85 18.3059C13.0286 18.3059 13.203 18.2516 13.35 18.1501L18.19 14.9201L23.02 18.1401C23.167 18.2416 23.3414 18.2959 23.52 18.2959C23.6986 18.2959 23.873 18.2416 24.02 18.1401L28.85 14.9201L33.69 18.1401C33.837 18.2416 34.0114 18.2959 34.19 18.2959C34.3686 18.2959 34.543 18.2416 34.69 18.1401L38.64 15.5201V52.0201H27.06C26.9359 52.0068 26.8104 52.0199 26.6916 52.0584C26.5729 52.0968 26.4635 52.1598 26.3707 52.2433C26.2779 52.3267 26.2037 52.4288 26.1529 52.5428C26.1021 52.6568 26.0758 52.7802 26.0758 52.9051C26.0758 53.0299 26.1021 53.1533 26.1529 53.2673C26.2037 53.3814 26.2779 53.4834 26.3707 53.5669C26.4635 53.6503 26.5729 53.7133 26.6916 53.7518C26.8104 53.7902 26.9359 53.8033 27.06 53.7901H50.13C50.366 53.7901 50.5924 53.6963 50.7593 53.5294C50.9262 53.3625 51.02 53.1361 51.02 52.9001V47.5801C51.02 47.344 50.9262 47.1177 50.7593 46.9508C50.5924 46.7838 50.366 46.6901 50.13 46.6901C49.894 46.6901 49.6676 46.7838 49.5007 46.9508C49.3338 47.1177 49.24 47.344 49.24 47.5801V50.7601L45.7 47.2301V42.2301C45.6767 42.0116 45.5735 41.8094 45.4101 41.6625C45.2467 41.5156 45.0347 41.4343 44.815 41.4343C44.5953 41.4343 44.3833 41.5156 44.2199 41.6625C44.0565 41.8094 43.9533 42.0116 43.93 42.2301V47.2301L40.38 50.7801V15.5401L43.93 17.9001V28.9701C43.9168 29.0942 43.9298 29.2197 43.9683 29.3385C44.0067 29.4572 44.0698 29.5666 44.1532 29.6594C44.2367 29.7522 44.3387 29.8264 44.4528 29.8772C44.5668 29.928 44.6902 29.9543 44.815 29.9543C44.9398 29.9543 45.0633 29.928 45.1773 29.8772C45.2913 29.8264 45.3933 29.7522 45.4768 29.6594C45.5603 29.5666 45.6233 29.4572 45.6617 29.3385C45.7002 29.2197 45.7132 29.0942 45.7 28.9701V17.9001L49.25 15.5401V44.0501C49.25 44.2861 49.3438 44.5125 49.5107 44.6794C49.6776 44.8463 49.904 44.9401 50.14 44.9401L50.13 44.9701ZM44 9.68007C43.681 10.0188 43.3993 10.391 43.16 10.7901C43.083 10.8883 43.0276 11.0015 42.9972 11.1225C42.9669 11.2435 42.9623 11.3695 42.9838 11.4924C43.0053 11.6153 43.0523 11.7323 43.1219 11.8358C43.1916 11.9393 43.2822 12.027 43.3879 12.0933C43.4936 12.1595 43.612 12.2028 43.7355 12.2203C43.859 12.2378 43.9848 12.2292 44.1048 12.1949C44.2247 12.1607 44.3362 12.1016 44.4318 12.0215C44.5275 11.9414 44.6052 11.8421 44.66 11.7301V11.7301C44.9258 11.2958 45.264 10.9102 45.66 10.5901C46.2248 11.0472 46.6805 11.6247 46.9936 12.2804C47.3068 12.9361 47.4695 13.6534 47.47 14.3801C47.47 14.4801 47.47 14.5701 47.47 14.6601L44.83 16.4201L40 13.2001C39.8521 13.1012 39.6779 13.049 39.5 13.0501C39.4987 12.4281 39.3332 11.8175 39.02 11.2801C39.09 11.1501 39.16 11.0201 39.22 10.8801C39.8424 10.2738 40.616 9.84541 41.4602 9.63963C42.3044 9.43385 43.1884 9.45818 44.02 9.71006L44 9.68007ZM18.7 13.1401C18.6236 13.0894 18.539 13.0521 18.45 13.0301L20.92 11.6001L23.63 16.2901L23.53 16.3601L18.7 13.1401ZM34.18 16.3601L30.57 13.9601C31.5965 12.0732 33.2476 10.6025 35.24 9.80006C35.3549 9.76155 35.4607 9.70001 35.5509 9.61918C35.6412 9.53835 35.7139 9.43995 35.7648 9.33C35.8157 9.22005 35.8436 9.10089 35.8468 8.97978C35.85 8.85867 35.8285 8.73817 35.7835 8.62568C35.7385 8.5132 35.671 8.41109 35.5851 8.3256C35.4993 8.24012 35.3969 8.17305 35.2842 8.12852C35.1716 8.08399 35.051 8.06293 34.9299 8.06663C34.8088 8.07034 34.6897 8.09873 34.58 8.15007C33.5599 8.55876 32.6088 9.12203 31.76 9.82008C31.8406 8.72929 31.7495 7.63261 31.49 6.57008C31.4331 6.34219 31.2893 6.14561 31.0894 6.02229C30.8894 5.89897 30.6492 5.8587 30.42 5.91008C30.3067 5.93702 30.1999 5.98617 30.1057 6.0547C30.0116 6.12323 29.932 6.20978 29.8715 6.30931C29.8111 6.40884 29.771 6.51936 29.7535 6.6345C29.7361 6.74964 29.7417 6.86712 29.77 6.98008C30.2731 9.00076 30.0169 11.1358 29.05 12.9801C28.8131 12.9297 28.566 12.9727 28.36 13.1001L25.36 15.1001C25.4778 14.5239 25.7838 14.0032 26.23 13.6201C26.3173 13.543 26.3884 13.4493 26.4392 13.3446C26.4901 13.2398 26.5196 13.126 26.5261 13.0097C26.5326 12.8934 26.516 12.777 26.4772 12.6672C26.4384 12.5574 26.3781 12.4564 26.3 12.3701L26.23 12.2901C25.9389 12.0444 25.7049 11.7381 25.5443 11.3927C25.3837 11.0473 25.3003 10.671 25.3 10.2901C25.3049 9.77926 25.4552 9.28038 25.7332 8.85182C26.0112 8.42326 26.4056 8.08274 26.87 7.87007C26.9752 7.82163 27.0698 7.7529 27.1483 7.66783C27.2269 7.58276 27.2879 7.48303 27.3279 7.37434C27.3678 7.26565 27.3859 7.15014 27.3811 7.03444C27.3763 6.91873 27.3488 6.80511 27.3 6.70009V6.70009C27.162 6.45245 27.0897 6.17359 27.09 5.89009C27.0953 5.41974 27.2865 4.97057 27.6219 4.64079C27.9573 4.31101 28.4096 4.12741 28.88 4.13008C29.1542 4.13375 29.4241 4.19867 29.67 4.32008C29.7735 4.37529 29.8869 4.40925 30.0037 4.41999C30.1205 4.43074 30.2382 4.41804 30.35 4.38264C30.4618 4.34724 30.5654 4.28985 30.6547 4.21385C30.744 4.13785 30.8172 4.04477 30.87 3.94008C31.0818 3.47601 31.4225 3.08262 31.8515 2.80677C32.2806 2.53093 32.7799 2.38426 33.29 2.38426C33.8001 2.38426 34.2994 2.53093 34.7285 2.80677C35.1576 3.08262 35.4983 3.47601 35.71 3.94008C35.7581 4.05042 35.8281 4.14984 35.9158 4.23234C36.0035 4.31485 36.1069 4.37873 36.22 4.42009C36.4523 4.49131 36.7032 4.46981 36.92 4.36009C37.3314 4.1751 37.7978 4.15412 38.2241 4.30146C38.6505 4.44881 39.0044 4.75334 39.2138 5.15287C39.4231 5.55241 39.472 6.01678 39.3505 6.45115C39.229 6.88553 38.9462 7.25713 38.56 7.49006C38.4411 7.5503 38.3173 7.60049 38.19 7.64009C37.9641 7.70113 37.7713 7.84869 37.6534 8.05082C37.5355 8.25296 37.5019 8.49338 37.56 8.72007C37.5544 8.75317 37.5544 8.78698 37.56 8.82008C37.6424 9.03054 37.6865 9.25408 37.69 9.48008C37.6896 9.91898 37.5215 10.3411 37.22 10.6601C37.0752 10.8244 36.9953 11.036 36.9953 11.2551C36.9953 11.4742 37.0752 11.6857 37.22 11.8501C37.4619 12.1004 37.6246 12.4165 37.6878 12.7588C37.751 13.1012 37.7119 13.4545 37.5753 13.7747C37.4386 14.0949 37.2106 14.3677 36.9198 14.559C36.6289 14.7502 36.2881 14.8515 35.94 14.8501H35.8C35.5671 14.8363 35.3381 14.9145 35.1623 15.0679C34.9865 15.2212 34.878 15.4375 34.86 15.6701C34.8497 15.7665 34.8497 15.8637 34.86 15.9601L34.18 16.3601ZM44.83 48.8501L48.01 52.0401H41.64L44.83 48.8501Z" fill="#464A51"/>
<path d="M44.8102 33.4C44.5741 33.4 44.3478 33.4938 44.1808 33.6607C44.0139 33.8276 43.9202 34.054 43.9202 34.29V37.84C43.9434 38.0585 44.0467 38.2607 44.2101 38.4076C44.3735 38.5545 44.5854 38.6358 44.8052 38.6358C45.0249 38.6358 45.2368 38.5545 45.4002 38.4076C45.5636 38.2607 45.6669 38.0585 45.6902 37.84V34.29C45.6915 34.1736 45.6697 34.0581 45.6261 33.9502C45.5824 33.8423 45.5178 33.7441 45.436 33.6613C45.3541 33.5785 45.2567 33.5128 45.1493 33.468C45.0418 33.4231 44.9266 33.4 44.8102 33.4Z" fill="#464A51"/>
<path d="M26.2201 44.4601C26.1037 44.4505 25.9865 44.4643 25.8754 44.5005C25.7644 44.5367 25.6616 44.5947 25.5732 44.671C25.4848 44.7473 25.4125 44.8405 25.3604 44.9451C25.3084 45.0496 25.2777 45.1635 25.2701 45.2801V45.2801C25.0701 48.0101 23.1701 52.0401 21.7401 52.0401C20.9696 52.0351 20.2217 51.7788 19.6101 51.3101C19.4559 51.1941 19.2681 51.1313 19.0751 51.1313C18.8821 51.1313 18.6943 51.1941 18.5401 51.3101C17.9278 51.7775 17.1804 52.0336 16.4101 52.0401C14.8101 52.0401 12.8601 47.2801 12.8601 44.9401C12.8582 44.2801 13.0409 43.6327 13.3874 43.0711C13.734 42.5094 14.2307 42.0558 14.8214 41.7615C15.4121 41.4672 16.0733 41.3439 16.7304 41.4055C17.3876 41.4671 18.0143 41.7111 18.5401 42.1101C18.6943 42.2261 18.8821 42.2888 19.0751 42.2888C19.2681 42.2888 19.4559 42.2261 19.6101 42.1101C20.3183 41.585 21.1961 41.3414 22.0736 41.4264C22.9511 41.5113 23.7658 41.9189 24.3601 42.5701C24.5283 42.735 24.7545 42.8274 24.9901 42.8274C25.2257 42.8274 25.4519 42.735 25.6201 42.5701C25.77 42.4154 25.8587 42.2115 25.8697 41.9964C25.8808 41.7812 25.8134 41.5693 25.6801 41.4001C25.1849 40.8436 24.5783 40.3976 23.8995 40.0909C23.2207 39.7843 22.4849 39.6238 21.7401 39.6201C21.0995 39.6192 20.4646 39.7414 19.8701 39.9801C19.8036 39.5542 19.6964 39.1356 19.5501 38.7301H21.7001C22.875 38.7301 24.0018 38.2634 24.8326 37.4326C25.6633 36.6018 26.1301 35.475 26.1301 34.3001C26.1301 34.064 26.0363 33.8377 25.8694 33.6708C25.7025 33.5039 25.4761 33.4101 25.2401 33.4101H22.5801C21.6129 33.4139 20.6735 33.7334 19.9046 34.3201C19.1357 34.9067 18.5793 35.7283 18.3201 36.6601C17.9003 36.1485 17.4085 35.7004 16.8601 35.3301C16.6638 35.1975 16.4229 35.1483 16.1904 35.1933C15.9578 35.2383 15.7527 35.3738 15.6201 35.5701C15.4875 35.7664 15.4382 36.0073 15.4833 36.2398C15.5283 36.4724 15.6638 36.6775 15.8601 36.8101C16.937 37.5319 17.6987 38.6368 17.9901 39.9001C17.178 39.6169 16.3066 39.5481 15.4601 39.7001V38.5701C15.4686 37.66 15.2961 36.7573 14.9528 35.9144C14.6095 35.0715 14.1021 34.3052 13.4601 33.6601C12.9785 33.18 12.5963 32.6096 12.3355 31.9815C12.0746 31.3535 11.9403 30.6801 11.9401 30.0001V26.3001C12.1761 26.3001 12.4025 26.2063 12.5694 26.0394C12.7363 25.8725 12.8301 25.6461 12.8301 25.4101V21.8701C12.8301 21.634 12.7363 21.4077 12.5694 21.2408C12.4025 21.0738 12.1761 20.9801 11.9401 20.9801H3.94008C3.70403 20.9801 3.47768 21.0738 3.31077 21.2408C3.14387 21.4077 3.05009 21.634 3.05009 21.8701V25.4101C3.05009 25.6461 3.14387 25.8725 3.31077 26.0394C3.47768 26.2063 3.70403 26.3001 3.94008 26.3001V29.9701C3.94208 30.6505 3.80873 31.3244 3.54777 31.9528C3.28682 32.5811 2.9035 33.1513 2.42009 33.6301C1.7799 34.2766 1.27368 35.0431 0.930463 35.8857C0.58725 36.7282 0.413802 37.6303 0.420087 38.5401V52.9701C0.420087 53.2061 0.513861 53.4325 0.680768 53.5994C0.847675 53.7663 1.07403 53.8601 1.31007 53.8601H11.0701C11.2886 53.8368 11.4908 53.7336 11.6377 53.5702C11.7846 53.4068 11.8659 53.1948 11.8659 52.9751C11.8659 52.7554 11.7846 52.5434 11.6377 52.38C11.4908 52.2166 11.2886 52.1133 11.0701 52.0901H2.19008V47.6501H11.4901C12.2501 50.4801 13.9901 53.8601 16.3901 53.8601C17.3265 53.8622 18.2459 53.6098 19.0501 53.1301C19.8584 53.6088 20.7807 53.861 21.7201 53.8601C24.7201 53.8601 26.8101 48.3101 27.0201 45.4601C27.0296 45.3437 27.0159 45.2265 26.9797 45.1154C26.9435 45.0044 26.8855 44.9017 26.8092 44.8132C26.7329 44.7248 26.6397 44.6525 26.5351 44.6004C26.4305 44.5484 26.3167 44.5177 26.2001 44.5101L26.2201 44.4601ZM22.6201 35.1801H24.2501C24.0659 35.7078 23.7207 36.1645 23.2632 36.4856C22.8057 36.8067 22.259 36.9762 21.7001 36.9701H20.0701C20.253 36.4415 20.5978 35.984 21.0556 35.6627C21.5134 35.3413 22.0608 35.1725 22.6201 35.1801V35.1801ZM4.88008 22.7501H11.0901V24.5301H4.88008V22.7501ZM2.2101 45.8201V41.3901H10.2101C10.4461 41.3901 10.6725 41.2963 10.8394 41.1294C11.0063 40.9625 11.1001 40.7361 11.1001 40.5001C11.1001 40.264 11.0063 40.0377 10.8394 39.8708C10.6725 39.7039 10.4461 39.6101 10.2101 39.6101H2.2101V38.6101C2.20515 37.935 2.33429 37.2655 2.59007 36.6407C2.84585 36.0158 3.22315 35.448 3.70009 34.9701C4.34328 34.3238 4.85137 33.5559 5.19475 32.7112C5.53812 31.8665 5.70991 30.9619 5.70009 30.0501V26.3501H10.1401V29.9701C10.1325 30.8816 10.3053 31.7855 10.6485 32.6299C10.9918 33.4743 11.4987 34.2425 12.1401 34.8901C12.6236 35.3667 13.0072 35.935 13.2682 36.5618C13.5292 37.1886 13.6624 37.8612 13.6601 38.5401V40.3001C12.8509 40.7672 12.1791 41.4393 11.7121 42.2485C11.2452 43.0578 10.9996 43.9758 11.0001 44.9101C11.0002 45.2044 11.0202 45.4985 11.0601 45.7901L2.2101 45.8201Z" fill="#464A51"/>
<path d="M34.16 22.75H26.16C25.924 22.75 25.6976 22.8438 25.5307 23.0107C25.3638 23.1776 25.27 23.404 25.27 23.64C25.27 23.8761 25.3638 24.1024 25.5307 24.2693C25.6976 24.4362 25.924 24.53 26.16 24.53H34.16C34.396 24.53 34.6224 24.4362 34.7893 24.2693C34.9562 24.1024 35.05 23.8761 35.05 23.64C35.05 23.404 34.9562 23.1776 34.7893 23.0107C34.6224 22.8438 34.396 22.75 34.16 22.75V22.75Z" fill="#464A51"/>
<path d="M34.16 27.1901H28.83C28.6115 27.2133 28.4093 27.3166 28.2624 27.48C28.1155 27.6434 28.0342 27.8553 28.0342 28.0751C28.0342 28.2948 28.1155 28.5067 28.2624 28.6701C28.4093 28.8335 28.6115 28.9368 28.83 28.96H34.16C34.2841 28.9733 34.4096 28.9602 34.5284 28.9218C34.6471 28.8833 34.7565 28.8203 34.8493 28.7368C34.9421 28.6534 35.0163 28.5513 35.0671 28.4373C35.1179 28.3233 35.1442 28.1999 35.1442 28.0751C35.1442 27.9502 35.1179 27.8268 35.0671 27.7128C35.0163 27.5988 34.9421 27.4967 34.8493 27.4133C34.7565 27.3298 34.6471 27.2668 34.5284 27.2284C34.4096 27.1899 34.2841 27.1768 34.16 27.1901V27.1901Z" fill="#464A51"/>
</svg>
