<svg width="54" height="50" viewBox="0 0 54 50" fill="none" xmlns="http://www.w3.org/2000/svg">
<path d="M33.8301 31.11H19.6201C18.6425 31.11 17.8501 31.9024 17.8501 32.88V47.09C17.8501 48.0675 18.6425 48.86 19.6201 48.86H33.8301C34.8076 48.86 35.6001 48.0675 35.6001 47.09V32.88C35.6001 31.9024 34.8076 31.11 33.8301 31.11Z" fill="#E94D8C"/>
<path d="M35.6001 44.42V47.08C35.5975 47.5503 35.4088 48.0005 35.0752 48.3322C34.7417 48.6638 34.2905 48.85 33.8201 48.85H19.6201C19.1507 48.85 18.7005 48.6635 18.3685 48.3315C18.0366 47.9996 17.8501 47.5494 17.8501 47.08V32.88C17.8501 32.4105 18.0366 31.9603 18.3685 31.6284C18.7005 31.2964 19.1507 31.11 19.6201 31.11H23.1701V33.77C23.1701 36.5945 24.2922 39.3034 26.2894 41.3007C28.2867 43.2979 30.9955 44.42 33.8201 44.42H35.6001Z" fill="#D50264"/>
<path d="M49.79 14.2499H42.61C40.3703 14.2477 38.2018 13.4624 36.48 12.0299C34.7647 10.593 32.5977 9.8069 30.36 9.80995H23.0901C20.8494 9.80712 18.6793 10.593 16.9601 12.0299C15.2396 13.458 13.0759 14.2428 10.8401 14.2499H3.70004C3.35073 14.2499 3.00482 14.3188 2.6821 14.4524C2.35937 14.5861 2.06616 14.782 1.81915 15.029C1.57215 15.276 1.3762 15.5693 1.24252 15.892C1.10885 16.2147 1.04004 16.5606 1.04004 16.91C1.04004 17.2593 1.10885 17.6052 1.24252 17.9279C1.3762 18.2506 1.57215 18.5438 1.81915 18.7908C2.06616 19.0378 2.35937 19.2338 2.6821 19.3675C3.00482 19.5011 3.35073 19.57 3.70004 19.57H10.89C13.1268 19.572 15.2922 20.3575 17.01 21.79C18.7318 23.2224 20.9003 24.0077 23.14 24.01H30.41C32.6468 24.0079 34.8121 23.2224 36.53 21.79C38.2493 20.353 40.4194 19.5671 42.66 19.57H49.8401C50.1894 19.57 50.5352 19.5011 50.858 19.3675C51.1807 19.2338 51.4739 19.0378 51.7209 18.7908C51.968 18.5438 52.1639 18.2506 52.2976 17.9279C52.4313 17.6052 52.5 17.2593 52.5 16.91C52.5 16.5606 52.4313 16.2147 52.2976 15.892C52.1639 15.5693 51.968 15.276 51.7209 15.029C51.4739 14.782 51.1807 14.5861 50.858 14.4524C50.5352 14.3188 50.1894 14.2499 49.8401 14.2499H49.79Z" fill="#E7F0F1"/>
<path d="M46.24 14.25H42.7V6.24997C42.7 5.78054 42.8864 5.33032 43.2184 4.99838C43.5503 4.66644 44.0005 4.47998 44.4699 4.47998C44.9394 4.47998 45.3896 4.66644 45.7215 4.99838C46.0535 5.33032 46.24 5.78054 46.24 6.24997V14.25Z" fill="#CFD7D9"/>
<path d="M52.4601 16.9099C52.4574 17.6163 52.1749 18.2929 51.6745 18.7914C51.1741 19.29 50.4964 19.5699 49.79 19.5699H42.6201C41.5052 19.5682 40.3986 19.7611 39.35 20.1399C38.3028 20.5146 37.3308 21.0734 36.48 21.7899C34.7582 23.2223 32.5898 24.0077 30.35 24.0099H23.0901C21.979 24.0059 20.8766 23.8132 19.83 23.4399C18.7845 23.0614 17.8133 22.503 16.9601 21.7899C15.2408 20.353 13.0707 19.5671 10.83 19.5699H3.70004C2.99457 19.5699 2.318 19.2896 1.81915 18.7908C1.32031 18.292 1.04004 17.6154 1.04004 16.9099C1.04004 16.2044 1.32031 15.5278 1.81915 15.029C2.318 14.5301 2.99457 14.2499 3.70004 14.2499H10.88C11.9944 14.2459 13.1 14.0531 14.1501 13.6799C15.1914 13.299 16.159 12.7408 17.01 12.0299V13.9699C17.0127 15.9387 17.7967 17.826 19.1898 19.2173C20.5829 20.6085 22.4712 21.3899 24.44 21.3899H30.44C32.6796 21.3964 34.8499 20.614 36.57 19.1799C37.4183 18.4598 38.3909 17.9006 39.44 17.5299C40.4886 17.1511 41.5952 16.9582 42.7101 16.9599H49.88C50.348 16.961 50.8081 16.8387 51.2137 16.6051C51.6192 16.3716 51.956 16.0352 52.19 15.6299C52.3844 16.0277 52.4772 16.4675 52.4601 16.9099V16.9099Z" fill="#CFD7D9"/>
<path d="M20.51 27.5599H24.06V31.11H20.51V27.5599Z" fill="#CFD7D9"/>
<path d="M29.3799 27.5599H32.9299V31.11H29.3799V27.5599Z" fill="#CFD7D9"/>
<path d="M26.7201 19.57C28.1891 19.57 29.3801 18.3791 29.3801 16.91C29.3801 15.4409 28.1891 14.25 26.7201 14.25C25.251 14.25 24.0601 15.4409 24.0601 16.91C24.0601 18.3791 25.251 19.57 26.7201 19.57Z" fill="#59B5E7"/>
<path d="M28.4999 17.7899C28.5008 18.0546 28.4603 18.3177 28.3799 18.5699C28.1295 18.6413 27.8704 18.6783 27.61 18.6799C26.9045 18.6799 26.2279 18.3996 25.729 17.9008C25.2302 17.402 24.95 16.7254 24.95 16.0199C24.9515 15.7594 24.9885 15.5004 25.0599 15.2499C25.3121 15.1695 25.5753 15.129 25.84 15.1299C26.5454 15.1299 27.222 15.4101 27.7209 15.909C28.2197 16.4078 28.4999 17.0844 28.4999 17.7899V17.7899Z" fill="#59B5E7"/>
<path d="M30.2701 45.2999H26.7001L25.8201 38.2H31.1401L30.2701 45.2999Z" fill="#F29A8D"/>
<path d="M30.5301 43.2399L30.2701 45.2999H26.7001L25.8201 38.2H27.8201L28.0401 40.0099C28.1343 40.7198 28.4141 41.3922 28.8513 41.9593C29.2885 42.5264 29.8676 42.9682 30.5301 43.2399V43.2399Z" fill="#EB6652"/>
<path d="M30.45 43.87L30.27 45.3H26.7L26.2 41.22C27.3831 42.432 28.8409 43.3409 30.45 43.87Z" fill="#CC5244"/>
<path d="M25.8401 45.3H23.1701C22.7224 45.2664 22.3039 45.0648 21.9985 44.7356C21.6931 44.4064 21.5234 43.974 21.5234 43.525C21.5234 43.076 21.6931 42.6436 21.9985 42.3144C22.3039 41.9852 22.7224 41.7836 23.1701 41.75H25.8401C26.2879 41.7836 26.7063 41.9852 27.0117 42.3144C27.3171 42.6436 27.4868 43.076 27.4868 43.525C27.4868 43.974 27.3171 44.4064 27.0117 44.7356C26.7063 45.0648 26.2879 45.2664 25.8401 45.3V45.3Z" fill="#E94D8C"/>
<path d="M27.6099 43.53C27.6073 43.9986 27.4199 44.4473 27.0886 44.7787C26.7572 45.11 26.3085 45.2973 25.8399 45.3H23.1699C22.7005 45.3 22.2502 45.1135 21.9183 44.7816C21.5864 44.4496 21.3999 43.9994 21.3999 43.53C21.4034 43.2159 21.4882 42.9081 21.6459 42.6365C21.8036 42.3649 22.0289 42.1387 22.2999 41.98C22.3576 42.4069 22.5674 42.7986 22.8907 43.0833C23.214 43.3681 23.6291 43.5266 24.0599 43.53H26.6999C27.005 43.5309 27.3051 43.4516 27.5699 43.3C27.5887 43.3756 27.602 43.4524 27.6099 43.53V43.53Z" fill="#D50264"/>
<path d="M43.58 36.43H41.81C41.5657 36.4483 41.3203 36.4161 41.0891 36.3352C40.8578 36.2543 40.6457 36.1265 40.4661 35.9599C40.2865 35.7933 40.1432 35.5914 40.0453 35.3669C39.9473 35.1423 39.8967 34.9 39.8967 34.655C39.8967 34.41 39.9473 34.1677 40.0453 33.9431C40.1432 33.7186 40.2865 33.5167 40.4661 33.3501C40.6457 33.1834 40.8578 33.0557 41.0891 32.9748C41.3203 32.8939 41.5657 32.8617 41.81 32.88H43.58C43.8243 32.8617 44.0698 32.8939 44.3011 32.9748C44.5323 33.0557 44.7443 33.1834 44.924 33.3501C45.1036 33.5167 45.2468 33.7186 45.3448 33.9431C45.4428 34.1677 45.4934 34.41 45.4934 34.655C45.4934 34.9 45.4428 35.1423 45.3448 35.3669C45.2468 35.5914 45.1036 35.7933 44.924 35.9599C44.7443 36.1265 44.5323 36.2543 44.3011 36.3352C44.0698 36.4161 43.8243 36.4483 43.58 36.43V36.43Z" fill="#85D0F2"/>
<path d="M11.64 36.4299H9.86005C9.4123 36.3962 8.99379 36.1946 8.68842 35.8655C8.38304 35.5363 8.21338 35.1039 8.21338 34.6549C8.21338 34.2059 8.38304 33.7734 8.68842 33.4443C8.99379 33.1151 9.4123 32.9135 9.86005 32.8799H11.64C12.0878 32.9135 12.5063 33.1151 12.8116 33.4443C13.117 33.7734 13.2867 34.2059 13.2867 34.6549C13.2867 35.1039 13.117 35.5363 12.8116 35.8655C12.5063 36.1946 12.0878 36.3962 11.64 36.4299V36.4299Z" fill="#85D0F2"/>
<path d="M44.47 14.25H48.02V19.57H44.47V14.25Z" fill="#85D0F2"/>
<path d="M5.42993 14.25H8.97992V19.57H5.42993V14.25Z" fill="#59B5E7"/>
<path d="M26.7 14.25C26.1739 14.25 25.6597 14.406 25.2222 14.6983C24.7848 14.9906 24.4438 15.406 24.2425 15.8921C24.0412 16.3781 23.9885 16.913 24.0912 17.429C24.1938 17.9449 24.4471 18.4189 24.8191 18.7909C25.1912 19.1629 25.6651 19.4163 26.1811 19.5189C26.6971 19.6215 27.2319 19.5689 27.718 19.3675C28.204 19.1662 28.6195 18.8253 28.9117 18.3878C29.204 17.9504 29.36 17.4361 29.36 16.91C29.36 16.2045 29.0798 15.5279 28.5809 15.0291C28.0821 14.5302 27.4055 14.25 26.7 14.25ZM28.36 18.57C28.1096 18.6414 27.8505 18.6784 27.5901 18.68C26.8846 18.68 26.208 18.3998 25.7091 17.9009C25.2103 17.4021 24.93 16.7255 24.93 16.02C24.9316 15.7595 24.9686 15.5005 25.04 15.25C25.2922 15.1696 25.5554 15.1291 25.82 15.13C26.5255 15.13 27.2021 15.4102 27.701 15.9091C28.1998 16.4079 28.48 17.0845 28.48 17.79C28.4874 18.0536 28.4537 18.3168 28.38 18.57H28.36Z" fill="#4A8FCD"/>
<path d="M27.61 16.9099C28.1015 16.9099 28.5 16.5114 28.5 16.0199C28.5 15.5283 28.1015 15.1299 27.61 15.1299C27.1184 15.1299 26.72 15.5283 26.72 16.0199C26.72 16.5114 27.1184 16.9099 27.61 16.9099Z" fill="#85D0F2"/>
<path d="M28.5 16.0199C28.5007 16.1369 28.4781 16.2529 28.4334 16.3611C28.3888 16.4693 28.323 16.5674 28.24 16.6499C27.9715 16.1017 27.5282 15.6584 26.98 15.3899C27.149 15.2258 27.3744 15.1327 27.61 15.1299C27.846 15.1299 28.0724 15.2237 28.2393 15.3906C28.4062 15.5575 28.5 15.7838 28.5 16.0199V16.0199Z" fill="#59B5E7"/>
<path d="M44.47 16.9099H48.02V19.5699H44.47V16.9099Z" fill="#59B5E7"/>
<path d="M44.4699 7.5499V8.96991C44.4682 9.59224 44.631 10.204 44.9418 10.7431C45.2526 11.2822 45.7005 11.7296 46.24 12.0399V14.2999H42.7V6.2999C42.7 5.83046 42.8864 5.38028 43.2184 5.04834C43.5503 4.7164 44.0005 4.52991 44.4699 4.52991C44.9394 4.52991 45.3896 4.7164 45.7215 5.04834C46.0535 5.38028 46.24 5.83046 46.24 6.2999V8.06992C45.6145 8.05512 45.004 7.87574 44.4699 7.5499V7.5499Z" fill="#939999"/>
<path d="M44.47 4.47995H40.03C39.5634 4.48127 39.1012 4.39034 38.6699 4.2124C38.2386 4.03447 37.8467 3.77303 37.5168 3.44312C37.1869 3.1132 36.9255 2.72134 36.7475 2.29004C36.5696 1.85874 36.4787 1.39649 36.48 0.929932H40.92C41.8615 0.929932 42.7645 1.30394 43.4302 1.9697C44.096 2.63545 44.47 3.53843 44.47 4.47995Z" fill="#85D0F2"/>
<path d="M44.47 4.47998H48.91C49.8515 4.47998 50.7544 4.85399 51.4202 5.51974C52.086 6.1855 52.46 7.08845 52.46 8.02997H48.02C47.0785 8.02997 46.1755 7.65596 45.5098 6.9902C44.844 6.32445 44.47 5.4215 44.47 4.47998Z" fill="#85D0F2"/>
<path d="M52.46 8.02997H48.02C47.0785 8.02997 46.1755 7.65596 45.5098 6.9902C44.844 6.32445 44.47 5.4215 44.47 4.47998H45.84C46.1498 5.02062 46.5968 5.4699 47.1358 5.78244C47.6749 6.09498 48.2869 6.25972 48.91 6.25998H51.98C52.2918 6.79794 52.4573 7.40817 52.46 8.02997V8.02997Z" fill="#59B5E7"/>
<path d="M44.47 4.47995H40.03C39.5634 4.48127 39.1012 4.39034 38.6699 4.2124C38.2386 4.03447 37.8467 3.77303 37.5168 3.44312C37.1869 3.1132 36.9255 2.72134 36.7475 2.29004C36.5696 1.85874 36.4787 1.39649 36.48 0.929932H37.85C38.1598 1.47057 38.6068 1.91988 39.1459 2.23242C39.6849 2.54497 40.2969 2.70967 40.92 2.70993H43.99C44.3018 3.24789 44.4673 3.85816 44.47 4.47995Z" fill="#59B5E7"/>
<path d="M10.7501 14.25H7.20007V6.25C7.18172 6.0057 7.214 5.76024 7.29489 5.52899C7.37577 5.29774 7.50351 5.0857 7.67013 4.9061C7.83675 4.7265 8.03864 4.58321 8.26318 4.48523C8.48772 4.38725 8.73008 4.33667 8.97506 4.33667C9.22005 4.33667 9.4624 4.38725 9.68695 4.48523C9.91149 4.58321 10.1134 4.7265 10.28 4.9061C10.4466 5.0857 10.5744 5.29774 10.6553 5.52899C10.7362 5.76024 10.7684 6.0057 10.7501 6.25V14.25Z" fill="#CFD7D9"/>
<path d="M8.98007 7.5499V8.96991C8.97623 9.59264 9.13814 10.2052 9.44918 10.7447C9.76023 11.2842 10.2092 11.7312 10.7501 12.0399V14.2999H7.20007V6.2999C7.18172 6.0556 7.214 5.81017 7.29489 5.57892C7.37577 5.34767 7.50351 5.1356 7.67013 4.95599C7.83675 4.77639 8.03864 4.6331 8.26318 4.53513C8.48772 4.43715 8.73008 4.3866 8.97506 4.3866C9.22005 4.3866 9.4624 4.43715 9.68695 4.53513C9.91149 4.6331 10.1134 4.77639 10.28 4.95599C10.4466 5.1356 10.5744 5.34767 10.6553 5.57892C10.7362 5.81017 10.7684 6.0556 10.7501 6.2999V8.06992C10.1244 8.05654 9.51354 7.87706 8.98007 7.5499Z" fill="#939999"/>
<path d="M8.97999 4.47995H4.53999C4.07343 4.48127 3.61122 4.39034 3.17992 4.2124C2.74861 4.03447 2.35672 3.77303 2.02681 3.44312C1.6969 3.1132 1.43546 2.72134 1.25752 2.29004C1.07958 1.85874 0.988685 1.39649 0.990004 0.929932H5.43001C6.37153 0.929932 7.27448 1.30394 7.94023 1.9697C8.60598 2.63545 8.97999 3.53843 8.97999 4.47995Z" fill="#85D0F2"/>
<path d="M8.97999 4.47998H13.41C14.3515 4.47998 15.2545 4.85399 15.9202 5.51974C16.586 6.1855 16.96 7.08845 16.96 8.02997H12.53C12.0634 8.03129 11.6012 7.94036 11.1699 7.76242C10.7386 7.58448 10.3467 7.32304 10.0168 6.99313C9.68692 6.66322 9.42548 6.27136 9.24754 5.84006C9.06961 5.40876 8.97867 4.94654 8.97999 4.47998V4.47998Z" fill="#85D0F2"/>
<path d="M16.96 8.02997H12.53C12.0634 8.03129 11.6012 7.94036 11.1699 7.76242C10.7386 7.58448 10.3467 7.32304 10.0168 6.99313C9.68692 6.66322 9.42548 6.27136 9.24754 5.84006C9.06961 5.40876 8.97867 4.94654 8.97999 4.47998H10.34C10.6498 5.02062 11.0968 5.4699 11.6358 5.78244C12.1749 6.09498 12.7869 6.25972 13.41 6.25998H16.48C16.7963 6.79606 16.9621 7.40753 16.96 8.02997V8.02997Z" fill="#59B5E7"/>
<path d="M8.97999 4.47995H4.53999C4.07343 4.48127 3.61122 4.39034 3.17992 4.2124C2.74861 4.03447 2.35672 3.77303 2.02681 3.44312C1.6969 3.1132 1.43546 2.72134 1.25752 2.29004C1.07958 1.85874 0.988685 1.39649 0.990004 0.929932H2.36C2.66979 1.47057 3.11679 1.91988 3.65584 2.23242C4.19489 2.54497 4.8069 2.70967 5.43001 2.70993H8.49998C8.80719 3.2498 8.97236 3.85884 8.97999 4.47995V4.47995Z" fill="#59B5E7"/>
<path d="M45.36 34.65C45.3548 35.1205 45.1656 35.5702 44.8329 35.9029C44.5003 36.2356 44.0505 36.4248 43.58 36.43H41.81C41.5657 36.4483 41.3203 36.4161 41.0891 36.3352C40.8578 36.2543 40.6457 36.1265 40.4661 35.9599C40.2865 35.7933 40.1432 35.5914 40.0453 35.3669C39.9473 35.1423 39.8967 34.9 39.8967 34.655C39.8967 34.41 39.9473 34.1677 40.0453 33.9431C40.1432 33.7186 40.2865 33.5167 40.4661 33.3501C40.6457 33.1834 40.8578 33.0557 41.0891 32.9748C41.3203 32.8939 41.5657 32.8617 41.81 32.88C41.81 33.3494 41.9965 33.7996 42.3285 34.1316C42.6604 34.4635 43.1106 34.65 43.58 34.65H45.36Z" fill="#59B5E7"/>
<path d="M13.41 34.6499C13.4074 35.1194 13.2204 35.5692 12.8893 35.9021C12.5582 36.2351 12.1096 36.4246 11.64 36.4299H9.86005C9.4123 36.3962 8.99379 36.1946 8.68842 35.8655C8.38304 35.5363 8.21338 35.1039 8.21338 34.6549C8.21338 34.2059 8.38304 33.7734 8.68842 33.4443C8.99379 33.1151 9.4123 32.9135 9.86005 32.8799C9.86269 33.3502 10.0514 33.8004 10.3849 34.1321C10.7184 34.4637 11.1697 34.6499 11.64 34.6499H13.41Z" fill="#59B5E7"/>
<path d="M32.9299 30.2199V31.11H29.3799V27.5599H30.2699V28.4399C30.2751 28.9104 30.4643 29.3601 30.797 29.6928C31.1297 30.0255 31.5794 30.2147 32.0499 30.2199H32.9299Z" fill="#939999"/>
<path d="M24.06 30.2199V31.11H20.51V27.5599H21.4V28.4399C21.4 28.9103 21.5862 29.3615 21.9178 29.6951C22.2495 30.0286 22.6997 30.2173 23.17 30.2199H24.06Z" fill="#939999"/>
<path d="M49.7901 13.36H47.1301V8.82998C47.4229 8.89007 47.7211 8.92025 48.0201 8.92001H52.4601C52.5765 8.92002 52.6917 8.89693 52.7992 8.85208C52.9066 8.80723 53.004 8.7415 53.0859 8.65872C53.1677 8.57594 53.2323 8.47776 53.276 8.36984C53.3196 8.26192 53.3414 8.1464 53.3401 8.03C53.3401 6.85509 52.8733 5.72831 52.0425 4.89752C51.2118 4.06673 50.085 3.6 48.9101 3.6H45.2701C45.065 2.5977 44.5201 1.69696 43.7274 1.05011C42.9348 0.403253 41.9431 0.0499584 40.9201 0.0499849H36.4801C36.3641 0.0486444 36.2491 0.0705054 36.1417 0.114255C36.0344 0.158004 35.9368 0.222762 35.8548 0.304746C35.7728 0.38673 35.7081 0.4843 35.6643 0.591672C35.6206 0.699044 35.5987 0.814055 35.6001 0.92999C35.5988 1.51259 35.7124 2.08973 35.9344 2.62835C36.1565 3.16698 36.4825 3.65651 36.894 4.06894C37.3055 4.48136 37.7943 4.80857 38.3325 5.03183C38.8706 5.25508 39.4475 5.36999 40.0301 5.36999H41.9701C41.8678 5.65575 41.8137 5.95653 41.8101 6.26001V13.32C40.9908 13.2418 40.1864 13.05 39.4201 12.75C39.1985 12.6685 38.9538 12.6774 38.7386 12.7746C38.5235 12.8719 38.3553 13.0498 38.2701 13.27C38.1903 13.4852 38.1967 13.7229 38.288 13.9334C38.3793 14.144 38.5485 14.3112 38.7601 14.4C39.9867 14.8812 41.2925 15.1288 42.6101 15.13H43.6101V18.68H42.6101C40.1613 18.6815 37.7905 19.5414 35.9101 21.11C34.3495 22.4027 32.3865 23.1101 30.3601 23.11H26.7001C26.4816 23.1333 26.2794 23.2365 26.1325 23.3999C25.9856 23.5633 25.9043 23.7753 25.9043 23.995C25.9043 24.2147 25.9856 24.4267 26.1325 24.5901C26.2794 24.7535 26.4816 24.8567 26.7001 24.88H30.2501V26.66H29.3601C29.2437 26.66 29.1284 26.6831 29.021 26.7279C28.9136 26.7728 28.8161 26.8385 28.7343 26.9213C28.6524 27.004 28.5878 27.1022 28.5442 27.2102C28.5005 27.3181 28.4787 27.4336 28.4801 27.55V30.21H24.9301V27.55C24.9301 27.3139 24.8363 27.0876 24.6694 26.9207C24.5025 26.7538 24.2761 26.66 24.0401 26.66H23.1501V24.87C23.3835 24.8594 23.6031 24.7565 23.7606 24.584C23.9182 24.4114 24.0007 24.1834 23.9901 23.95C23.9795 23.7166 23.8766 23.497 23.704 23.3395C23.5315 23.1819 23.3035 23.0994 23.0701 23.11C21.04 23.1132 19.0729 22.4056 17.5101 21.11C15.6336 19.5414 13.2659 18.6813 10.8201 18.68H9.82007V15.13H10.8201C13.2669 15.127 15.6361 14.2713 17.5201 12.71C18.6313 11.7815 19.959 11.1486 21.3801 10.87V12.47C21.3669 12.5941 21.3799 12.7196 21.4184 12.8384C21.4568 12.9571 21.5198 13.0665 21.6033 13.1593C21.6867 13.2521 21.7888 13.3263 21.9028 13.3771C22.0168 13.4279 22.1403 13.4542 22.2651 13.4542C22.3899 13.4542 22.5133 13.4279 22.6273 13.3771C22.7414 13.3263 22.8434 13.2521 22.9269 13.1593C23.0103 13.0665 23.0733 12.9571 23.1118 12.8384C23.1502 12.7196 23.1633 12.5941 23.1501 12.47V10.7H30.2501V12.47C30.2501 12.706 30.3438 12.9324 30.5107 13.0993C30.6776 13.2662 30.904 13.36 31.1401 13.36C31.3761 13.36 31.6025 13.2662 31.7694 13.0993C31.9363 12.9324 32.0301 12.706 32.0301 12.47V10.87C33.4498 11.1526 34.7765 11.7851 35.8901 12.71C35.9777 12.7959 36.0821 12.8628 36.1968 12.9064C36.3115 12.95 36.434 12.9694 36.5566 12.9634C36.6791 12.9574 36.7992 12.9262 36.9091 12.8716C37.019 12.817 37.1164 12.7403 37.1953 12.6462C37.2741 12.5522 37.3326 12.4429 37.3672 12.3251C37.4017 12.2074 37.4115 12.0837 37.396 11.962C37.3805 11.8403 37.34 11.7231 37.277 11.6178C37.2141 11.5124 37.13 11.4213 37.0301 11.35V11.35C35.1518 9.78435 32.7853 8.92475 30.3401 8.92001H23.0701C20.6243 8.92137 18.2566 9.78137 16.3801 11.35C15.0323 12.483 13.3726 13.1804 11.6201 13.35V8.86001C11.9129 8.9201 12.2111 8.95025 12.5101 8.95001H16.9401C17.1761 8.95001 17.4025 8.85624 17.5694 8.68933C17.7363 8.52242 17.8301 8.29604 17.8301 8.05999C17.8301 7.4774 17.7152 6.90052 17.4919 6.36239C17.2687 5.82427 16.9414 5.33547 16.529 4.92398C16.1166 4.51248 15.6271 4.18639 15.0884 3.96435C14.5498 3.74231 13.9727 3.62869 13.3901 3.63H9.75006C9.54707 2.62851 9.00412 1.728 8.21317 1.08102C7.42221 0.434045 6.43192 0.0803795 5.41006 0.0799836H0.970062C0.73402 0.0799836 0.507667 0.173757 0.340759 0.340665C0.173852 0.507572 0.0800781 0.733956 0.0800781 0.969998C0.0827264 2.14583 0.551689 3.27259 1.38406 4.10309C2.21644 4.93359 3.34425 5.39999 4.52008 5.39999H6.46008C6.3546 5.68522 6.29714 5.98598 6.29007 6.29001V10.73C6.29007 10.9661 6.38384 11.1924 6.55075 11.3593C6.71766 11.5262 6.94404 11.62 7.18008 11.62C7.41613 11.62 7.64248 11.5262 7.80939 11.3593C7.97629 11.1924 8.07007 10.9661 8.07007 10.73V6.29001C8.06892 6.09469 8.14019 5.90588 8.27008 5.76001C8.53383 6.66944 9.08456 7.46922 9.84009 8.04001V13.39H3.70007C2.75855 13.39 1.8556 13.764 1.18985 14.4298C0.524096 15.0955 0.150085 15.9985 0.150085 16.94C0.150085 17.8815 0.524096 18.7845 1.18985 19.4502C1.8556 20.116 2.75855 20.49 3.70007 20.49H10.8901C11.6259 20.4876 12.3588 20.5817 13.0701 20.77C11.0244 23.1639 9.90344 26.2111 9.91006 29.36V31.97C9.23148 32.0116 8.59433 32.3105 8.12854 32.8057C7.66275 33.3009 7.40341 33.9552 7.40341 34.635C7.40341 35.3149 7.66275 35.9691 8.12854 36.4643C8.59433 36.9595 9.23148 37.2584 9.91006 37.3H11.6901C12.3686 37.2584 13.0058 36.9595 13.4716 36.4643C13.9374 35.9691 14.1967 35.3149 14.1967 34.635C14.1967 33.9552 13.9374 33.3009 13.4716 32.8057C13.0058 32.3105 12.3686 32.0116 11.6901 31.97V29.31C11.6833 26.3673 12.8158 23.5363 14.8501 21.41C15.4179 21.679 15.9517 22.0147 16.4401 22.41C17.8755 23.5992 19.601 24.386 21.4401 24.69V26.61H20.5501C20.314 26.61 20.0877 26.7038 19.9207 26.8707C19.7538 27.0376 19.6601 27.264 19.6601 27.5V30.16C19.3107 30.16 18.9648 30.2288 18.6421 30.3625C18.3194 30.4962 18.0262 30.6921 17.7792 30.9391C17.5322 31.1861 17.3362 31.4793 17.2025 31.8021C17.0689 32.1248 17.0001 32.4707 17.0001 32.82V47.02C17.0001 47.3693 17.0689 47.7152 17.2025 48.0379C17.3362 48.3607 17.5322 48.6539 17.7792 48.9009C18.0262 49.1479 18.3194 49.3438 18.6421 49.4775C18.9648 49.6112 19.3107 49.68 19.6601 49.68H33.8601C34.5656 49.68 35.2421 49.3998 35.741 48.9009C36.2398 48.4021 36.5201 47.7255 36.5201 47.02V43.47C36.5333 43.3459 36.5202 43.2204 36.4818 43.1016C36.4433 42.9829 36.3803 42.8735 36.2969 42.7807C36.2134 42.6879 36.1114 42.6137 35.9973 42.5629C35.8833 42.5121 35.7599 42.4858 35.6351 42.4858C35.5102 42.4858 35.3868 42.5121 35.2728 42.5629C35.1588 42.6137 35.0567 42.6879 34.9733 42.7807C34.8898 42.8735 34.8268 42.9829 34.7884 43.1016C34.7499 43.2204 34.7368 43.3459 34.7501 43.47V47.02C34.7501 47.256 34.6563 47.4824 34.4894 47.6493C34.3225 47.8162 34.0961 47.91 33.8601 47.91H19.6601C19.5437 47.91 19.4284 47.8869 19.321 47.8421C19.2136 47.7972 19.1161 47.7315 19.0343 47.6487C18.9524 47.566 18.8878 47.4678 18.8442 47.3598C18.8005 47.2519 18.7787 47.1364 18.7801 47.02V32.82C18.7787 32.7036 18.8005 32.5881 18.8442 32.4802C18.8878 32.3722 18.9524 32.2741 19.0343 32.1913C19.1161 32.1085 19.2136 32.0428 19.321 31.9979C19.4284 31.9531 19.5437 31.93 19.6601 31.93H33.8601C34.0961 31.93 34.3225 32.0238 34.4894 32.1907C34.6563 32.3576 34.7501 32.584 34.7501 32.82V39.97C34.7368 40.0941 34.7499 40.2196 34.7884 40.3384C34.8268 40.4571 34.8898 40.5665 34.9733 40.6593C35.0567 40.7521 35.1588 40.8263 35.2728 40.8771C35.3868 40.9279 35.5102 40.9542 35.6351 40.9542C35.7599 40.9542 35.8833 40.9279 35.9973 40.8771C36.1114 40.8263 36.2134 40.7521 36.2969 40.6593C36.3803 40.5665 36.4433 40.4571 36.4818 40.3384C36.5202 40.2196 36.5333 40.0941 36.5201 39.97V32.87C36.5201 32.1645 36.2398 31.4879 35.741 30.9891C35.2421 30.4903 34.5656 30.21 33.8601 30.21V27.55C33.8601 27.3139 33.7663 27.0876 33.5994 26.9207C33.4325 26.7538 33.2061 26.66 32.9701 26.66H32.0901V24.74C33.9302 24.4392 35.6564 23.652 37.0901 22.46C37.5801 22.0669 38.1136 21.7314 38.6801 21.46C40.7171 23.5852 41.8531 26.4162 41.8501 29.36V31.97C41.1715 32.0116 40.5343 32.3105 40.0685 32.8057C39.6027 33.3009 39.3434 33.9552 39.3434 34.635C39.3434 35.3149 39.6027 35.9691 40.0685 36.4643C40.5343 36.9595 41.1715 37.2584 41.8501 37.3H43.6201C44.2987 37.2584 44.9358 36.9595 45.4016 36.4643C45.8674 35.9691 46.1267 35.3149 46.1267 34.635C46.1267 33.9552 45.8674 33.3009 45.4016 32.8057C44.9358 32.3105 44.2987 32.0116 43.6201 31.97V29.31C43.6304 26.1622 42.5129 23.1149 40.4701 20.72C41.1814 20.5317 41.9143 20.4376 42.6501 20.44H49.8301C50.7716 20.44 51.6745 20.066 52.3403 19.4002C53.0061 18.7345 53.3801 17.8315 53.3801 16.89C53.3801 15.9485 53.0061 15.0455 52.3403 14.3798C51.6745 13.714 50.7716 13.34 49.8301 13.34L49.7901 13.36ZM13.4101 5.36001C13.9617 5.35858 14.5 5.52931 14.9499 5.84839C15.3998 6.16746 15.739 6.61899 15.9201 7.14001H12.5301C11.9781 7.13767 11.4403 6.96561 10.9895 6.64718C10.5387 6.32876 10.1968 5.87939 10.0101 5.36001H13.4101ZM2.03006 1.80999H5.43008C5.98098 1.8115 6.51792 1.98338 6.96729 2.30206C7.41665 2.62074 7.75643 3.0706 7.94006 3.58999H4.54007C3.99004 3.59068 3.45332 3.42083 3.00381 3.10385C2.55431 2.78686 2.21409 2.33834 2.03006 1.82V1.80999ZM8.09009 18.67H6.31006V15.12H8.09009V18.67ZM1.88007 16.9C1.88006 16.4296 2.06623 15.9784 2.39789 15.6449C2.72954 15.3113 3.17974 15.1226 3.65009 15.12H4.54007V18.67H3.70007C3.4643 18.6767 3.22956 18.6361 3.00967 18.5508C2.78978 18.4655 2.58917 18.3371 2.41962 18.1731C2.25006 18.0091 2.11499 17.8129 2.02234 17.596C1.92968 17.3791 1.8813 17.1459 1.88007 16.91V16.9ZM12.5301 34.64C12.5301 34.8761 12.4363 35.1024 12.2694 35.2693C12.1025 35.4362 11.8761 35.53 11.6401 35.53H9.86008C9.64158 35.5067 9.4394 35.4035 9.29248 35.2401C9.14556 35.0767 9.06427 34.8647 9.06427 34.645C9.06427 34.4253 9.14556 34.2133 9.29248 34.0499C9.4394 33.8865 9.64158 33.7833 9.86008 33.76H11.6401C11.7573 33.7587 11.8737 33.7808 11.9822 33.825C12.0908 33.8693 12.1895 33.9348 12.2724 34.0177C12.3553 34.1006 12.4208 34.1992 12.4651 34.3078C12.5093 34.4164 12.5314 34.5327 12.5301 34.65V34.64ZM21.4001 30.21V28.43H23.1701V30.21H21.4001ZM30.2701 30.21V28.43H32.0501V30.21H30.2701ZM44.4701 34.64C44.4701 34.8761 44.3763 35.1024 44.2094 35.2693C44.0425 35.4362 43.8161 35.53 43.5801 35.53H41.8101C41.6859 35.5432 41.5604 35.5302 41.4417 35.4917C41.3229 35.4533 41.2136 35.3903 41.1208 35.3068C41.028 35.2233 40.9537 35.1213 40.9029 35.0073C40.8521 34.8932 40.8259 34.7698 40.8259 34.645C40.8259 34.5202 40.8521 34.3968 40.9029 34.2827C40.9537 34.1687 41.028 34.0667 41.1208 33.9832C41.2136 33.8998 41.3229 33.8367 41.4417 33.7983C41.5604 33.7598 41.6859 33.7468 41.8101 33.76H43.5801C43.6973 33.7587 43.8137 33.7808 43.9222 33.825C44.0308 33.8693 44.1295 33.9348 44.2124 34.0177C44.2953 34.1006 44.3608 34.1992 44.4051 34.3078C44.4493 34.4164 44.4714 34.5327 44.4701 34.65V34.64ZM45.3601 13.35H43.5801V6.25C43.5887 6.05655 43.6587 5.87089 43.7801 5.72C44.0478 6.63017 44.6019 7.42973 45.3601 8V13.35ZM48.9101 5.35C49.461 5.35151 49.9979 5.52339 50.4473 5.84207C50.8966 6.16074 51.2364 6.61061 51.4201 7.13H48.0201C47.4692 7.1285 46.9322 6.95661 46.4829 6.63794C46.0335 6.31926 45.6937 5.86939 45.5101 5.35H48.9101ZM37.5201 1.79998H40.9201C41.4713 1.80003 42.0089 1.97134 42.4586 2.29022C42.9082 2.6091 43.2477 3.05978 43.4301 3.57998H40.0301C39.4816 3.57996 38.9464 3.41103 38.4973 3.09613C38.0482 2.78123 37.707 2.33566 37.5201 1.82V1.79998ZM45.3601 15.11H47.1301V18.66H45.3601V15.11ZM49.7901 18.66H48.9101V15.11H49.7901C50.0344 15.0917 50.2798 15.1239 50.5111 15.2048C50.7423 15.2857 50.9544 15.4135 51.134 15.5801C51.3136 15.7467 51.4569 15.9486 51.5548 16.1731C51.6528 16.3977 51.7034 16.64 51.7034 16.885C51.7034 17.13 51.6528 17.3723 51.5548 17.5969C51.4569 17.8214 51.3136 18.0233 51.134 18.1899C50.9544 18.3566 50.7423 18.4843 50.5111 18.5652C50.2798 18.6461 50.0344 18.6783 49.7901 18.66V18.66Z" fill="#464A51"/>
<path d="M23.1702 16.91C23.1702 17.6121 23.3784 18.2984 23.7684 18.8822C24.1585 19.466 24.713 19.9211 25.3616 20.1898C26.0103 20.4584 26.7241 20.5287 27.4128 20.3918C28.1014 20.2548 28.7339 19.9167 29.2304 19.4202C29.7269 18.9237 30.065 18.2912 30.202 17.6025C30.3389 16.9139 30.2686 16.2001 29.9999 15.5515C29.7312 14.9028 29.2762 14.3483 28.6924 13.9583C28.1086 13.5682 27.4223 13.36 26.7202 13.36C25.7786 13.36 24.8757 13.734 24.2099 14.3997C23.5442 15.0655 23.1702 15.9685 23.1702 16.91V16.91ZM28.5002 16.91C28.5002 17.262 28.3958 17.6062 28.2002 17.8989C28.0046 18.1916 27.7266 18.4197 27.4013 18.5545C27.0761 18.6892 26.7182 18.7244 26.3729 18.6558C26.0276 18.5871 25.7105 18.4175 25.4615 18.1686C25.2126 17.9197 25.043 17.6025 24.9744 17.2572C24.9057 16.9119 24.9409 16.554 25.0757 16.2288C25.2104 15.9035 25.4385 15.6256 25.7313 15.43C26.024 15.2344 26.3681 15.13 26.7202 15.13C27.1922 15.13 27.645 15.3175 27.9788 15.6513C28.3126 15.9851 28.5002 16.4379 28.5002 16.91V16.91Z" fill="#464A51"/>
<path d="M32.93 17.8C33.4216 17.8 33.82 17.4016 33.82 16.91C33.82 16.4185 33.4216 16.02 32.93 16.02C32.4385 16.02 32.04 16.4185 32.04 16.91C32.04 17.4016 32.4385 17.8 32.93 17.8Z" fill="#464A51"/>
<path d="M20.5101 17.8C21.0017 17.8 21.4001 17.4016 21.4001 16.91C21.4001 16.4185 21.0017 16.02 20.5101 16.02C20.0186 16.02 19.6201 16.4185 19.6201 16.91C19.6201 17.4016 20.0186 17.8 20.5101 17.8Z" fill="#464A51"/>
<path d="M20.51 43.53C20.51 44.2355 20.7902 44.9121 21.2891 45.4109C21.7879 45.9098 22.4645 46.19 23.17 46.19H32.05C32.2685 46.1667 32.4707 46.0635 32.6176 45.9001C32.7645 45.7367 32.8458 45.5247 32.8458 45.305C32.8458 45.0853 32.7645 44.8733 32.6176 44.7099C32.4707 44.5465 32.2685 44.4433 32.05 44.42H31.28L32.04 38.31C32.0554 38.1937 32.0477 38.0756 32.0173 37.9623C31.9869 37.849 31.9344 37.7428 31.8629 37.6499C31.7913 37.557 31.7021 37.4791 31.6004 37.4208C31.4986 37.3624 31.3863 37.3248 31.27 37.31H28.85L28.14 34.7C28.0938 34.5321 27.9989 34.3816 27.8671 34.2677C27.7354 34.1538 27.5728 34.0815 27.4 34.06L25.06 33.76C24.9422 33.7447 24.8226 33.7531 24.7081 33.7847C24.5936 33.8164 24.4866 33.8706 24.3934 33.9442C24.3002 34.0178 24.2227 34.1093 24.1655 34.2134C24.1082 34.3174 24.0723 34.4319 24.06 34.55C24.043 34.665 24.049 34.7822 24.0776 34.8948C24.1062 35.0074 24.1569 35.1133 24.2266 35.2063C24.2963 35.2993 24.3838 35.3775 24.4839 35.4365C24.584 35.4955 24.6948 35.5341 24.81 35.55L26.57 35.77L26.99 37.34H25.82C25.7036 37.3387 25.5881 37.3604 25.4802 37.4041C25.3722 37.4477 25.274 37.5123 25.1913 37.5942C25.1085 37.676 25.0428 37.7735 24.9979 37.8809C24.9531 37.9883 24.93 38.1036 24.93 38.22C24.9245 38.2565 24.9245 38.2935 24.93 38.33L25.24 40.89H23.14C22.4345 40.89 21.7579 41.1702 21.2591 41.6691C20.7602 42.1679 20.48 42.8445 20.48 43.55L20.51 43.53ZM23.17 44.42C22.9339 44.42 22.7076 44.3262 22.5406 44.1593C22.3737 43.9924 22.28 43.766 22.28 43.53C22.28 43.2939 22.3737 43.0676 22.5406 42.9007C22.7076 42.7337 22.9339 42.64 23.17 42.64H25.84C26.076 42.64 26.3024 42.7337 26.4693 42.9007C26.6362 43.0676 26.73 43.2939 26.73 43.53C26.73 43.766 26.6362 43.9924 26.4693 44.1593C26.3024 44.3262 26.076 44.42 25.84 44.42H23.17ZM28.17 39.09H30.17L29.51 44.42H28.36C28.5791 43.8253 28.5752 43.1713 28.3491 42.5792C28.1229 41.9872 27.6898 41.4972 27.13 41.2L26.86 39.09H28.17Z" fill="#464A51"/>
</svg>
