<svg width="54" height="54" viewBox="0 0 54 54" fill="none" xmlns="http://www.w3.org/2000/svg">
<path d="M31.3699 1.20007H4.74995C2.78934 1.20007 1.19995 2.78947 1.19995 4.75008V49.1201C1.19995 51.0807 2.78934 52.6701 4.74995 52.6701H31.3699C33.3306 52.6701 34.92 51.0807 34.92 49.1201V4.75008C34.92 2.78947 33.3306 1.20007 31.3699 1.20007Z" fill="#E94D8C"/>
<path d="M34.92 38.4701V49.1201C34.92 49.5862 34.8281 50.0479 34.6497 50.4786C34.4713 50.9093 34.2098 51.3006 33.8802 51.6303C33.5505 51.9599 33.1592 52.2214 32.7285 52.3998C32.2978 52.5782 31.8362 52.6701 31.37 52.6701H4.74995C4.28376 52.6701 3.82212 52.5782 3.39142 52.3998C2.96071 52.2214 2.56936 51.9599 2.23972 51.6303C1.91007 51.3006 1.64859 50.9093 1.47018 50.4786C1.29178 50.0479 1.19995 49.5862 1.19995 49.1201V4.75006C1.19995 3.80854 1.57396 2.90559 2.23972 2.23984C2.90547 1.57408 3.80844 1.20007 4.74995 1.20007H10.08V34.9701C10.08 35.9116 10.454 36.8145 11.1197 37.4803C11.7855 38.146 12.6884 38.5201 13.6299 38.5201L34.92 38.4701Z" fill="#D50264"/>
<path d="M11.85 6.52011C11.85 6.99047 11.6638 7.44171 11.3322 7.77524C11.0005 8.10877 10.5504 8.29747 10.08 8.30011H6.53C6.05964 8.3001 5.6084 8.48628 5.27487 8.81793C4.94134 9.14959 4.75264 9.59978 4.75 10.0701V47.3401C4.75 47.8122 4.93753 48.265 5.27135 48.5988C5.60516 48.9326 6.05791 49.1201 6.53 49.1201H29.6C30.0703 49.1175 30.5205 48.9288 30.8522 48.5952C31.1838 48.2617 31.37 47.8105 31.37 47.3401V6.52011C31.37 6.05068 31.1835 5.60049 30.8516 5.26855C30.5196 4.93662 30.0694 4.75012 29.6 4.75012H13.6C13.1348 4.75796 12.6913 4.94757 12.3642 5.27838C12.0371 5.6092 11.8525 6.05491 11.85 6.52011V6.52011Z" fill="#85D0F2"/>
<path d="M6.53008 49.1201H29.6001C30.0704 49.1175 30.5206 48.9288 30.8523 48.5952C31.1839 48.2617 31.3701 47.8105 31.3701 47.3401V6.52011C31.3701 6.05068 31.1836 5.60049 30.8517 5.26855C30.5197 4.93662 30.0695 4.75012 29.6001 4.75012H13.6001C13.3694 4.7553 13.142 4.80604 12.931 4.89944C12.72 4.99285 12.5295 5.12708 12.3706 5.29437C12.2117 5.46167 12.0874 5.65875 12.0049 5.87427C11.9225 6.08978 11.8834 6.31945 11.8901 6.55011V6.55011C11.8797 7.0135 11.6889 7.45457 11.3584 7.77951C11.0278 8.10445 10.5836 8.28764 10.1201 8.29013H6.57007C6.09971 8.29012 5.64847 8.47627 5.31494 8.80792C4.98141 9.13958 4.79271 9.58977 4.79007 10.0601V47.3301C4.78733 47.7971 4.9682 48.2464 5.29369 48.5813C5.61918 48.9161 6.06322 49.1096 6.53008 49.1201V49.1201ZM13.6301 38.4701C12.6885 38.4701 11.7856 38.0961 11.1198 37.4304C10.4541 36.7646 10.0801 35.8617 10.0801 34.9201V10.9701H10.9701C11.4404 10.9675 11.8906 10.7788 12.2223 10.4453C12.5539 10.1117 12.7401 9.66048 12.7401 9.19012C12.7401 8.72069 12.9266 8.27048 13.2585 7.93854C13.5904 7.6066 14.0406 7.42014 14.5101 7.42014H26.9401C27.4095 7.42014 27.8597 7.6066 28.1917 7.93854C28.5236 8.27048 28.7101 8.72069 28.7101 9.19012V38.4701H13.6301Z" fill="#59B5E7"/>
<path d="M10.0801 11.8501H15.4001V42.0201H10.0801V11.8501Z" fill="#4A8FCD"/>
<path d="M10.0801 15.4H52.7001V38.47H10.0801V15.4Z" fill="#CFD7D9"/>
<path d="M52.7001 31.37V38.47H10.0801V15.4H14.5101C15.8501 20.0132 18.651 24.0668 22.4919 26.952C26.3328 29.8372 31.0062 31.398 35.8101 31.4L52.7001 31.37Z" fill="#939999"/>
<path d="M19.84 38.47H16.29L17.18 26.04H18.95L19.84 38.47Z" fill="#4A8FCD"/>
<path d="M19.84 38.47H16.29L17.18 26.04H18.95L19.21 29.67C18.8784 29.9722 18.4865 30.2006 18.06 30.34V33.14C18.0606 33.6531 18.209 34.1551 18.4874 34.5861C18.7658 35.017 19.1625 35.3587 19.63 35.57L19.84 38.47Z" fill="#3172B7"/>
<path d="M21.61 24.27C21.61 26.72 20.02 28.71 18.06 28.71C16.1 28.71 14.51 26.71 14.51 24.27H21.61Z" fill="#85D0F2"/>
<path d="M21.33 25.9701C21.1403 26.7098 20.7222 27.3709 20.1351 27.8592C19.548 28.3476 18.8219 28.6383 18.06 28.6901C16.06 28.6901 14.51 26.6901 14.51 24.2501H19.51C20.0813 24.8597 20.6891 25.4341 21.33 25.9701V25.9701Z" fill="#59B5E7"/>
<path d="M30.49 38.47H26.9399L27.83 26.04H29.5999L30.49 38.47Z" fill="#59B5E7"/>
<path d="M30.49 38.47H26.9399L27.83 26.04H29.5999L29.86 29.67C29.5284 29.9722 29.1364 30.2006 28.71 30.34V33.14C28.7105 33.6531 28.8589 34.1551 29.1373 34.5861C29.4157 35.017 29.8124 35.3587 30.2799 35.57L30.49 38.47Z" fill="#4A8FCD"/>
<path d="M28.7099 28.7101C30.6705 28.7101 32.2599 26.7222 32.2599 24.2701C32.2599 21.8179 30.6705 19.8301 28.7099 19.8301C26.7493 19.8301 25.1599 21.8179 25.1599 24.2701C25.1599 26.7222 26.7493 28.7101 28.7099 28.7101Z" fill="#85D0F2"/>
<path d="M31.6999 26.6701C31.4293 27.245 31.0068 27.735 30.4782 28.0875C29.9495 28.4399 29.3346 28.6414 28.6999 28.6701C26.6999 28.6701 25.1499 26.6701 25.1499 24.2301C25.1058 23.3862 25.3023 22.5472 25.7166 21.8107C26.1308 21.0742 26.7458 20.4706 27.4899 20.0701C27.1122 20.806 26.92 21.623 26.9299 22.4501C26.9299 24.9001 28.5199 26.8901 30.4799 26.8901C30.8974 26.9025 31.313 26.8275 31.6999 26.6701V26.6701Z" fill="#59B5E7"/>
<path d="M21.05 26.6701C20.7812 27.2463 20.3592 27.7376 19.8302 28.0903C19.3011 28.443 18.6853 28.6436 18.05 28.6701C16.05 28.6701 14.5 26.6701 14.5 24.2301H16.58C16.7779 24.9563 17.1973 25.6028 17.7798 26.0796C18.3623 26.5563 19.079 26.8397 19.83 26.8901C20.2476 26.9025 20.6631 26.8276 21.05 26.6701V26.6701Z" fill="#4A8FCD"/>
<path d="M30.49 38.47H26.9399L27.5599 29.78C28.3293 30.0926 29.1175 30.3565 29.92 30.57L30.49 38.47Z" fill="#4A8FCD"/>
<path d="M30.49 38.47H26.9399L27.5599 29.78C27.9999 29.96 28.45 30.13 28.9 30.27L28.71 30.34V33.14C28.7105 33.6531 28.8589 34.1551 29.1373 34.5861C29.4157 35.017 29.8124 35.3587 30.2799 35.57L30.49 38.47Z" fill="#3172B7"/>
<path d="M36.7 15.4H52.7V38.47H36.7V15.4Z" fill="#E94D8C"/>
<path d="M36.7 31.3701H52.7V38.4701H36.7V31.3701Z" fill="#D50264"/>
<path d="M48.23 47.34V42.02H41.14V47.34H38.47L44.7 52.67L50.91 47.34H48.23Z" fill="#EB6652"/>
<path d="M48.23 6.52005V1.20007H41.14V6.52005H38.47L44.69 11.8501L50.9 6.52005H48.23Z" fill="#EB6652"/>
<path d="M46.93 50.74L44.7 52.67L38.48 47.34H41.15V42.02H44.7V45.57C44.6935 46.5392 44.8884 47.4992 45.2722 48.3891C45.6561 49.2791 46.2206 50.0796 46.93 50.74V50.74Z" fill="#CC5244"/>
<path d="M46.93 9.97006L44.7 11.8501L38.48 6.52005H41.15V1.20007H44.7V4.75006C44.6865 5.72764 44.878 6.69719 45.2621 7.59625C45.6462 8.49531 46.2144 9.30394 46.93 9.97006V9.97006Z" fill="#CC5244"/>
<path d="M1.19989 23.3801C1.43593 23.3801 1.6623 23.2863 1.8292 23.1194C1.99611 22.9525 2.08989 22.7261 2.08989 22.4901V4.75006C2.08989 4.40074 2.15869 4.05484 2.29237 3.73212C2.42605 3.40939 2.62198 3.11617 2.86898 2.86917C3.11599 2.62217 3.40922 2.42622 3.73194 2.29254C4.05467 2.15886 4.40057 2.09006 4.74989 2.09006H31.3699C32.0763 2.09005 32.7539 2.37 33.2543 2.86856C33.7548 3.36712 34.0372 4.04367 34.0399 4.75006V11.8501C34.0631 12.0686 34.1664 12.2707 34.3298 12.4177C34.4932 12.5646 34.7052 12.6458 34.9249 12.6458C35.1446 12.6458 35.3566 12.5646 35.52 12.4177C35.6834 12.2707 35.7866 12.0686 35.8099 11.8501V4.75006C35.8099 3.5725 35.3421 2.44317 34.5094 1.6105C33.6768 0.777843 32.5475 0.310059 31.3699 0.310059H4.74989C4.16729 0.310057 3.59041 0.42497 3.05229 0.648224C2.51416 0.871477 2.02535 1.19869 1.61386 1.61111C1.20236 2.02354 0.876271 2.51307 0.654232 3.0517C0.432192 3.59032 0.318566 4.16746 0.319881 4.75006V22.4901C0.318558 22.6065 0.340352 22.722 0.383983 22.8299C0.427615 22.9378 0.492214 23.036 0.574062 23.1188C0.65591 23.2016 0.753382 23.2673 0.860805 23.3121C0.968229 23.357 1.08348 23.3801 1.19989 23.3801V23.3801Z" fill="#464A51"/>
<path d="M4.74986 5.64011C5.2414 5.64011 5.63986 5.24164 5.63986 4.75011C5.63986 4.25857 5.2414 3.86011 4.74986 3.86011C4.25833 3.86011 3.85986 4.25857 3.85986 4.75011C3.85986 5.24164 4.25833 5.64011 4.74986 5.64011Z" fill="#464A51"/>
<path d="M8.29991 5.64011C8.79144 5.64011 9.18991 5.24164 9.18991 4.75011C9.18991 4.25857 8.79144 3.86011 8.29991 3.86011C7.80838 3.86011 7.40991 4.25857 7.40991 4.75011C7.40991 5.24164 7.80838 5.64011 8.29991 5.64011Z" fill="#464A51"/>
<path d="M52.6998 14.5101H32.2598V6.5101C32.2598 5.80463 31.9796 5.12803 31.4808 4.62918C30.9819 4.13033 30.3053 3.8501 29.5998 3.8501H13.5998C12.8944 3.8501 12.2178 4.13033 11.7189 4.62918C11.2201 5.12803 10.9398 5.80463 10.9398 6.5101C10.9398 6.74614 10.8461 6.9725 10.6792 7.1394C10.5123 7.30631 10.2859 7.40009 10.0499 7.40009H6.49985C5.79437 7.40009 5.11779 7.68035 4.61894 8.1792C4.1201 8.67805 3.83984 9.35461 3.83984 10.0601V47.3301C3.83984 48.0356 4.1201 48.7122 4.61894 49.211C5.11779 49.7098 5.79437 49.9901 6.49985 49.9901H29.5998C30.3053 49.9901 30.9819 49.7098 31.4808 49.211C31.9796 48.7122 32.2598 48.0356 32.2598 47.3301V42.0101C32.2731 41.886 32.26 41.7604 32.2216 41.6417C32.1831 41.5229 32.1201 41.4136 32.0366 41.3208C31.9532 41.228 31.8511 41.1537 31.7371 41.1029C31.6231 41.0521 31.4997 41.0259 31.3748 41.0259C31.25 41.0259 31.1266 41.0521 31.0126 41.1029C30.8986 41.1537 30.7965 41.228 30.7131 41.3208C30.6296 41.4136 30.5666 41.5229 30.5281 41.6417C30.4897 41.7604 30.4766 41.886 30.4899 42.0101V47.3301C30.4899 47.5661 30.3961 47.7925 30.2292 47.9594C30.0623 48.1263 29.8359 48.2201 29.5998 48.2201H6.52985C6.2938 48.2201 6.06742 48.1263 5.90051 47.9594C5.73361 47.7925 5.63985 47.5661 5.63985 47.3301V10.0701C5.63985 9.83406 5.73361 9.60767 5.90051 9.44077C6.06742 9.27386 6.2938 9.18008 6.52985 9.18008H10.0798C10.7853 9.18008 11.4619 8.89985 11.9608 8.401C12.4596 7.90215 12.7398 7.22556 12.7398 6.52008C12.7398 6.40367 12.7629 6.28842 12.8078 6.181C12.8526 6.07358 12.9183 5.97613 13.0011 5.89429C13.0839 5.81244 13.1821 5.74782 13.29 5.70419C13.3979 5.66056 13.5134 5.63878 13.6298 5.64011H29.6298C29.7462 5.63878 29.8618 5.66056 29.9697 5.70419C30.0776 5.74782 30.1758 5.81244 30.2586 5.89429C30.3413 5.97613 30.4071 6.07358 30.4519 6.181C30.4968 6.28842 30.5199 6.40367 30.5199 6.52008V14.5201H22.5199C22.3957 14.5069 22.2702 14.5199 22.1515 14.5584C22.0327 14.5968 21.9234 14.6598 21.8306 14.7433C21.7377 14.8267 21.6635 14.9288 21.6127 15.0428C21.5619 15.1568 21.5356 15.2803 21.5356 15.4051C21.5356 15.5299 21.5619 15.6533 21.6127 15.7674C21.6635 15.8814 21.7377 15.9834 21.8306 16.0669C21.9234 16.1504 22.0327 16.2133 22.1515 16.2518C22.2702 16.2903 22.3957 16.3033 22.5199 16.2901H35.8298V19.8401C35.8298 20.0761 35.9236 20.3025 36.0905 20.4694C36.2574 20.6363 36.4838 20.7301 36.7198 20.7301C36.9559 20.7301 37.1823 20.6363 37.3492 20.4694C37.5161 20.3025 37.6098 20.0761 37.6098 19.8401V16.2901H51.7999V37.5901H49.1398C49.0157 37.5769 48.8902 37.5899 48.7715 37.6284C48.6527 37.6668 48.5434 37.7298 48.4505 37.8133C48.3577 37.8968 48.2835 37.9988 48.2327 38.1128C48.1819 38.2268 48.1556 38.3503 48.1556 38.4751C48.1556 38.5999 48.1819 38.7234 48.2327 38.8374C48.2835 38.9514 48.3577 39.0534 48.4505 39.1369C48.5434 39.2204 48.6527 39.2834 48.7715 39.3218C48.8902 39.3603 49.0157 39.3733 49.1398 39.3601H52.6998C52.8162 39.3614 52.9318 39.3396 53.0397 39.296C53.1476 39.2524 53.2458 39.1877 53.3286 39.1059C53.4113 39.024 53.4771 38.9266 53.5219 38.8192C53.5668 38.7118 53.5899 38.5965 53.5899 38.4801V15.4001C53.5899 15.164 53.4961 14.9377 53.3292 14.7708C53.1623 14.6039 52.9359 14.5101 52.6998 14.5101V14.5101Z" fill="#464A51"/>
<path d="M45.5698 39.35C45.6939 39.3632 45.8194 39.3502 45.9382 39.3117C46.057 39.2733 46.1663 39.2103 46.2591 39.1268C46.3519 39.0433 46.4262 38.9413 46.477 38.8273C46.5278 38.7133 46.554 38.5898 46.554 38.465C46.554 38.3402 46.5278 38.2167 46.477 38.1027C46.4262 37.9887 46.3519 37.8867 46.2591 37.8032C46.1663 37.7197 46.057 37.6567 45.9382 37.6183C45.8194 37.5798 45.6939 37.5668 45.5698 37.58H37.5698V35.81C37.5698 35.6931 37.5468 35.5774 37.5021 35.4694C37.4573 35.3614 37.3918 35.2633 37.3091 35.1807C37.2265 35.098 37.1284 35.0325 37.0204 34.9878C36.9124 34.943 36.7967 34.92 36.6798 34.92C36.563 34.92 36.4472 34.943 36.3392 34.9878C36.2313 35.0325 36.1332 35.098 36.0505 35.1807C35.9679 35.2633 35.9023 35.3614 35.8576 35.4694C35.8128 35.5774 35.7898 35.6931 35.7898 35.81V37.58H31.2898L30.6798 29.02C31.4584 28.5018 32.0919 27.7938 32.5206 26.9626C32.9493 26.1315 33.159 25.2047 33.1298 24.27C33.1298 21.33 31.1298 18.95 28.6898 18.95C26.2498 18.95 24.2598 21.33 24.2598 24.27C24.2287 25.204 24.4364 26.1304 24.8634 26.9617C25.2904 27.7929 25.9225 28.5014 26.6998 29.02L26.2598 35.24C26.2431 35.3603 26.2514 35.4828 26.2843 35.5998C26.3172 35.7167 26.3739 35.8256 26.4509 35.9195C26.528 36.0134 26.6236 36.0904 26.7318 36.1456C26.8401 36.2007 26.9586 36.2329 27.0798 36.24H27.1498C27.3732 36.2405 27.5884 36.1561 27.7518 36.0038C27.9152 35.8515 28.0146 35.6429 28.0298 35.42L28.4498 29.63H28.9498L29.5098 37.63H20.6998L20.0898 29.07C20.8684 28.5519 21.5019 27.8437 21.9306 27.0126C22.3593 26.1815 22.569 25.2547 22.5398 24.32V19.88C22.5166 19.6615 22.4133 19.4593 22.2499 19.3124C22.0865 19.1655 21.8746 19.0842 21.6548 19.0842C21.4351 19.0842 21.2231 19.1655 21.0597 19.3124C20.8963 19.4593 20.7931 19.6615 20.7698 19.88V23.43H18.9898V19.88C18.9666 19.6615 18.8633 19.4593 18.6999 19.3124C18.5365 19.1655 18.3246 19.0842 18.1048 19.0842C17.8851 19.0842 17.6731 19.1655 17.5097 19.3124C17.3463 19.4593 17.2431 19.6615 17.2198 19.88V23.43H15.3998V19.88C15.3766 19.6615 15.2733 19.4593 15.1099 19.3124C14.9465 19.1655 14.7346 19.0842 14.5148 19.0842C14.2951 19.0842 14.0831 19.1655 13.9197 19.3124C13.7563 19.4593 13.6531 19.6615 13.6298 19.88V24.32C13.5986 25.254 13.8064 26.1804 14.2334 27.0117C14.6604 27.8429 15.2925 28.5514 16.0698 29.07L15.4598 37.63H10.9698V16.33H18.9698C19.094 16.3432 19.2195 16.3302 19.3382 16.2917C19.457 16.2533 19.5663 16.1902 19.6591 16.1068C19.7519 16.0233 19.8262 15.9213 19.877 15.8073C19.9278 15.6933 19.954 15.5698 19.954 15.445C19.954 15.3202 19.9278 15.1967 19.877 15.0827C19.8262 14.9687 19.7519 14.8667 19.6591 14.7832C19.5663 14.6997 19.457 14.6368 19.3382 14.5983C19.2195 14.5598 19.094 14.5468 18.9698 14.56H16.3098V11.9C16.3098 11.664 16.2161 11.4376 16.0491 11.2707C15.8822 11.1038 15.6559 11.01 15.4198 11.01H10.0998C9.86378 11.01 9.63741 11.1038 9.4705 11.2707C9.3036 11.4376 9.20982 11.664 9.20982 11.9V42.07C9.20982 42.1864 9.23291 42.3017 9.27776 42.4091C9.3226 42.5165 9.38832 42.614 9.4711 42.6958C9.55388 42.7777 9.65207 42.8423 9.75999 42.8859C9.86792 42.9295 9.98342 42.9513 10.0998 42.95H15.4198C15.5362 42.9513 15.6517 42.9295 15.7597 42.8859C15.8676 42.8423 15.9658 42.7777 16.0486 42.6958C16.1313 42.614 16.197 42.5165 16.2419 42.4091C16.2867 42.3017 16.3098 42.1864 16.3098 42.07V39.4H34.0598V49.17C34.0572 49.8764 33.7747 50.553 33.2743 51.0515C32.7739 51.5501 32.0962 51.83 31.3898 51.83H4.74983C4.04436 51.83 3.36777 51.5498 2.86893 51.0509C2.37008 50.5521 2.08983 49.8755 2.08983 49.17V26.04C2.06657 25.8215 1.9633 25.6193 1.79991 25.4724C1.63652 25.3255 1.42457 25.2442 1.20483 25.2442C0.985102 25.2442 0.773131 25.3255 0.609741 25.4724C0.446351 25.6193 0.343083 25.8215 0.319824 26.04V49.12C0.319824 50.2949 0.786554 51.4217 1.61734 52.2525C2.44813 53.0833 3.57492 53.55 4.74983 53.55H31.3698C32.5457 53.55 33.6735 53.0836 34.5059 52.2531C35.3382 51.4226 35.8072 50.2958 35.8098 49.12V39.35H45.5698ZM26.0498 24.27C26.0498 22.27 27.2398 20.72 28.7098 20.72C30.1798 20.72 31.3698 22.31 31.3698 24.27C31.3698 26.23 30.1798 27.82 28.7098 27.82C27.2398 27.82 26.0498 26.23 26.0498 24.27ZM20.6398 25.16C20.6618 25.5117 20.6114 25.8641 20.4919 26.1955C20.3724 26.527 20.1863 26.8304 19.9451 27.0872C19.7038 27.344 19.4125 27.5486 19.0891 27.6885C18.7658 27.8284 18.4172 27.9005 18.0648 27.9005C17.7125 27.9005 17.3639 27.8284 17.0405 27.6885C16.7172 27.5486 16.4258 27.344 16.1846 27.0872C15.9433 26.8304 15.7572 26.527 15.6377 26.1955C15.5182 25.8641 15.4679 25.5117 15.4898 25.16H20.6398ZM17.8098 29.58H18.3098L18.8898 37.58H17.2398L17.8098 29.58ZM14.5098 12.73V14.51H10.9698V12.73H14.5098ZM14.5098 41.13H10.9698V39.35H14.5098V41.13Z" fill="#464A51"/>
<path d="M36.7 26.9701C36.936 26.9701 37.1624 26.8763 37.3293 26.7094C37.4962 26.5425 37.59 26.3162 37.59 26.0801V24.2701C37.59 24.1532 37.567 24.0375 37.5223 23.9295C37.4775 23.8216 37.412 23.7235 37.3293 23.6408C37.2467 23.5582 37.1486 23.4926 37.0406 23.4479C36.9326 23.4031 36.8169 23.3801 36.7 23.3801C36.5831 23.3801 36.4674 23.4031 36.3594 23.4479C36.2514 23.4926 36.1533 23.5582 36.0707 23.6408C35.988 23.7235 35.9225 23.8216 35.8777 23.9295C35.833 24.0375 35.81 24.1532 35.81 24.2701V26.0401C35.8046 26.1603 35.8236 26.2804 35.8659 26.393C35.9082 26.5056 35.9729 26.6085 36.0561 26.6955C36.1393 26.7824 36.2392 26.8516 36.3499 26.8988C36.4606 26.946 36.5797 26.9702 36.7 26.9701V26.9701Z" fill="#464A51"/>
<path d="M35.8098 32.2601C35.8098 32.4961 35.9036 32.7225 36.0705 32.8894C36.2374 33.0563 36.4638 33.1501 36.6998 33.1501C36.9359 33.1501 37.1623 33.0563 37.3292 32.8894C37.4961 32.7225 37.5898 32.4961 37.5898 32.2601V29.5901C37.5898 29.354 37.4961 29.1276 37.3292 28.9607C37.1623 28.7938 36.9359 28.7001 36.6998 28.7001C36.4638 28.7001 36.2374 28.7938 36.0705 28.9607C35.9036 29.1276 35.8098 29.354 35.8098 29.5901V32.2601Z" fill="#464A51"/>
<path d="M42.0198 19.8301C41.4913 19.8301 40.9747 19.987 40.5354 20.2808C40.0961 20.5746 39.7539 20.9922 39.5521 21.4807C39.3503 21.9691 39.2981 22.5065 39.4019 23.0247C39.5057 23.5429 39.761 24.0186 40.1354 24.3916C40.5098 24.7646 40.9865 25.0181 41.5051 25.12C42.0237 25.2219 42.5609 25.1676 43.0486 24.964C43.5363 24.7604 43.9526 24.4166 44.2447 23.9762C44.5369 23.5358 44.6918 23.0186 44.6898 22.4901C44.6898 22.1399 44.6207 21.7932 44.4864 21.4699C44.3521 21.1465 44.1553 20.8528 43.9072 20.6057C43.6591 20.3585 43.3647 20.1628 43.0408 20.0297C42.717 19.8966 42.37 19.8288 42.0198 19.8301ZM42.0198 23.3801C41.8438 23.3801 41.6717 23.3279 41.5254 23.2301C41.379 23.1323 41.2649 22.9933 41.1976 22.8307C41.1302 22.6681 41.1126 22.4891 41.147 22.3165C41.1813 22.1438 41.266 21.9853 41.3905 21.8608C41.515 21.7363 41.6736 21.6515 41.8462 21.6172C42.0188 21.5829 42.1978 21.6005 42.3604 21.6679C42.523 21.7352 42.662 21.8493 42.7598 21.9957C42.8576 22.142 42.9098 22.3141 42.9098 22.4901C42.9112 22.6073 42.8891 22.7237 42.8448 22.8323C42.8006 22.9409 42.7351 23.0395 42.6521 23.1224C42.5692 23.2053 42.4706 23.2708 42.362 23.3151C42.2534 23.3593 42.1371 23.3815 42.0198 23.3801V23.3801Z" fill="#464A51"/>
<path d="M47.3499 29.5901C46.8214 29.5881 46.3042 29.743 45.8638 30.0352C45.4234 30.3274 45.0797 30.7437 44.876 31.2314C44.6724 31.7191 44.6181 32.2563 44.72 32.7749C44.8219 33.2934 45.0754 33.7701 45.4484 34.1445C45.8214 34.5189 46.2971 34.7742 46.8153 34.878C47.3335 34.9819 47.8709 34.9296 48.3594 34.7278C48.8478 34.526 49.2654 34.1838 49.5592 33.7445C49.8531 33.3052 50.0099 32.7886 50.0099 32.2601C50.0099 31.5537 49.73 30.8761 49.2315 30.3757C48.7329 29.8752 48.0563 29.5928 47.3499 29.5901V29.5901ZM47.3499 33.1401C47.1731 33.1421 46.9996 33.0913 46.8518 32.9943C46.7039 32.8973 46.5883 32.7584 46.5197 32.5954C46.4511 32.4323 46.4326 32.2525 46.4666 32.079C46.5006 31.9054 46.5856 31.7459 46.7107 31.6208C46.8357 31.4958 46.9952 31.4108 47.1688 31.3768C47.3424 31.3428 47.5221 31.3612 47.6852 31.4298C47.8482 31.4984 47.9871 31.614 48.0841 31.7619C48.1811 31.9098 48.2319 32.0833 48.2299 32.2601C48.2299 32.4935 48.1372 32.7173 47.9722 32.8824C47.8071 33.0474 47.5833 33.1401 47.3499 33.1401Z" fill="#464A51"/>
<path d="M48.5298 22.7201L39.6499 30.7201C39.4731 30.8745 39.3644 31.0925 39.3475 31.3266C39.3307 31.5607 39.407 31.792 39.5598 31.9701C39.716 32.1476 39.9356 32.2565 40.1714 32.2733C40.4072 32.2902 40.6401 32.2136 40.8198 32.0601V32.0601L49.6998 24.0601C49.8766 23.9057 49.9853 23.6878 50.0021 23.4536C50.019 23.2195 49.9427 22.9882 49.7898 22.8101C49.6337 22.6327 49.4141 22.5238 49.1783 22.5069C48.9425 22.4901 48.7096 22.5667 48.5298 22.7201V22.7201Z" fill="#464A51"/>
<path d="M18.0598 11.8501C18.0598 11.9665 18.0829 12.0817 18.1277 12.1892C18.1726 12.2966 18.2383 12.3941 18.3211 12.4759C18.4039 12.5578 18.5021 12.6223 18.61 12.666C18.7179 12.7096 18.8334 12.7314 18.9498 12.7301H26.9498C27.0739 12.7433 27.1994 12.7303 27.3182 12.6918C27.4369 12.6533 27.5463 12.5904 27.6391 12.5069C27.7319 12.4234 27.8061 12.3214 27.8569 12.2074C27.9078 12.0933 27.934 11.9699 27.934 11.8451C27.934 11.7203 27.9078 11.5968 27.8569 11.4828C27.8061 11.3688 27.7319 11.2667 27.6391 11.1833C27.5463 11.0998 27.4369 11.0368 27.3182 10.9984C27.1994 10.9599 27.0739 10.9469 26.9498 10.9601H18.9498C18.7138 10.9601 18.4874 11.0538 18.3205 11.2208C18.1536 11.3877 18.0598 11.614 18.0598 11.8501V11.8501Z" fill="#464A51"/>
<path d="M27.83 9.18002C28.0485 9.15676 28.2506 9.05349 28.3976 8.8901C28.5445 8.72671 28.6257 8.51477 28.6257 8.29504C28.6257 8.07531 28.5445 7.86334 28.3976 7.69995C28.2506 7.53656 28.0485 7.43329 27.83 7.41003H23.39C23.2658 7.39682 23.1403 7.40985 23.0216 7.4483C22.9028 7.48676 22.7935 7.54978 22.7007 7.63324C22.6079 7.7167 22.5336 7.81875 22.4828 7.93277C22.432 8.04678 22.4058 8.17022 22.4058 8.29504C22.4058 8.41987 22.432 8.54327 22.4828 8.65729C22.5336 8.7713 22.6079 8.87335 22.7007 8.95682C22.7935 9.04028 22.9028 9.1033 23.0216 9.14175C23.1403 9.18021 23.2658 9.19323 23.39 9.18002H27.83Z" fill="#464A51"/>
<path d="M28.6998 42.02C28.7011 41.9036 28.6793 41.7881 28.6357 41.6802C28.592 41.5723 28.5274 41.474 28.4456 41.3913C28.3637 41.3085 28.2663 41.2428 28.1588 41.1979C28.0514 41.1531 27.9362 41.13 27.8198 41.13H18.9398C18.8157 41.1168 18.6901 41.1298 18.5714 41.1683C18.4526 41.2067 18.3433 41.2697 18.2505 41.3532C18.1577 41.4367 18.0834 41.5387 18.0326 41.6527C17.9818 41.7668 17.9556 41.8902 17.9556 42.015C17.9556 42.1398 17.9818 42.2632 18.0326 42.3773C18.0834 42.4913 18.1577 42.5933 18.2505 42.6768C18.3433 42.7602 18.4526 42.8233 18.5714 42.8617C18.6901 42.9002 18.8157 42.9132 18.9398 42.9H27.8198C27.9357 42.9013 28.0507 42.8795 28.1581 42.8358C28.2655 42.792 28.363 42.7272 28.445 42.6452C28.527 42.5632 28.5917 42.4657 28.6355 42.3583C28.6792 42.251 28.7011 42.1359 28.6998 42.02Z" fill="#464A51"/>
<path d="M10.0799 44.68C9.95579 44.6668 9.83027 44.6799 9.71152 44.7183C9.59276 44.7568 9.48343 44.8198 9.39061 44.9033C9.29779 44.9867 9.22357 45.0888 9.17276 45.2028C9.12195 45.3168 9.0957 45.4402 9.0957 45.5651C9.0957 45.6899 9.12195 45.8133 9.17276 45.9273C9.22357 46.0413 9.29779 46.1434 9.39061 46.2269C9.48343 46.3103 9.59276 46.3733 9.71152 46.4118C9.83027 46.4502 9.95579 46.4633 10.0799 46.4501H26.0799C26.204 46.4633 26.3295 46.4502 26.4483 46.4118C26.567 46.3733 26.6764 46.3103 26.7692 46.2269C26.862 46.1434 26.9362 46.0413 26.987 45.9273C27.0379 45.8133 27.0641 45.6899 27.0641 45.5651C27.0641 45.4402 27.0379 45.3168 26.987 45.2028C26.9362 45.0888 26.862 44.9867 26.7692 44.9033C26.6764 44.8198 26.567 44.7568 26.4483 44.7183C26.3295 44.6799 26.204 44.6668 26.0799 44.68H10.0799Z" fill="#464A51"/>
<path d="M50.8999 46.4501H49.1199V42.0201C49.1199 41.7841 49.0262 41.5577 48.8593 41.3908C48.6924 41.2239 48.466 41.1301 48.2299 41.1301H41.1399C40.9039 41.1301 40.6775 41.2239 40.5106 41.3908C40.3437 41.5577 40.2499 41.7841 40.2499 42.0201V46.4501H38.4699C38.3535 46.4501 38.2383 46.4732 38.1308 46.5181C38.0234 46.5629 37.926 46.6286 37.8441 46.7114C37.7623 46.7942 37.6977 46.8924 37.654 47.0003C37.6104 47.1082 37.5886 47.2237 37.59 47.3401C37.5879 47.4679 37.6147 47.5945 37.6684 47.7105C37.7221 47.8265 37.8012 47.9289 37.8999 48.0101L44.1099 53.3401C44.2707 53.4762 44.4744 53.5508 44.6849 53.5508C44.8955 53.5508 45.0992 53.4762 45.2599 53.3401L51.4699 48.0101C51.6482 47.8571 51.7587 47.6399 51.7775 47.4057C51.7962 47.1716 51.7216 46.9395 51.5699 46.7601C51.4857 46.665 51.3827 46.5883 51.2674 46.535C51.1521 46.4816 51.027 46.4527 50.8999 46.4501V46.4501ZM44.6899 51.4501L40.8699 48.1801H41.1399C41.2563 48.1801 41.3716 48.157 41.479 48.1122C41.5864 48.0673 41.6839 48.0016 41.7658 47.9189C41.8476 47.8361 41.9122 47.7379 41.9559 47.6299C41.9995 47.522 42.0213 47.4065 42.0199 47.2901V42.8501H47.3499V47.2901C47.3486 47.4065 47.3704 47.522 47.414 47.6299C47.4576 47.7379 47.5223 47.8361 47.6041 47.9189C47.686 48.0016 47.7834 48.0673 47.8909 48.1122C47.9983 48.157 48.1135 48.1801 48.2299 48.1801H48.4999L44.6899 51.4501Z" fill="#464A51"/>
<path d="M44.1099 12.5201C44.2706 12.6561 44.4743 12.7307 44.6849 12.7307C44.8955 12.7307 45.0992 12.6561 45.2599 12.5201L51.4699 7.20007C51.6488 7.04533 51.7596 6.82637 51.7783 6.59058C51.797 6.35478 51.7222 6.12109 51.5699 5.94006C51.4852 5.84627 51.3819 5.77116 51.2665 5.71951C51.1512 5.66786 51.0263 5.64081 50.8999 5.64008H49.1199V4.75006C49.1331 4.62594 49.1201 4.50044 49.0816 4.38168C49.0432 4.26293 48.9802 4.15358 48.8967 4.06076C48.8133 3.96794 48.7112 3.89373 48.5972 3.84293C48.4832 3.79212 48.3597 3.76587 48.2349 3.76587C48.1101 3.76587 47.9867 3.79212 47.8726 3.84293C47.7586 3.89373 47.6566 3.96794 47.5731 4.06076C47.4897 4.15358 47.4267 4.26293 47.3882 4.38168C47.3498 4.50044 47.3367 4.62594 47.3499 4.75006V6.52005C47.3486 6.63645 47.3704 6.75197 47.414 6.85989C47.4576 6.96782 47.5222 7.06603 47.6041 7.1488C47.6859 7.23158 47.7834 7.29728 47.8908 7.34213C47.9983 7.38698 48.1135 7.41007 48.2299 7.41006H48.4999L44.6999 10.6801L40.8799 7.41006H41.1499C41.2663 7.41007 41.3816 7.38698 41.489 7.34213C41.5964 7.29728 41.6939 7.23158 41.7757 7.1488C41.8576 7.06603 41.9222 6.96782 41.9658 6.85989C42.0094 6.75197 42.0312 6.63645 42.0299 6.52005V2.09006H48.2399C48.3568 2.09006 48.4725 2.06704 48.5805 2.02231C48.6885 1.97758 48.7866 1.91202 48.8692 1.82938C48.9519 1.74673 49.0174 1.64863 49.0622 1.54065C49.1069 1.43267 49.1299 1.31695 49.1299 1.20007C49.1299 1.0832 49.1069 0.967446 49.0622 0.859467C49.0174 0.751487 48.9519 0.653384 48.8692 0.57074C48.7866 0.488096 48.6885 0.422534 48.5805 0.377808C48.4725 0.333081 48.3568 0.310059 48.2399 0.310059H41.1499C40.9139 0.310059 40.6875 0.403832 40.5206 0.57074C40.3537 0.737647 40.2599 0.964031 40.2599 1.20007V5.64008H38.4799C38.364 5.63874 38.2489 5.66057 38.1416 5.70432C38.0342 5.74806 37.9367 5.81285 37.8547 5.89484C37.7727 5.97682 37.7079 6.07436 37.6642 6.18173C37.6204 6.2891 37.5986 6.40411 37.5999 6.52005C37.5992 6.64909 37.6266 6.77675 37.6801 6.89417C37.7336 7.01158 37.812 7.11598 37.9099 7.20007L44.1099 12.5201Z" fill="#464A51"/>
</svg>
