<svg width="54" height="50" viewBox="0 0 54 50" fill="none" xmlns="http://www.w3.org/2000/svg">
<path d="M49.46 15.29H5.09003C3.12942 15.29 1.54004 16.8794 1.54004 18.84V45.4601C1.54004 47.4207 3.12942 49.0101 5.09003 49.0101H49.46C51.4207 49.0101 53.01 47.4207 53.01 45.4601V18.84C53.01 16.8794 51.4207 15.29 49.46 15.29Z" fill="#E7F0F1"/>
<path d="M53.01 39.24V45.45C53.01 45.9162 52.9182 46.3779 52.7398 46.8086C52.5614 47.2393 52.2999 47.6306 51.9703 47.9603C51.6406 48.2899 51.2493 48.5514 50.8186 48.7298C50.3879 48.9082 49.9262 49 49.46 49H5.10005C4.15853 49 3.25558 48.626 2.58982 47.9603C1.92407 47.2945 1.55005 46.3916 1.55005 45.45V18.83C1.55005 17.8885 1.92407 16.9855 2.58982 16.3198C3.25558 15.654 4.15853 15.28 5.10005 15.28H11.3101V35.69C11.3101 36.6316 11.6841 37.5345 12.3498 38.2003C13.0156 38.866 13.9185 39.24 14.8601 39.24H53.01Z" fill="#CFD7D9"/>
<path d="M5.1001 18.83H45.9101V45.45H5.1001V18.83Z" fill="#85D0F2"/>
<path d="M5.1001 18.83V45.45H45.9101V18.83H5.1001ZM43.2501 39.24H27.2501C23.0066 39.24 18.937 37.5543 15.9364 34.5537C12.9358 31.5531 11.2501 27.4834 11.2501 23.24V21.46H39.7001C40.6416 21.46 41.5446 21.834 42.2103 22.4998C42.8761 23.1655 43.2501 24.0685 43.2501 25.01V39.24Z" fill="#59B5E7"/>
<path d="M29.93 11.73H21.08C20.0701 11.7311 19.0907 12.0765 18.3035 12.7092C17.5163 13.3418 16.9683 14.2239 16.75 15.21L13.97 27.71H37.04L34.26 15.21C34.0416 14.2239 33.4936 13.3418 32.7064 12.7092C31.9192 12.0765 30.9399 11.7311 29.93 11.73V11.73Z" fill="#E94D8C"/>
<path d="M37.04 27.71H13.97L16.75 15.21C16.9683 14.2239 17.5163 13.3418 18.3035 12.7092C19.0907 12.0765 20.0701 11.7311 21.08 11.73H29.93H30.33C31.2662 11.8187 32.1503 12.2011 32.8562 12.8225C33.562 13.4439 34.0533 14.2726 34.26 15.19L34.98 18.42C34.8466 18.4732 34.7034 18.497 34.56 18.49C34.3283 18.4903 34.0994 18.4391 33.89 18.34C33.6184 18.2213 33.3191 18.1809 33.0257 18.2233C32.7324 18.2657 32.4568 18.3892 32.23 18.58L31.68 19.02C31.4297 19.2153 31.1249 19.3279 30.8077 19.3423C30.4906 19.3566 30.1769 19.2719 29.91 19.1L29 18.48C28.7515 18.3182 28.4614 18.232 28.165 18.232C27.8685 18.232 27.5784 18.3182 27.33 18.48L26.33 19.15C26.0815 19.3118 25.7914 19.3979 25.495 19.3979C25.1985 19.3979 24.9084 19.3118 24.66 19.15L23.66 18.48C23.4115 18.3182 23.1215 18.232 22.825 18.232C22.5285 18.232 22.2384 18.3182 21.99 18.48L21.07 19.1C20.8647 19.2336 20.6299 19.3152 20.386 19.3379C20.1421 19.3605 19.8964 19.3235 19.67 19.23L19.58 19.63C19.327 20.7797 19.5409 21.9828 20.1747 22.9748C20.8086 23.9668 21.8104 24.6664 22.96 24.92C23.272 24.9883 23.5906 25.0218 23.91 25.02H36.43L37.04 27.71Z" fill="#D50264"/>
<path d="M12.1899 27.71H38.8199V28.59C38.8173 29.2973 38.5352 29.9749 38.035 30.475C37.5349 30.9752 36.8573 31.2573 36.1499 31.26H14.8599C14.1526 31.2573 13.475 30.9752 12.9749 30.475C12.4747 29.9749 12.1926 29.2973 12.1899 28.59V27.71Z" fill="#E7F0F1"/>
<path d="M17.52 31.26H33.52V34.81H17.52V31.26Z" fill="#CFD7D9"/>
<path d="M36 14.82C35.6892 13.4416 34.9192 12.2098 33.8163 11.3267C32.7133 10.4436 31.3429 9.96166 29.93 9.95996H21.08C19.667 9.96166 18.2966 10.4436 17.1937 11.3267C16.0907 12.2098 15.3207 13.4416 15.01 14.82V14.91C14.9498 15.185 14.9683 15.4714 15.0633 15.7365C15.1583 16.0015 15.326 16.2344 15.5471 16.4087C15.7683 16.5829 16.034 16.6914 16.3139 16.7216C16.5939 16.7519 16.8766 16.7028 17.13 16.58C17.3852 16.458 17.6696 16.4102 17.9508 16.442C18.2319 16.4739 18.4984 16.584 18.72 16.76L19.34 17.26C19.5883 17.4595 19.8937 17.5749 20.2119 17.5892C20.5301 17.6036 20.8447 17.5163 21.11 17.34L22.03 16.72C22.2769 16.559 22.5652 16.4734 22.86 16.4734C23.1547 16.4734 23.443 16.559 23.69 16.72L24.69 17.39C24.9369 17.5509 25.2252 17.6366 25.52 17.6366C25.8147 17.6366 26.103 17.5509 26.35 17.39L27.35 16.72C27.5969 16.559 27.8852 16.4734 28.18 16.4734C28.4747 16.4734 28.763 16.559 29.01 16.72L29.93 17.34C30.1952 17.5163 30.5098 17.6036 30.828 17.5892C31.1463 17.5749 31.4517 17.4595 31.7 17.26L32.32 16.76C32.5415 16.584 32.808 16.4739 33.0891 16.442C33.3703 16.4102 33.6547 16.458 33.91 16.58C34.1633 16.7028 34.4461 16.7519 34.726 16.7216C35.0059 16.6914 35.2716 16.5829 35.4928 16.4087C35.7139 16.2344 35.8816 16.0015 35.9766 15.7365C36.0716 15.4714 36.0901 15.185 36.03 14.91L36 14.82Z" fill="#F29A8D"/>
<path d="M25.5001 9.96002C26.9692 9.96002 28.1601 8.7691 28.1601 7.30002C28.1601 5.83094 26.9692 4.64001 25.5001 4.64001C24.031 4.64001 22.8401 5.83094 22.8401 7.30002C22.8401 8.7691 24.031 9.96002 25.5001 9.96002Z" fill="#EB6652"/>
<path d="M38.6999 29.37C38.5344 29.9172 38.197 30.3966 37.7377 30.737C37.2784 31.0774 36.7217 31.2608 36.1499 31.26H14.8599C14.1526 31.2573 13.475 30.9752 12.9749 30.475C12.4747 29.9749 12.1926 29.2973 12.1899 28.59V27.71H14.1299C14.3096 28.2291 14.6473 28.679 15.0957 28.9965C15.544 29.3139 16.0806 29.483 16.6299 29.48H37.9299C38.1904 29.4784 38.4495 29.4414 38.6999 29.37V29.37Z" fill="#CFD7D9"/>
<path d="M33.49 31.26V33.03H21.07C20.5987 33.0326 20.1475 33.221 19.8143 33.5543C19.481 33.8875 19.2926 34.3387 19.29 34.81H17.52V31.26H33.49Z" fill="#939999"/>
<path d="M34.5601 16.7401C34.3315 16.7413 34.1057 16.69 33.9001 16.5901C33.646 16.4633 33.3606 16.4128 33.0785 16.4448C32.7963 16.4767 32.5294 16.5897 32.3101 16.7701L31.6801 17.2601C31.4318 17.4596 31.1264 17.5749 30.8082 17.5893C30.49 17.6037 30.1754 17.5164 29.9101 17.3401L29.0001 16.7201C28.7517 16.5583 28.4616 16.4721 28.1651 16.4721C27.8686 16.4721 27.5786 16.5583 27.3301 16.7201L26.3301 17.4001C26.08 17.5572 25.7905 17.6405 25.4951 17.6405C25.1997 17.6405 24.9103 17.5572 24.6601 17.4001L23.6601 16.7201C23.4117 16.5583 23.1216 16.4721 22.8251 16.4721C22.5286 16.4721 22.2385 16.5583 21.9901 16.7201L21.0701 17.3401C20.8064 17.5156 20.4935 17.6024 20.177 17.588C19.8605 17.5737 19.5569 17.4588 19.3101 17.2601L18.6801 16.7701C18.4191 16.5532 18.0895 16.4362 17.7501 16.4401C17.5215 16.4388 17.2957 16.4901 17.0901 16.5901C16.913 16.6765 16.7205 16.7271 16.5238 16.7386C16.3271 16.7502 16.13 16.7227 15.944 16.6576C15.758 16.5925 15.5867 16.4911 15.4402 16.3593C15.2936 16.2276 15.1746 16.0681 15.0901 15.8901C14.9344 15.581 14.892 15.2272 14.9701 14.8901V14.7901C15.1816 13.8353 15.6163 12.9442 16.2386 12.1898C16.8608 11.4355 17.653 10.8393 18.5501 10.4501C18.8571 11.5755 19.5255 12.5689 20.4525 13.2772C21.3794 13.9855 22.5135 14.3695 23.6801 14.3701H35.8301C35.8301 14.5101 35.9101 14.6501 35.9401 14.7901V14.8901C36.0202 15.2824 35.9422 15.6904 35.7231 16.0256C35.5041 16.3608 35.1616 16.5959 34.7701 16.6801C34.7018 16.7057 34.6316 16.7257 34.5601 16.7401V16.7401Z" fill="#EB6652"/>
<path d="M26.23 9.96997C26.048 10.4877 25.7097 10.9362 25.2619 11.2534C24.8141 11.5707 24.2788 11.7411 23.73 11.7411C23.1812 11.7411 22.6459 11.5707 22.1981 11.2534C21.7503 10.9362 21.412 10.4877 21.23 9.96997H26.23Z" fill="#EB6652"/>
<path d="M28.1499 7.51007C28.0909 8.19141 27.7717 8.82381 27.2586 9.276C26.7456 9.72819 26.0781 9.96541 25.3947 9.93839C24.7114 9.91136 24.0647 9.62218 23.5889 9.13089C23.1132 8.6396 22.845 7.98392 22.8399 7.30005C22.8371 6.92057 22.917 6.54506 23.0742 6.19965C23.2314 5.85423 23.462 5.54722 23.7499 5.30005C23.7401 5.3697 23.7401 5.44042 23.7499 5.51007C23.7473 5.85844 23.8136 6.20388 23.9451 6.52649C24.0766 6.8491 24.2706 7.1425 24.516 7.38977C24.7615 7.63704 25.0534 7.83327 25.375 7.96719C25.6966 8.10111 26.0415 8.17008 26.3899 8.17007C27.0384 8.17726 27.6661 7.94186 28.1499 7.51007V7.51007Z" fill="#CC5244"/>
<path d="M34.3801 41.9C37.3182 41.9 39.7001 39.5182 39.7001 36.58C39.7001 33.6419 37.3182 31.26 34.3801 31.26C31.4419 31.26 29.0601 33.6419 29.0601 36.58C29.0601 39.5182 31.4419 41.9 34.3801 41.9Z" fill="#F29A8D"/>
<path d="M39.2301 38.77C38.8844 39.5652 38.3496 40.2638 37.6722 40.805C36.9949 41.3463 36.1955 41.7137 35.3437 41.8755C34.4918 42.0372 33.6134 41.9883 32.7848 41.733C31.9562 41.4777 31.2025 41.0238 30.5894 40.4107C29.9764 39.7976 29.5224 39.0439 29.2671 38.2153C29.0118 37.3867 28.9629 36.5083 29.1246 35.6565C29.2864 34.8046 29.6539 34.0053 30.1951 33.3279C30.7363 32.6506 31.4349 32.1157 32.2301 31.77C31.8043 32.7494 31.6831 33.8344 31.8823 34.8836C32.0815 35.9328 32.5919 36.8978 33.3471 37.653C34.1023 38.4082 35.0673 38.9186 36.1165 39.1178C37.1658 39.317 38.2507 39.1958 39.2301 38.77Z" fill="#EB6652"/>
<path d="M49.4599 14.3999H39.5899C39.3714 14.4232 39.1693 14.5264 39.0224 14.6898C38.8754 14.8532 38.7941 15.0652 38.7941 15.2849C38.7941 15.5047 38.8754 15.7166 39.0224 15.88C39.1693 16.0434 39.3714 16.1467 39.5899 16.1699H49.4599C50.1663 16.1699 50.844 16.4498 51.3444 16.9484C51.8448 17.447 52.1273 18.1235 52.1299 18.8299V45.4499C52.1273 46.1572 51.8452 46.8348 51.345 47.335C50.8448 47.8351 50.1672 48.1173 49.4599 48.1199H29.0499C28.8314 48.1432 28.6293 48.2464 28.4823 48.4098C28.3354 48.5732 28.2542 48.7852 28.2542 49.0049C28.2542 49.2247 28.3354 49.4366 28.4823 49.6C28.6293 49.7634 28.8314 49.8667 29.0499 49.8899H49.4599C50.6375 49.8899 51.7668 49.4222 52.5995 48.5895C53.4321 47.7568 53.8999 46.6275 53.8999 45.4499V18.8299C53.8999 18.2473 53.785 17.6705 53.5618 17.1323C53.3385 16.5942 53.0113 16.1054 52.5989 15.6939C52.1865 15.2824 51.6969 14.9563 51.1583 14.7343C50.6197 14.5122 50.0425 14.3986 49.4599 14.3999V14.3999Z" fill="#464A51"/>
<path d="M25.4999 48.12H5.09991C4.3926 48.1173 3.715 47.8352 3.21485 47.335C2.7147 46.8349 2.43255 46.1573 2.42992 45.45V18.83C2.43256 18.1236 2.71503 17.447 3.21546 16.9485C3.7159 16.4499 4.39352 16.17 5.09991 16.17H14.2699C14.4666 16.6873 14.8578 17.1072 15.3599 17.34L13.7899 24.41C13.7391 24.6393 13.781 24.8794 13.9065 25.078C14.032 25.2766 14.231 25.4175 14.4599 25.47V25.47H14.6499C14.8513 25.4678 15.046 25.3974 15.2022 25.2703C15.3585 25.1431 15.4669 24.9667 15.5099 24.77L17.1399 17.48L17.4899 17.37C17.5937 17.3188 17.71 17.2982 17.8251 17.3106C17.9402 17.3229 18.0494 17.3678 18.1399 17.44L18.7599 17.94C19.1541 18.2574 19.6396 18.4403 20.1452 18.4619C20.6508 18.4834 21.1501 18.3426 21.5699 18.06L22.4899 17.45C22.5899 17.3812 22.7085 17.3443 22.8299 17.3443C22.9513 17.3443 23.0699 17.3812 23.1699 17.45L24.1699 18.11C24.5614 18.374 25.0228 18.515 25.4949 18.515C25.9671 18.515 26.4284 18.374 26.8199 18.11L27.8199 17.45C27.9184 17.382 28.0353 17.3456 28.1549 17.3456C28.2746 17.3456 28.3914 17.382 28.4899 17.45L29.4099 18.06C29.8318 18.3419 30.3325 18.4823 30.8395 18.4607C31.3465 18.4392 31.8335 18.2568 32.2299 17.94L32.8499 17.44C32.9393 17.3655 33.0487 17.3192 33.1643 17.3067C33.28 17.2943 33.3967 17.3163 33.4999 17.37L33.8499 17.48L35.9199 26.8H31.5999L30.8199 21.35C30.7763 21.126 30.6484 20.9274 30.4625 20.795C30.2766 20.6627 30.047 20.6068 29.8212 20.6389C29.5953 20.671 29.3903 20.7886 29.2487 20.9675C29.107 21.1463 29.0394 21.3727 29.0599 21.6L29.8099 26.8H21.1999L21.9499 21.6C21.9704 21.3727 21.9028 21.1463 21.7612 20.9675C21.6195 20.7886 21.4146 20.671 21.1887 20.6389C20.9628 20.6068 20.7332 20.6627 20.5473 20.795C20.3615 20.9274 20.2335 21.126 20.1899 21.35L19.4099 26.8H12.1899C12.0735 26.8 11.9582 26.823 11.8508 26.8679C11.7434 26.9127 11.6459 26.9785 11.5641 27.0613C11.4822 27.144 11.4176 27.2422 11.374 27.3501C11.3304 27.4581 11.3086 27.5736 11.3099 27.69V28.57C11.3099 29.5115 11.6839 30.4144 12.3497 31.0802C13.0154 31.746 13.9184 32.12 14.8599 32.12H16.6299V34.79C16.6299 34.9064 16.653 35.0216 16.6978 35.1291C16.7427 35.2365 16.8084 35.334 16.8912 35.4158C16.974 35.4977 17.0722 35.5622 17.1801 35.6059C17.288 35.6495 17.4035 35.6713 17.5199 35.67H25.8099C25.934 35.6832 26.0596 35.6701 26.1783 35.6317C26.2971 35.5932 26.4064 35.5302 26.4992 35.4468C26.592 35.3633 26.6662 35.2613 26.717 35.1473C26.7679 35.0332 26.7941 34.9098 26.7941 34.785C26.7941 34.6602 26.7679 34.5367 26.717 34.4227C26.6662 34.3087 26.592 34.2066 26.4992 34.1232C26.4064 34.0397 26.2971 33.9767 26.1783 33.9383C26.0596 33.8998 25.934 33.8868 25.8099 33.9H18.4099V32.12H30.0399C29.1604 32.9774 28.5549 34.0764 28.3 35.278C28.0452 36.4796 28.1524 37.7298 28.6081 38.8704C29.0638 40.0111 29.8475 40.991 30.8602 41.6862C31.8728 42.3814 33.0689 42.7607 34.2971 42.7761C35.5253 42.7915 36.7305 42.4423 37.7603 41.7726C38.79 41.103 39.598 40.1431 40.0822 39.0142C40.5663 37.8853 40.7048 36.6382 40.4801 35.4306C40.2554 34.223 39.6777 33.1092 38.8199 32.23C38.5845 31.9833 38.3267 31.759 38.0499 31.56C38.5575 31.2417 38.9755 30.7991 39.2642 30.2741C39.553 29.7491 39.7029 29.1591 39.6999 28.56V27.68C39.7012 27.5636 39.6795 27.4481 39.6358 27.3402C39.5922 27.2322 39.5276 27.134 39.4457 27.0512C39.3639 26.9685 39.2664 26.9028 39.159 26.8579C39.0516 26.8131 38.9363 26.79 38.8199 26.79H37.7499L36.1699 19.69H45.0299V44.57H5.97991V19.72H12.3899C12.514 19.7332 12.6395 19.7201 12.7583 19.6817C12.8771 19.6432 12.9864 19.5802 13.0792 19.4968C13.172 19.4133 13.2462 19.3113 13.2971 19.1972C13.3479 19.0832 13.3741 18.9598 13.3741 18.835C13.3741 18.7101 13.3479 18.5867 13.2971 18.4727C13.2462 18.3587 13.172 18.2567 13.0792 18.1732C12.9864 18.0897 12.8771 18.0267 12.7583 17.9883C12.6395 17.9498 12.514 17.9368 12.3899 17.95H5.09991C4.98351 17.9487 4.868 17.9704 4.76008 18.0141C4.65215 18.0577 4.55396 18.1223 4.47118 18.2042C4.38841 18.286 4.32269 18.3835 4.27784 18.4909C4.23299 18.5983 4.20991 18.7136 4.20992 18.83V45.45C4.20992 45.686 4.30368 45.9124 4.47059 46.0793C4.6375 46.2462 4.86387 46.34 5.09991 46.34H45.9099C46.146 46.34 46.3723 46.2462 46.5392 46.0793C46.7061 45.9124 46.7999 45.686 46.7999 45.45V18.83C46.7999 18.7136 46.7768 18.5983 46.732 18.4909C46.6871 18.3835 46.6214 18.286 46.5386 18.2042C46.4559 18.1223 46.3577 18.0577 46.2497 18.0141C46.1418 17.9704 46.0263 17.9487 45.9099 17.95H35.7799L35.6499 17.34C35.7821 17.2728 35.9091 17.1959 36.0299 17.11C36.3864 16.8355 36.6561 16.464 36.8069 16.0401C36.9576 15.6163 36.983 15.1579 36.8799 14.72V14.63C36.5346 13.0505 35.6584 11.6371 34.3974 10.6254C33.1364 9.61366 31.5666 9.06469 29.9499 9.06998H28.5799C28.8153 8.67477 28.9704 8.23704 29.0364 7.78183C29.1025 7.32663 29.0781 6.86288 28.9648 6.41709C28.8515 5.97129 28.6515 5.5522 28.3761 5.18378C28.1007 4.81536 27.7554 4.50484 27.3599 4.26996C27.1009 4.11965 26.8259 3.9989 26.5399 3.90998C26.6755 3.44675 26.9208 3.02305 27.255 2.67487C27.5893 2.32669 28.0026 2.06431 28.4599 1.90998C28.5709 1.87321 28.6735 1.81494 28.762 1.7385C28.8504 1.66206 28.9229 1.56895 28.9754 1.46448C29.0279 1.36002 29.0592 1.24623 29.0677 1.12964C29.0762 1.01305 29.0617 0.895945 29.0249 0.784978C28.9881 0.674011 28.9299 0.571363 28.8534 0.482915C28.777 0.394466 28.6839 0.32194 28.5794 0.269475C28.475 0.21701 28.3612 0.185653 28.2446 0.177159C28.128 0.168665 28.0109 0.183205 27.8999 0.219975C27.1025 0.488082 26.3902 0.962307 25.8352 1.59455C25.2803 2.22679 24.9024 2.99456 24.7399 3.81998C23.9002 4.02318 23.1633 4.52565 22.6675 5.23322C22.1717 5.94079 21.951 6.80488 22.0467 7.66355C22.1423 8.52222 22.5479 9.31652 23.1873 9.89759C23.8267 10.4787 24.656 10.8066 25.5199 10.82H29.9499C31.1635 10.8131 32.3425 11.2237 33.2893 11.983C34.2361 12.7422 34.893 13.8039 35.1499 14.99V15.08C35.1743 15.192 35.1666 15.3087 35.1277 15.4166C35.0888 15.5245 35.0202 15.6193 34.9299 15.69C34.8399 15.7591 34.7326 15.8022 34.6197 15.8145C34.5069 15.8269 34.3928 15.808 34.2899 15.76C33.884 15.5591 33.4291 15.4787 32.979 15.5283C32.5288 15.5779 32.1023 15.7555 31.7499 16.04L31.1299 16.54C31.0248 16.6149 30.899 16.6552 30.7699 16.6552C30.6409 16.6552 30.515 16.6149 30.4099 16.54L29.4899 15.92C29.0985 15.6607 28.6394 15.5224 28.1699 15.5224C27.7004 15.5224 27.2413 15.6607 26.8499 15.92L25.8499 16.59C25.7499 16.6588 25.6313 16.6956 25.5099 16.6956C25.3885 16.6956 25.2699 16.6588 25.1699 16.59L24.1699 15.92C23.7765 15.6611 23.3159 15.523 22.8449 15.523C22.3739 15.523 21.9133 15.6611 21.5199 15.92L20.5999 16.54C20.4948 16.6149 20.369 16.6552 20.2399 16.6552C20.1108 16.6552 19.985 16.6149 19.8799 16.54L19.2599 16.04C18.9069 15.7608 18.4825 15.5864 18.0351 15.5369C17.5877 15.4874 17.1354 15.5647 16.7299 15.76C16.6253 15.8078 16.5097 15.8266 16.3953 15.8142C16.2809 15.8019 16.172 15.759 16.0799 15.69C16.0154 15.6375 15.9626 15.5721 15.9247 15.4981C15.8869 15.4241 15.8648 15.343 15.8599 15.26V15.26C15.8496 15.2038 15.8496 15.1462 15.8599 15.09V15C16.1 13.8982 16.6852 12.9018 17.5304 12.1554C18.3757 11.4091 19.4369 10.9518 20.5599 10.85C20.6794 10.8403 20.7957 10.8062 20.9016 10.7499C21.0075 10.6936 21.1008 10.6163 21.1757 10.5226C21.2506 10.429 21.3056 10.321 21.3373 10.2053C21.369 10.0897 21.3767 9.96873 21.3599 9.84998C21.3501 9.73011 21.316 9.61347 21.2599 9.50712C21.2037 9.40076 21.1265 9.30688 21.0331 9.23118C20.9396 9.15547 20.8318 9.09952 20.7161 9.06666C20.6004 9.03379 20.4792 9.02471 20.3599 9.03998C18.9038 9.17283 17.5247 9.75383 16.4126 10.703C15.3004 11.6522 14.5099 12.9228 14.1499 14.34H5.09991C4.51732 14.3387 3.94019 14.4523 3.40156 14.6743C2.86293 14.8964 2.37338 15.2225 1.96096 15.6339C1.54854 16.0454 1.22133 16.5342 0.998077 17.0724C0.774824 17.6105 0.659911 18.1874 0.659912 18.77V45.39C0.659912 46.5675 1.1277 47.6969 1.96036 48.5295C2.79302 49.3622 3.92235 49.83 5.09991 49.83H25.4999C25.624 49.8432 25.7495 49.8301 25.8683 49.7917C25.987 49.7532 26.0964 49.6902 26.1892 49.6068C26.282 49.5233 26.3562 49.4213 26.4071 49.3073C26.4579 49.1932 26.4841 49.0698 26.4841 48.945C26.4841 48.8202 26.4579 48.6967 26.4071 48.5827C26.3562 48.4687 26.282 48.3666 26.1892 48.2832C26.0964 48.1997 25.987 48.1367 25.8683 48.0983C25.7495 48.0598 25.624 48.0468 25.4999 48.06V48.12ZM38.8199 36.58C38.8199 37.4581 38.5595 38.3165 38.0716 39.0467C37.5838 39.7768 36.8903 40.346 36.079 40.682C35.2677 41.0181 34.375 41.106 33.5137 40.9347C32.6524 40.7633 31.8613 40.3405 31.2404 39.7195C30.6194 39.0986 30.1965 38.3074 30.0252 37.4462C29.8539 36.5849 29.9418 35.6922 30.2779 34.8809C30.6139 34.0696 31.183 33.3761 31.9132 32.8882C32.6433 32.4004 33.5018 32.14 34.3799 32.14C34.963 32.14 35.5403 32.2548 36.079 32.4779C36.6177 32.7011 37.1072 33.0281 37.5195 33.4404C37.9318 33.8527 38.2588 34.3422 38.4819 34.8809C38.7051 35.4195 38.8199 35.9969 38.8199 36.58V36.58ZM36.1499 30.37H14.8599C14.3878 30.37 13.9351 30.1825 13.6013 29.8486C13.2675 29.5148 13.0799 29.0621 13.0799 28.59H37.9299C37.9299 29.0621 37.7424 29.5148 37.4086 29.8486C37.0747 30.1825 36.622 30.37 36.1499 30.37V30.37ZM23.6999 7.29996C23.6992 6.98143 23.7854 6.66875 23.9493 6.3956C24.1132 6.12246 24.3485 5.89923 24.6299 5.74997C24.6845 5.96347 24.8182 6.14827 25.0038 6.26706C25.1894 6.38586 25.4132 6.4298 25.6299 6.38999C25.7854 6.3509 25.9277 6.27094 26.042 6.15842C26.1563 6.0459 26.2384 5.90489 26.2799 5.74997C26.554 5.90005 26.7835 6.12003 26.9451 6.38755C27.1066 6.65506 27.1945 6.96058 27.1997 7.27305C27.2049 7.58551 27.1273 7.89379 26.9747 8.16654C26.8222 8.43929 26.6001 8.66678 26.3311 8.8259C26.0622 8.98502 25.7559 9.07011 25.4434 9.07248C25.1309 9.07486 24.8233 8.99443 24.552 8.83942C24.2806 8.68441 24.0551 8.46034 23.8984 8.18995C23.7418 7.91955 23.6595 7.61247 23.6599 7.29996H23.6999Z" fill="#464A51"/>
<path d="M50.3499 35.6899V26.8199C50.3632 26.6958 50.3501 26.5703 50.3117 26.4515C50.2732 26.3328 50.2102 26.2234 50.1267 26.1306C50.0433 26.0378 49.9412 25.9636 49.8272 25.9128C49.7132 25.862 49.5898 25.8357 49.4649 25.8357C49.3401 25.8357 49.2167 25.862 49.1027 25.9128C48.9887 25.9636 48.8866 26.0378 48.8032 26.1306C48.7197 26.2234 48.6567 26.3328 48.6182 26.4515C48.5798 26.5703 48.5667 26.6958 48.58 26.8199V35.6899C48.5667 35.814 48.5798 35.9395 48.6182 36.0583C48.6567 36.177 48.7197 36.2864 48.8032 36.3792C48.8866 36.472 48.9887 36.5462 49.1027 36.597C49.2167 36.6479 49.3401 36.6741 49.4649 36.6741C49.5898 36.6741 49.7132 36.6479 49.8272 36.597C49.9412 36.5462 50.0433 36.472 50.1267 36.3792C50.2102 36.2864 50.2732 36.177 50.3117 36.0583C50.3501 35.9395 50.3632 35.814 50.3499 35.6899V35.6899Z" fill="#464A51"/>
<path d="M36.15 35.6899H35.27V34.8099C35.27 34.5739 35.1762 34.3475 35.0093 34.1806C34.8424 34.0137 34.616 33.9199 34.38 33.9199C34.1439 33.9199 33.9175 34.0137 33.7506 34.1806C33.5837 34.3475 33.49 34.5739 33.49 34.8099V35.6899H32.6C32.3639 35.6899 32.1375 35.7837 31.9706 35.9506C31.8037 36.1175 31.71 36.3439 31.71 36.5799C31.71 36.8159 31.8037 37.0423 31.9706 37.2092C32.1375 37.3761 32.3639 37.4699 32.6 37.4699H33.49V38.3499C33.49 38.586 33.5837 38.8123 33.7506 38.9792C33.9175 39.1462 34.1439 39.2399 34.38 39.2399C34.616 39.2399 34.8424 39.1462 35.0093 38.9792C35.1762 38.8123 35.27 38.586 35.27 38.3499V37.4699H36.15C36.386 37.4699 36.6124 37.3761 36.7793 37.2092C36.9462 37.0423 37.04 36.8159 37.04 36.5799C37.04 36.3439 36.9462 36.1175 36.7793 35.9506C36.6124 35.7837 36.386 35.6899 36.15 35.6899V35.6899Z" fill="#464A51"/>
<path d="M27.2799 38.35C27.2799 38.2336 27.2568 38.1184 27.212 38.011C27.1671 37.9035 27.1014 37.8061 27.0186 37.7242C26.9359 37.6424 26.8377 37.5777 26.7298 37.5341C26.6218 37.4905 26.5063 37.4687 26.3899 37.47H9.52992C9.31143 37.4933 9.10925 37.5966 8.96233 37.7599C8.81541 37.9233 8.73413 38.1353 8.73413 38.355C8.73413 38.5748 8.81541 38.7867 8.96233 38.9501C9.10925 39.1135 9.31143 39.2168 9.52992 39.24H26.3899C26.626 39.24 26.8523 39.1463 27.0192 38.9794C27.1861 38.8125 27.2799 38.5861 27.2799 38.35V38.35Z" fill="#464A51"/>
<path d="M14.8599 41.0199C14.7358 41.0067 14.6103 41.0197 14.4915 41.0582C14.3728 41.0966 14.2635 41.1596 14.1706 41.2431C14.0778 41.3266 14.0036 41.4286 13.9528 41.5426C13.902 41.6566 13.8757 41.7801 13.8757 41.9049C13.8757 42.0297 13.902 42.1532 13.9528 42.2672C14.0036 42.3812 14.0778 42.4832 14.1706 42.5667C14.2635 42.6502 14.3728 42.7132 14.4915 42.7516C14.6103 42.7901 14.7358 42.8031 14.8599 42.7899H24.6199C24.8384 42.7667 25.0406 42.6634 25.1875 42.5C25.3345 42.3366 25.4157 42.1246 25.4157 41.9049C25.4157 41.6852 25.3345 41.4732 25.1875 41.3098C25.0406 41.1464 24.8384 41.0431 24.6199 41.0199H14.8599Z" fill="#464A51"/>
<path d="M34.38 4.64001H35.27V5.51999C35.2568 5.64411 35.2698 5.76964 35.3083 5.8884C35.3467 6.00715 35.4097 6.11647 35.4932 6.20929C35.5767 6.30211 35.6787 6.37635 35.7927 6.42715C35.9067 6.47796 36.0302 6.50421 36.155 6.50421C36.2798 6.50421 36.4032 6.47796 36.5173 6.42715C36.6313 6.37635 36.7333 6.30211 36.8168 6.20929C36.9002 6.11647 36.9633 6.00715 37.0017 5.8884C37.0402 5.76964 37.0532 5.64411 37.04 5.51999V4.64001H37.93C38.0469 4.64001 38.1626 4.61699 38.2706 4.57227C38.3786 4.52754 38.4767 4.46198 38.5593 4.37933C38.642 4.29669 38.7075 4.19856 38.7522 4.09058C38.797 3.9826 38.82 3.86688 38.82 3.75C38.82 3.63312 38.797 3.5174 38.7522 3.40942C38.7075 3.30144 38.642 3.20331 38.5593 3.12067C38.4767 3.03802 38.3786 2.97246 38.2706 2.92773C38.1626 2.88301 38.0469 2.86002 37.93 2.86002H37.04V1.97C37.0167 1.7515 36.9135 1.54933 36.7501 1.4024C36.5867 1.25548 36.3747 1.17419 36.155 1.17419C35.9353 1.17419 35.7233 1.25548 35.5599 1.4024C35.3965 1.54933 35.2933 1.7515 35.27 1.97V2.86002H34.38C34.2631 2.86002 34.1474 2.88301 34.0394 2.92773C33.9314 2.97246 33.8333 3.03802 33.7507 3.12067C33.668 3.20331 33.6025 3.30144 33.5577 3.40942C33.513 3.5174 33.49 3.63312 33.49 3.75C33.49 3.86688 33.513 3.9826 33.5577 4.09058C33.6025 4.19856 33.668 4.29669 33.7507 4.37933C33.8333 4.46198 33.9314 4.52754 34.0394 4.57227C34.1474 4.61699 34.2631 4.64001 34.38 4.64001V4.64001Z" fill="#464A51"/>
<path d="M12.19 7.29999H13.08V8.17999C13.08 8.41604 13.1738 8.64242 13.3407 8.80933C13.5076 8.97623 13.734 9.07001 13.97 9.07001C14.2061 9.07001 14.4324 8.97623 14.5993 8.80933C14.7662 8.64242 14.86 8.41604 14.86 8.17999V7.29999H15.7C15.9361 7.29999 16.1624 7.20624 16.3293 7.03934C16.4962 6.87243 16.59 6.64605 16.59 6.41C16.59 6.17396 16.4962 5.94758 16.3293 5.78067C16.1624 5.61376 15.9361 5.51999 15.7 5.51999H14.82V4.64001C14.82 4.40397 14.7262 4.17759 14.5593 4.01068C14.3924 3.84377 14.1661 3.75 13.93 3.75C13.694 3.75 13.4676 3.84377 13.3007 4.01068C13.1338 4.17759 13.04 4.40397 13.04 4.64001V5.51999H12.15C11.914 5.51999 11.6876 5.61376 11.5207 5.78067C11.3538 5.94758 11.26 6.17396 11.26 6.41C11.26 6.64605 11.3538 6.87243 11.5207 7.03934C11.6876 7.20624 11.914 7.29999 12.15 7.29999H12.19Z" fill="#464A51"/>
<path d="M38.8199 8.1799C38.5839 8.1799 38.3575 8.27367 38.1906 8.44058C38.0237 8.60749 37.9299 8.83387 37.9299 9.06992C37.9299 9.30596 38.0237 9.53234 38.1906 9.69925C38.3575 9.86616 38.5839 9.9599 38.8199 9.9599H39.6999V10.8499C39.6999 11.086 39.7937 11.3123 39.9606 11.4792C40.1275 11.6462 40.3539 11.7399 40.5899 11.7399C40.826 11.7399 41.0523 11.6462 41.2193 11.4792C41.3862 11.3123 41.4799 11.086 41.4799 10.8499V9.96991H42.3599C42.596 9.96991 42.8224 9.87614 42.9893 9.70923C43.1562 9.54232 43.2499 9.31594 43.2499 9.0799C43.2499 8.84385 43.1562 8.6175 42.9893 8.45059C42.8224 8.28368 42.596 8.18991 42.3599 8.18991H41.4799V7.30991C41.4799 7.07386 41.3862 6.84748 41.2193 6.68057C41.0523 6.51367 40.826 6.41992 40.5899 6.41992C40.3539 6.41992 40.1275 6.51367 39.9606 6.68057C39.7937 6.84748 39.6999 7.07386 39.6999 7.30991V8.18991L38.8199 8.1799Z" fill="#464A51"/>
</svg>
