<svg width="49" height="54" viewBox="0 0 49 54" fill="none" xmlns="http://www.w3.org/2000/svg">
<path d="M19.4799 15.06H15.9299V7.97003C15.9315 7.67774 16.0043 7.39022 16.142 7.13235C16.2796 6.87449 16.478 6.65403 16.7199 6.49002L24.7199 1.17004L26.7199 4.12003L19.5199 8.92004L19.4799 15.06Z" fill="#E94D8C"/>
<path d="M26.7 4.12003L19.4999 8.91003V15.06H15.95V7.97003C15.9516 7.67774 16.0243 7.39022 16.162 7.13235C16.2996 6.87449 16.498 6.65403 16.74 6.49002L17.64 5.89005C18.3548 6.12551 19.1153 6.18844 19.8592 6.07373C20.603 5.95902 21.3092 5.66992 21.92 5.23004L25.6299 2.52002L26.7 4.12003Z" fill="#D50264"/>
<path d="M27.4699 52.6301H7.94989L4.3999 21.5701H31.0199L27.4699 52.6301Z" fill="#EB6652"/>
<path d="M6.16989 18.02H29.2399C29.7103 18.02 30.1615 18.2062 30.495 18.5378C30.8286 18.8695 31.0173 19.3197 31.0199 19.79V21.57H4.3999V19.79C4.3999 19.3206 4.58637 18.8704 4.9183 18.5385C5.25024 18.2065 5.70046 18.02 6.16989 18.02V18.02Z" fill="#85D0F2"/>
<path d="M10.6101 14.47H24.8101C25.2804 14.4726 25.7306 14.6613 26.0623 14.9948C26.3939 15.3284 26.5801 15.7796 26.5801 16.25V18.02H8.83008V16.25C8.83008 15.7779 9.0176 15.3251 9.35141 14.9913C9.68522 14.6575 10.138 14.47 10.6101 14.47V14.47Z" fill="#85D0F2"/>
<path d="M30.6999 24.2301H10.6099C15.7228 29.3467 22.4979 32.4646 29.7099 33.0201L27.4699 52.6301H7.94989L4.3999 21.5701H31.0199L30.6999 24.2301Z" fill="#CC5244"/>
<path d="M31.0199 19.79V21.57H4.3999V19.79C4.3999 19.3206 4.58637 18.8704 4.9183 18.5385C5.25024 18.2065 5.70046 18.02 6.16989 18.02C6.17253 18.4904 6.36123 18.9406 6.69476 19.2722C7.02829 19.6039 7.47953 19.79 7.94989 19.79H31.0199Z" fill="#59B5E7"/>
<path d="M26.5801 16.25V18.02H8.83008V16.25C8.8327 15.7787 9.02106 15.3275 9.35431 14.9942C9.68756 14.661 10.1388 14.4726 10.6101 14.47C10.6101 14.9403 10.7962 15.3916 11.1279 15.7251C11.4595 16.0586 11.9097 16.2473 12.3801 16.25H26.5801Z" fill="#59B5E7"/>
<path d="M36.3399 18.91L34.5699 41.09L33.6799 50.85L38.1199 51.74L40.7799 19.79L38.1199 18.38L36.3399 18.91Z" fill="#E3962E"/>
<path d="M31.02 23.34L32.79 44.64H38.12L36.34 22.46L33.7 19.79L31.02 23.34Z" fill="#FBBB08"/>
<path d="M38.12 44.6401H32.79L31.02 23.3401L32.02 21.9501L33.7 34.8801H34.59L35.59 29.2401L36.4 28.6701L36.94 29.2101L38.12 44.6401Z" fill="#E3962E"/>
<path d="M29.24 25.9701L26.61 25.0601L25.6899 27.7401L30.1299 41.9401L34.27 40.1601L29.24 25.9701Z" fill="#F8E006"/>
<path d="M34.27 40.2L30.1299 41.97L25.7 27.78L26.61 25.16L28.2299 30.04C29.1721 32.8864 30.9066 35.4049 33.2299 37.3L34.27 40.2Z" fill="#FBBB08"/>
<path d="M45.2099 19.79L41.5999 36.65H45.2099L47.8799 24.23L45.2099 19.79Z" fill="#F8E006"/>
<path d="M45.0799 28.0701L46.4998 21.9701L45.2099 19.8301L41.5999 36.6901H45.2099L46.4199 31.0501C45.9036 30.7763 45.4923 30.3396 45.25 29.8079C45.0076 29.2762 44.9478 28.6793 45.0799 28.1101V28.0701Z" fill="#FBBB08"/>
<path d="M20.3699 25.1201L26.5799 41.9701L30.1299 41.0801L23.9199 25.0801L20.3699 25.1201Z" fill="#F8E006"/>
<path d="M20.3699 25.1201L26.5799 41.9701L28.3599 41.5301L22.0199 25.1101L20.3699 25.1201Z" fill="#FBBB08"/>
<path d="M39.89 22.46L37.23 43.75L40.78 42.87L44.33 24.23L39.89 22.46Z" fill="#F8E006"/>
<path d="M42.3 34.8501L40.78 42.8501L37.23 43.7301L39.89 22.4401L41.61 23.1301L40.9 33.1301C40.878 33.5395 41.0091 33.9424 41.2679 34.2603C41.5267 34.5783 41.8946 34.7885 42.3 34.8501Z" fill="#FBBB08"/>
<path d="M38.9999 44.64H35.45L36.34 28.64L39.89 29.53L38.9999 44.64Z" fill="#F8E006"/>
<path d="M37.8799 36.27L38.08 29.1L36.34 28.67L35.45 44.67H38.9999L39.3499 38.75C38.8972 38.5238 38.5185 38.1731 38.2581 37.7392C37.9977 37.3052 37.8665 36.8059 37.8799 36.3V36.27Z" fill="#FBBB08"/>
<path d="M43.44 33.1101C43.44 36.5401 39.86 39.3201 35.44 39.3201C31.02 39.3201 27.44 36.5401 27.44 33.1101H23L25.7 52.6301H45.22L47.89 33.1101H43.44Z" fill="#E94D8C"/>
<path d="M45.7 49.0801L45.2101 52.6301H25.7L23.04 33.1101H27.48C27.4967 33.859 27.6678 34.5964 27.9827 35.2761C28.2976 35.9558 28.7495 36.5632 29.31 37.0601C29.8337 40.3992 31.5312 43.442 34.0974 45.6416C36.6635 47.8412 39.9302 49.0533 43.31 49.0601L45.7 49.0801Z" fill="#D50264"/>
<path d="M35.45 49.08C36.9191 49.08 38.11 47.8891 38.11 46.42C38.11 44.9509 36.9191 43.76 35.45 43.76C33.981 43.76 32.79 44.9509 32.79 46.42C32.79 47.8891 33.981 49.08 35.45 49.08Z" fill="#D50264"/>
<path d="M37.7 47.9C37.5085 48.2009 37.2585 48.4602 36.9648 48.6625C36.6711 48.8648 36.3397 49.006 35.9903 49.0777C35.641 49.1493 35.2807 49.15 34.9311 49.0796C34.5815 49.0093 34.2496 48.8693 33.9551 48.6681C33.6606 48.4668 33.4097 48.2085 33.2171 47.9083C33.0245 47.6081 32.8942 47.2723 32.834 46.9207C32.7739 46.5692 32.785 46.2092 32.8668 45.862C32.9485 45.5149 33.0992 45.1877 33.31 44.9C34.5717 46.1671 36.0611 47.1849 37.7 47.9V47.9Z" fill="#E94D8C"/>
<path d="M23.03 43.75H7.02997C6.08845 43.75 5.1855 43.376 4.51974 42.7103C3.85399 42.0445 3.47998 41.1416 3.47998 40.2C3.47998 39.2585 3.85399 38.3555 4.51974 37.6898C5.1855 37.024 6.08845 36.65 7.02997 36.65H23.03C23.9715 36.65 24.8745 37.024 25.5402 37.6898C26.206 38.3555 26.58 39.2585 26.58 40.2C26.58 41.1416 26.206 42.0445 25.5402 42.7103C24.8745 43.376 23.9715 43.75 23.03 43.75V43.75Z" fill="#F29A8D"/>
<path d="M24.81 41.9701C25.3107 41.969 25.8053 41.8598 26.26 41.6501C26.0887 42.0455 25.8445 42.4051 25.54 42.7101C24.8667 43.3594 23.9654 43.7185 23.03 43.7101H7.03001C6.32795 43.71 5.6417 43.5017 5.05799 43.1117C4.47428 42.7216 4.01933 42.1672 3.75068 41.5186C3.48203 40.8699 3.41171 40.1562 3.54865 39.4677C3.68559 38.7791 4.02365 38.1466 4.52003 37.6501C4.80989 37.3548 5.1481 37.1113 5.52003 36.9301C5.97977 36.7249 6.47662 36.6161 6.98002 36.6101H22.98C23.8415 36.6164 24.6721 36.9323 25.32 37.5001C25.7727 37.877 26.1177 38.3669 26.32 38.9201C26.0868 39.3446 25.6981 39.6621 25.2355 39.8058C24.7729 39.9494 24.2727 39.9079 23.84 39.6901C23.5803 39.5622 23.2946 39.4956 23.005 39.4956C22.7155 39.4956 22.4298 39.5622 22.17 39.6901L20.29 40.6301C20.0319 40.7634 19.7456 40.8329 19.455 40.8329C19.1645 40.8329 18.8782 40.7634 18.62 40.6301L16.74 39.6901C16.4803 39.5622 16.1946 39.4956 15.905 39.4956C15.6155 39.4956 15.3298 39.5622 15.07 39.6901L13.19 40.6301C12.9319 40.7634 12.6456 40.8329 12.355 40.8329C12.0645 40.8329 11.7782 40.7634 11.52 40.6301L9.64002 39.6901C9.38026 39.5622 9.09459 39.4956 8.80503 39.4956C8.51548 39.4956 8.22977 39.5622 7.97001 39.6901L6.54002 40.4101C6.37586 40.4881 6.2052 40.5517 6.03001 40.6001C6.36013 41.0186 6.781 41.3567 7.26084 41.5888C7.74069 41.8209 8.26699 41.941 8.80003 41.9401L24.81 41.9701Z" fill="#EB6652"/>
<path d="M1.69995 47.3H28.33V49.08C28.33 49.5462 28.2381 50.0079 28.0597 50.4386C27.8813 50.8693 27.6198 51.2607 27.2902 51.5903C26.9605 51.9199 26.5692 52.1814 26.1385 52.3598C25.7078 52.5382 25.2461 52.6301 24.7799 52.6301H5.27994C4.81375 52.6301 4.35212 52.5382 3.92142 52.3598C3.49071 52.1814 3.09936 51.9199 2.76971 51.5903C2.44007 51.2607 2.17859 50.8693 2.00018 50.4386C1.82178 50.0079 1.72995 49.5462 1.72995 49.08V47.3H1.69995Z" fill="#FBBB08"/>
<path d="M17.5298 47.3L16.8199 48.1901L16.1099 47.3H17.5298Z" fill="#E3962E"/>
<path d="M17.5298 47.3L16.8199 48.1901L16.1099 47.3H17.5298Z" fill="#E3962E"/>
<path d="M24.81 47.3H5.27997C4.83222 47.2664 4.41374 47.0648 4.10837 46.7356C3.80299 46.4064 3.6333 45.974 3.6333 45.525C3.6333 45.076 3.80299 44.6436 4.10837 44.3144C4.41374 43.9852 4.83222 43.7836 5.27997 43.75H24.81C25.2577 43.7836 25.6762 43.9852 25.9816 44.3144C26.287 44.6436 26.4567 45.076 26.4567 45.525C26.4567 45.974 26.287 46.4064 25.9816 46.7356C25.6762 47.0648 25.2577 47.2664 24.81 47.3V47.3Z" fill="#CC5244"/>
<path d="M17.6999 48.19L14.1499 43.75H21.2499L17.6999 48.19Z" fill="#EFE75A"/>
<path d="M17.3999 44.7001L16.6399 43.7001H14.1599L17.7099 48.1401L19.7099 45.6301C19.2782 45.6753 18.842 45.6142 18.4394 45.4521C18.0367 45.29 17.6799 45.0318 17.3999 44.7001V44.7001Z" fill="#F8E006"/>
<path d="M2.61987 36.65C2.61964 37.1839 2.76831 37.7072 3.04919 38.1613C3.33008 38.6153 3.73204 38.9819 4.20987 39.22L4.88986 39.56C5.28808 39.7621 5.72833 39.8674 6.17487 39.8674C6.6214 39.8674 7.06165 39.7621 7.45987 39.56L8.87985 38.85C9.14136 38.722 9.42867 38.6554 9.71985 38.6554C10.011 38.6554 10.2983 38.722 10.5598 38.85L12.4299 39.79C12.6914 39.9181 12.9787 39.9846 13.2699 39.9846C13.561 39.9846 13.8484 39.9181 14.1099 39.79L15.9799 38.85C16.2414 38.722 16.5287 38.6554 16.8199 38.6554C17.111 38.6554 17.3983 38.722 17.6599 38.85L19.5298 39.79C19.7914 39.9181 20.0787 39.9846 20.3699 39.9846C20.661 39.9846 20.9484 39.9181 21.2099 39.79L23.0799 38.85C23.3414 38.722 23.6287 38.6554 23.9199 38.6554C24.211 38.6554 24.4984 38.722 24.7599 38.85C25.046 38.9908 25.3632 39.0565 25.6816 39.0409C26.0001 39.0254 26.3094 38.9291 26.5804 38.761C26.8515 38.593 27.0753 38.3589 27.2309 38.0805C27.3865 37.8022 27.4687 37.4889 27.4698 37.17V36.65H2.61987Z" fill="#BFD130"/>
<path d="M19.48 27.78H10.61C8.25659 27.78 5.99945 28.7142 4.33441 30.3774C2.66938 32.0405 1.73263 34.2966 1.72998 36.65H28.36C28.3573 34.2966 27.4206 32.0405 25.7556 30.3774C24.0905 28.7142 21.8334 27.78 19.48 27.78Z" fill="#FBBB08"/>
<path d="M28.36 36.6501H1.69995C1.70325 34.7124 2.34028 32.8289 3.51385 31.287C4.68743 29.7452 6.33313 28.6294 8.19995 28.1101C8.66367 29.7975 9.66785 31.2862 11.0586 32.3482C12.4494 33.4103 14.1501 33.987 15.9 33.9901H27.9C28.1877 34.8482 28.3428 35.7452 28.36 36.6501V36.6501Z" fill="#E3962E"/>
<path d="M28.36 49.08C28.36 49.5462 28.2682 50.0079 28.0898 50.4386C27.9113 50.8693 27.6499 51.2607 27.3202 51.5903C26.9906 51.9199 26.5992 52.1814 26.1685 52.3598C25.7378 52.5382 25.2762 52.6301 24.81 52.6301H5.27997C4.33845 52.6301 3.4355 52.2561 2.76974 51.5903C2.10399 50.9245 1.72998 50.0216 1.72998 49.08V47.3H3.62C3.81701 48.0631 4.26162 48.7392 4.88416 49.2224C5.50669 49.7055 6.27192 49.9685 7.05997 49.9701H25.7C26.6595 49.9686 27.5928 49.6564 28.36 49.08V49.08Z" fill="#E3962E"/>
<path d="M27.4699 36.65V37.17C27.4901 37.2925 27.4901 37.4175 27.4699 37.54H4.12992C4.39402 37.8808 4.73728 38.1519 5.12992 38.33L5.79993 38.68C6.20124 38.8776 6.6426 38.9804 7.08994 38.9804C7.53727 38.9804 7.9786 38.8776 8.37992 38.68L9.79993 37.96C10.0581 37.8267 10.3444 37.7571 10.6349 37.7571C10.9255 37.7571 11.2118 37.8267 11.4699 37.96L13.3499 38.9C13.6081 39.0333 13.8944 39.1028 14.1849 39.1028C14.4754 39.1028 14.7618 39.0333 15.0199 38.9L16.8999 37.96C17.1581 37.8267 17.4444 37.7571 17.7349 37.7571C18.0255 37.7571 18.3118 37.8267 18.5699 37.96L20.4499 38.9C20.7081 39.0333 20.9944 39.1028 21.2849 39.1028C21.5754 39.1028 21.8618 39.0333 22.1199 38.9L23.9999 37.96C24.2581 37.8267 24.5444 37.7571 24.8349 37.7571C25.1255 37.7571 25.4118 37.8267 25.6699 37.96C25.9268 38.0855 26.209 38.1507 26.4949 38.1507C26.7809 38.1507 27.063 38.0855 27.3199 37.96C27.1675 38.2793 26.928 38.5491 26.629 38.7384C26.3301 38.9277 25.9838 39.0288 25.6299 39.03C25.3361 39.0299 25.0458 38.965 24.7799 38.84C24.5218 38.7067 24.2355 38.6371 23.9449 38.6371C23.6544 38.6371 23.3681 38.7067 23.1099 38.84L21.2299 39.78C20.9702 39.9079 20.6845 39.9745 20.3949 39.9745C20.1054 39.9745 19.8197 39.9079 19.5599 39.78L17.6799 38.84C17.4236 38.7068 17.1388 38.6372 16.8499 38.6372C16.561 38.6372 16.2763 38.7068 16.0199 38.84L14.1299 39.78C13.8721 39.9085 13.588 39.9755 13.2999 39.9755C13.0119 39.9755 12.7277 39.9085 12.4699 39.78L10.5799 38.84C10.3235 38.7068 10.0388 38.6372 9.74991 38.6372C9.46098 38.6372 9.17631 38.7068 8.91992 38.84L7.48993 39.56C7.08697 39.7519 6.64625 39.8515 6.19992 39.8515C5.75359 39.8515 5.31288 39.7519 4.90991 39.56L4.23993 39.21C3.76062 38.9738 3.35738 38.6075 3.07624 38.1531C2.79509 37.6987 2.64738 37.1744 2.64993 36.64L27.4699 36.65Z" fill="#A0C52D"/>
<path d="M38.9999 46.42C38.9999 45.7179 38.7917 45.0315 38.4016 44.4477C38.0115 43.8639 37.4571 43.4089 36.8084 43.1402C36.1597 42.8715 35.446 42.8012 34.7573 42.9382C34.0687 43.0752 33.4362 43.4133 32.9397 43.9098C32.4432 44.4062 32.1051 45.0388 31.9681 45.7274C31.8311 46.4161 31.9014 47.1299 32.1701 47.7785C32.4388 48.4272 32.8938 48.9816 33.4776 49.3717C34.0614 49.7618 34.7478 49.97 35.4499 49.97C36.3914 49.97 37.2944 49.596 37.9601 48.9302C38.6259 48.2645 38.9999 47.3615 38.9999 46.42ZM33.6799 46.42C33.6779 46.0671 33.7809 45.7216 33.9757 45.4273C34.1705 45.1331 34.4484 44.9034 34.7741 44.7674C35.0997 44.6315 35.4585 44.5954 35.8047 44.6638C36.1509 44.7321 36.469 44.9018 36.7185 45.1514C36.9681 45.4009 37.1378 45.719 37.2062 46.0652C37.2745 46.4114 37.2384 46.7701 37.1025 47.0958C36.9665 47.4215 36.7368 47.6994 36.4425 47.8942C36.1483 48.089 35.8028 48.192 35.4499 48.19C34.9848 48.1822 34.5412 47.9926 34.2141 47.6617C33.887 47.3309 33.7024 46.8852 33.6999 46.42H33.6799Z" fill="#464A51"/>
<path d="M46.1999 45.37C46.084 45.3517 45.9656 45.3571 45.8518 45.3857C45.738 45.4144 45.6312 45.4657 45.5378 45.5367C45.4443 45.6077 45.3662 45.6969 45.3082 45.7989C45.2501 45.9008 45.2133 46.0135 45.1999 46.13L44.4299 51.74H31.0199C30.8957 51.7268 30.7702 51.7399 30.6515 51.7783C30.5327 51.8168 30.4234 51.8798 30.3306 51.9632C30.2377 52.0467 30.1635 52.1487 30.1127 52.2628C30.0619 52.3768 30.0356 52.5002 30.0356 52.625C30.0356 52.7498 30.0619 52.8733 30.1127 52.9873C30.1635 53.1013 30.2377 53.2034 30.3306 53.2868C30.4234 53.3703 30.5327 53.4333 30.6515 53.4717C30.7702 53.5102 30.8957 53.5232 31.0199 53.51H45.2099C45.4239 53.512 45.6313 53.436 45.7933 53.2961C45.9553 53.1562 46.0607 52.9621 46.0899 52.75L46.9599 46.37C46.9768 46.255 46.9708 46.1378 46.9422 46.0252C46.9136 45.9126 46.863 45.8067 46.7933 45.7137C46.7235 45.6207 46.6361 45.5425 46.5359 45.4835C46.4358 45.4245 46.325 45.3859 46.2099 45.37H46.1999Z" fill="#464A51"/>
<path d="M48.5499 32.52C48.4652 32.4262 48.3618 32.3511 48.2465 32.2995C48.1311 32.2478 48.0063 32.2208 47.8799 32.22H43.6999L45.1899 24.4C45.1999 24.2936 45.1999 24.1865 45.1899 24.08L45.5899 22.18L46.9199 24.3901L45.8499 29.3901C45.8023 29.6193 45.847 29.8581 45.9743 30.0547C46.1016 30.2512 46.3012 30.3897 46.5299 30.44H46.7199C46.923 30.4402 47.1201 30.3708 47.2783 30.2435C47.4366 30.1161 47.5465 29.9385 47.5899 29.74L48.7299 24.3901C48.7778 24.1685 48.7422 23.937 48.6299 23.74L45.9699 19.31C45.8474 19.1092 45.6511 18.9642 45.4231 18.9063C45.1951 18.8483 44.9534 18.882 44.7499 19C44.6461 19.0618 44.5561 19.1443 44.4856 19.2424C44.415 19.3404 44.3655 19.452 44.3399 19.57L43.6099 22.96L40.2099 21.6C39.9909 21.5138 39.7468 21.5168 39.5299 21.6084C39.3131 21.7 39.1408 21.8729 39.0499 22.09C39.0274 22.1619 39.0107 22.2355 38.9999 22.31L38.2599 28.2001L37.6699 28.05L37.2199 22.3601C37.2021 22.1662 37.1214 21.9836 36.9899 21.84L37.1699 19.55L38.0099 19.3L40.3499 20.55C40.4523 20.6065 40.5649 20.6423 40.6811 20.6552C40.7974 20.6682 40.915 20.6582 41.0274 20.6257C41.1397 20.5932 41.2446 20.5388 41.336 20.4658C41.4273 20.3928 41.5034 20.3025 41.5599 20.2001C41.6163 20.0976 41.6521 19.9851 41.6651 19.8688C41.678 19.7526 41.668 19.6349 41.6355 19.5226C41.603 19.4102 41.5487 19.3053 41.4756 19.214C41.4026 19.1226 41.3123 19.0465 41.2099 18.99L38.5499 17.57C38.3434 17.4628 38.104 17.4378 37.8799 17.5L36.0999 18.0401C35.928 18.0905 35.7755 18.1922 35.6629 18.3316C35.5504 18.4709 35.483 18.6414 35.4699 18.82L35.3599 20.19L34.3599 19.19C34.2781 19.1075 34.1807 19.042 34.0735 18.9973C33.9662 18.9526 33.8511 18.9295 33.7349 18.9295C33.6187 18.9295 33.5036 18.9526 33.3963 18.9973C33.2891 19.042 33.1917 19.1075 33.1099 19.19L33.0299 19.28L31.9599 20.7001V19.81C31.9599 19.4607 31.8911 19.1148 31.7574 18.7921C31.6237 18.4694 31.4278 18.1762 31.1808 17.9291C30.9338 17.6821 30.6406 17.4862 30.3178 17.3525C29.9951 17.2188 29.6492 17.15 29.2999 17.15H27.5299V16.27C27.5299 15.5636 27.25 14.886 26.7514 14.3856C26.2528 13.8852 25.5763 13.6027 24.8699 13.6H20.4299V9.41005L27.2299 4.87004C27.4256 4.73965 27.5618 4.5371 27.6086 4.30662C27.6555 4.07615 27.6092 3.83651 27.4799 3.64006V3.64006L25.4799 0.690045C25.3495 0.494313 25.1469 0.358136 24.9165 0.311291C24.686 0.264447 24.4463 0.310745 24.2499 0.440045V0.440045L16.2499 5.77003C15.8843 6.01136 15.5843 6.33956 15.3766 6.72523C15.169 7.1109 15.0601 7.54203 15.0599 7.98005V13.6H10.6299C9.92349 13.6027 9.24694 13.8852 8.74838 14.3856C8.24982 14.886 7.96987 15.5636 7.96988 16.27V17.15H6.18988C5.84056 17.15 5.49469 17.2188 5.17196 17.3525C4.84924 17.4862 4.55599 17.6821 4.30899 17.9291C4.06198 18.1762 3.86604 18.4694 3.73236 18.7921C3.59868 19.1148 3.52987 19.4607 3.52987 19.81V21.59L4.05987 26.2601C4.08436 26.4766 4.18749 26.6767 4.3497 26.8223C4.5119 26.968 4.7219 27.049 4.93988 27.05H5.03988C5.15712 27.0364 5.27048 26.9997 5.37338 26.9419C5.47627 26.8841 5.56666 26.8064 5.63925 26.7133C5.71184 26.6203 5.76519 26.5137 5.7962 26.3998C5.82721 26.2859 5.83525 26.167 5.81988 26.05L5.40988 22.47H12.4099C12.6459 22.47 12.8723 22.3763 13.0392 22.2094C13.2061 22.0425 13.2999 21.8161 13.2999 21.58C13.2999 21.344 13.2061 21.1176 13.0392 20.9507C12.8723 20.7838 12.6459 20.69 12.4099 20.69H5.30987V19.8C5.30987 19.6836 5.33296 19.5684 5.3778 19.4609C5.42265 19.3535 5.48839 19.2561 5.57116 19.1742C5.65394 19.0924 5.75212 19.0278 5.86004 18.9841C5.96797 18.9405 6.08349 18.9187 6.19989 18.9201H29.2699C29.3863 18.9187 29.5018 18.9405 29.6097 18.9841C29.7176 19.0278 29.8158 19.0924 29.8986 19.1742C29.9814 19.2561 30.0471 19.3535 30.0919 19.4609C30.1368 19.5684 30.1599 19.6836 30.1599 19.8V20.69H15.9599C15.7239 20.69 15.4975 20.7838 15.3306 20.9507C15.1637 21.1176 15.0699 21.344 15.0699 21.58C15.0699 21.8161 15.1637 22.0425 15.3306 22.2094C15.4975 22.3763 15.7239 22.47 15.9599 22.47H30.5999L30.3399 22.82C30.2077 22.9947 30.1436 23.2116 30.1599 23.43L30.4299 26.63L30.0999 25.72C30.0582 25.5942 29.9877 25.4798 29.8939 25.386C29.8002 25.2922 29.6858 25.2217 29.5599 25.18L26.9299 24.27C26.7071 24.1935 26.463 24.2084 26.2512 24.3115C26.0394 24.4146 25.8771 24.5975 25.7999 24.82L25.3199 26.22L24.7699 24.81C24.7059 24.6439 24.5935 24.5008 24.4474 24.3992C24.3012 24.2976 24.1279 24.2421 23.9499 24.24H20.3999C20.1639 24.24 19.9375 24.3338 19.7706 24.5007C19.6037 24.6676 19.5099 24.894 19.5099 25.13C19.5103 25.2362 19.5307 25.3414 19.5699 25.44L20.1199 26.93C19.9199 26.93 19.7199 26.93 19.5099 26.93H10.6399C8.72662 26.9316 6.85591 27.4949 5.25988 28.55C5.06362 28.6826 4.92809 28.8878 4.88308 29.1203C4.83808 29.3529 4.88729 29.5938 5.01989 29.7901C5.1525 29.9863 5.35763 30.1218 5.59018 30.1669C5.82272 30.2119 6.06362 30.1626 6.25988 30.03C7.56597 29.1694 9.09571 28.7104 10.6599 28.71H19.5299C21.4942 28.7123 23.389 29.4372 24.8533 30.7465C26.3175 32.0559 27.2489 33.8582 27.4699 35.81H2.69989C2.842 34.5519 3.28069 33.3456 3.97989 32.2901C4.11249 32.0938 4.16171 31.8529 4.1167 31.6203C4.07169 31.3878 3.93616 31.1826 3.7399 31.05C3.54364 30.9174 3.30273 30.8682 3.07019 30.9132C2.83764 30.9582 2.63248 31.0938 2.49987 31.2901C1.44174 32.8809 0.878077 34.7494 0.87988 36.66C0.878557 36.7764 0.900335 36.892 0.943967 36.9999C0.987598 37.1078 1.05221 37.206 1.13406 37.2888C1.21591 37.3715 1.31338 37.4373 1.4208 37.4821C1.52823 37.527 1.64348 37.55 1.75988 37.55H1.87988C2.0289 38.1787 2.33908 38.7577 2.77987 39.2301C2.70018 39.5576 2.65662 39.893 2.6499 40.2301C2.64995 41.3803 3.09836 42.4851 3.8999 43.31C3.38449 43.6279 2.99457 44.1139 2.79599 44.686C2.5974 45.2581 2.60229 45.8812 2.80987 46.4501H1.69989C1.58395 46.4487 1.46891 46.4705 1.36154 46.5143C1.25417 46.558 1.15663 46.6228 1.07464 46.7048C0.992659 46.7868 0.927902 46.8843 0.884152 46.9917C0.840403 47.0991 0.818542 47.2141 0.819882 47.33V49.1101C0.819882 50.285 1.28661 51.4117 2.1174 52.2425C2.94818 53.0733 4.07497 53.5401 5.24988 53.5401H7.91989C8.13839 53.5168 8.34056 53.4135 8.48748 53.2501C8.63441 53.0867 8.71566 52.8748 8.71566 52.655C8.71566 52.4353 8.63441 52.2233 8.48748 52.0599C8.34056 51.8966 8.13839 51.7933 7.91989 51.77H5.24988C4.90056 51.77 4.55469 51.7013 4.23196 51.5676C3.90924 51.4339 3.61599 51.238 3.36899 50.9909C3.12198 50.7439 2.92603 50.4507 2.79236 50.128C2.65868 49.8052 2.5899 49.4594 2.5899 49.1101V48.22H16.5399L16.9799 48.77C17.052 48.8624 17.1418 48.9394 17.2441 48.9965C17.3464 49.0537 17.459 49.0898 17.5754 49.1029C17.6919 49.1159 17.8097 49.1056 17.9221 49.0725C18.0345 49.0393 18.1391 48.9841 18.2299 48.91C18.2837 48.8712 18.331 48.8239 18.3699 48.77L21.6499 44.6701H24.7799C25.0159 44.6701 25.2423 44.7638 25.4092 44.9307C25.5761 45.0976 25.6699 45.324 25.6699 45.56C25.6699 45.7961 25.5761 46.0225 25.4092 46.1894C25.2423 46.3563 25.0159 46.4501 24.7799 46.4501H22.7799C22.5614 46.4733 22.3592 46.5766 22.2123 46.74C22.0654 46.9034 21.9841 47.1153 21.9841 47.335C21.9841 47.5548 22.0654 47.7667 22.2123 47.9301C22.3592 48.0935 22.5614 48.1968 22.7799 48.22H27.3999V49.1101C27.3999 49.4594 27.3311 49.8052 27.1974 50.128C27.0637 50.4507 26.8678 50.7439 26.6208 50.9909C26.3738 51.238 26.0806 51.4339 25.7578 51.5676C25.4351 51.7013 25.0892 51.77 24.7399 51.77H11.4999C11.3758 51.7568 11.2502 51.7699 11.1315 51.8083C11.0127 51.8468 10.9034 51.9098 10.8106 51.9932C10.7178 52.0767 10.6435 52.1788 10.5927 52.2928C10.5419 52.4068 10.5157 52.5302 10.5157 52.655C10.5157 52.7799 10.5419 52.9033 10.5927 53.0173C10.6435 53.1313 10.7178 53.2334 10.8106 53.3168C10.9034 53.4003 11.0127 53.4633 11.1315 53.5018C11.2502 53.5402 11.3758 53.5533 11.4999 53.5401H24.8099C25.3916 53.5401 25.9677 53.4255 26.5052 53.2028C27.0427 52.9802 27.531 52.6539 27.9424 52.2425C28.3537 51.8312 28.68 51.3428 28.9027 50.8053C29.1253 50.2679 29.2399 49.6918 29.2399 49.1101V47.33C29.2412 47.2141 29.2194 47.0991 29.1756 46.9917C29.1319 46.8843 29.0671 46.7868 28.9851 46.7048C28.9032 46.6228 28.8056 46.558 28.6982 46.5143C28.5909 46.4705 28.4758 46.4487 28.3599 46.4501H27.2999C27.5123 45.8827 27.5207 45.259 27.3236 44.6861C27.1266 44.1132 26.7363 43.6267 26.2199 43.31C27.0214 42.4851 27.4698 41.3803 27.4699 40.2301C27.4629 39.9173 27.426 39.6058 27.3599 39.3C27.8812 38.862 28.22 38.245 28.3099 37.57H28.3599C28.4128 37.5796 28.467 37.5796 28.5199 37.57C29.4417 38.4516 30.5282 39.1429 31.7173 39.6045C32.9064 40.066 34.1747 40.2888 35.4499 40.2601C39.9699 40.2601 43.7099 37.55 44.2599 34.05H46.8599L45.6999 42.6101C45.6686 42.8434 45.7309 43.0796 45.8734 43.267C46.0158 43.4544 46.2267 43.5778 46.4599 43.6101H46.5799C46.7928 43.6118 46.9989 43.5353 47.1592 43.3953C47.3196 43.2552 47.423 43.0612 47.4499 42.85L48.7699 33.22C48.784 33.0952 48.7726 32.9689 48.7365 32.8486C48.7004 32.7282 48.6403 32.6165 48.5599 32.52H48.5499ZM16.8199 7.97004C16.821 7.8245 16.857 7.68132 16.9248 7.55256C16.9927 7.4238 17.0904 7.31322 17.2099 7.23005L24.4599 2.40004L25.4599 3.88005L18.9999 8.18004C18.8774 8.26084 18.7767 8.37069 18.7069 8.4998C18.6371 8.62891 18.6004 8.77329 18.5999 8.92006V13.59H16.8299L16.8199 7.97004ZM9.71988 17.1401V16.2601C9.71988 16.024 9.81365 15.7976 9.98056 15.6307C10.1475 15.4638 10.3738 15.37 10.6099 15.37H24.8099C24.9263 15.37 25.0416 15.3931 25.149 15.438C25.2564 15.4828 25.3538 15.5486 25.4357 15.6313C25.5175 15.7141 25.5822 15.8123 25.6258 15.9202C25.6694 16.0281 25.6912 16.1437 25.6899 16.2601V17.1401H9.71988ZM37.1699 29.8L38.9599 30.24L38.5099 37.91C37.9206 38.1211 37.3105 38.2686 36.6899 38.35L37.1699 29.8ZM33.7799 21.16L35.4799 22.8601L35.8899 27.93H35.8099C35.7059 28.0092 35.6207 28.1102 35.5602 28.226C35.4997 28.3418 35.4655 28.4695 35.4599 28.6L34.9199 38.38C34.3186 38.347 33.7223 38.2532 33.1399 38.1L31.9299 23.59L33.7799 21.16ZM21.6399 25.97H23.3099L24.1099 27.97C23.475 27.6299 22.8042 27.3616 22.1099 27.1701L21.6399 25.97ZM25.6999 39.97C25.7048 40.06 25.7048 40.1501 25.6999 40.24C25.6999 40.9464 25.42 41.6241 24.9214 42.1245C24.4229 42.6249 23.7463 42.9074 23.0399 42.91H7.03988C6.35313 42.9079 5.69378 42.6403 5.19986 42.1632C4.70593 41.686 4.4157 41.0363 4.38989 40.35L4.46988 40.4C4.99267 40.6569 5.56742 40.7904 6.1499 40.7904C6.73238 40.7904 7.3071 40.6569 7.82989 40.4L9.25988 39.69C9.39685 39.6229 9.54736 39.5881 9.69989 39.5881C9.85241 39.5881 10.0029 39.6229 10.1399 39.69L12.0099 40.62C12.3948 40.8127 12.8194 40.9131 13.2499 40.9131C13.6804 40.9131 14.1049 40.8127 14.4899 40.62L16.3599 39.68C16.4969 39.6129 16.6474 39.578 16.7999 39.578C16.9524 39.578 17.1029 39.6129 17.2399 39.68L19.1099 40.62C19.4931 40.8126 19.916 40.9129 20.3449 40.9129C20.7738 40.9129 21.1967 40.8126 21.5799 40.62L23.4499 39.68C23.5882 39.6113 23.7405 39.5756 23.8949 39.5756C24.0493 39.5756 24.2016 39.6113 24.3399 39.68C24.7615 39.8899 25.2293 39.9897 25.6999 39.97V39.97ZM5.30987 46.46C5.07383 46.46 4.84748 46.3663 4.68057 46.1994C4.51366 46.0325 4.41989 45.8061 4.41989 45.57C4.41989 45.334 4.51366 45.1076 4.68057 44.9407C4.84748 44.7738 5.07383 44.68 5.30987 44.68H13.6999L15.1199 46.46H5.30987ZM17.7399 46.81L16.0299 44.68H19.4399L17.7399 46.81ZM26.1399 38.05H26.0399C25.9123 38.1065 25.7744 38.1357 25.6349 38.1357C25.4954 38.1357 25.3574 38.1065 25.2299 38.05C24.8452 37.8626 24.4228 37.7652 23.9949 37.7652C23.567 37.7652 23.1446 37.8626 22.7599 38.05L20.8899 38.99C20.7529 39.0571 20.6024 39.0921 20.4499 39.0921C20.2974 39.0921 20.1469 39.0571 20.0099 38.99L18.1399 38.05C17.7552 37.8626 17.3328 37.7652 16.9049 37.7652C16.4769 37.7652 16.0546 37.8626 15.6699 38.05L13.6999 38.97C13.5629 39.0372 13.4124 39.072 13.2599 39.072C13.1074 39.072 12.9569 39.0372 12.8199 38.97L10.9499 38.03C10.5652 37.8426 10.1428 37.7452 9.7149 37.7452C9.28696 37.7452 8.86461 37.8426 8.47989 38.03L7.04989 38.74C6.77464 38.8759 6.47182 38.9465 6.16488 38.9465C5.85795 38.9465 5.55512 38.8759 5.27987 38.74L4.59988 38.41C4.21888 38.2152 3.91044 37.9032 3.71988 37.52H26.4999C26.4286 37.7174 26.2907 37.8836 26.1099 37.99L26.1399 38.05ZM29.1999 35.59C29.0409 34.1912 28.5803 32.8436 27.8499 31.6401L26.6599 27.83L27.1899 26.27L28.5799 26.74L31.0099 33.6L31.3299 37.4201C30.4905 36.9792 29.7621 36.3535 29.1999 35.59V35.59ZM40.3399 36.97L40.7799 29.62C40.7908 29.4142 40.73 29.211 40.6078 29.0451C40.4857 28.8791 40.3097 28.7607 40.1099 28.71H40.0099L40.6299 23.71L43.3199 24.78L41.1299 36.2901C40.8876 36.5341 40.6232 36.7551 40.3399 36.9501V36.97Z" fill="#464A51"/>
<path d="M16.8199 33.1101C17.3115 33.1101 17.7099 32.7116 17.7099 32.2201C17.7099 31.7285 17.3115 31.3301 16.8199 31.3301C16.3284 31.3301 15.9299 31.7285 15.9299 32.2201C15.9299 32.7116 16.3284 33.1101 16.8199 33.1101Z" fill="#464A51"/>
<path d="M13.2699 32.2201C13.7614 32.2201 14.1599 31.8216 14.1599 31.3301C14.1599 30.8385 13.7614 30.4401 13.2699 30.4401C12.7783 30.4401 12.3799 30.8385 12.3799 31.3301C12.3799 31.8216 12.7783 32.2201 13.2699 32.2201Z" fill="#464A51"/>
<path d="M10.6 34C11.0915 34 11.49 33.6015 11.49 33.11C11.49 32.6184 11.0915 32.22 10.6 32.22C10.1084 32.22 9.70996 32.6184 9.70996 33.11C9.70996 33.6015 10.1084 34 10.6 34Z" fill="#464A51"/>
<path d="M23.9198 34C24.4113 34 24.8098 33.6015 24.8098 33.11C24.8098 32.6184 24.4113 32.22 23.9198 32.22C23.4283 32.22 23.0298 32.6184 23.0298 33.11C23.0298 33.6015 23.4283 34 23.9198 34Z" fill="#464A51"/>
<path d="M7.05991 33.1101C7.55144 33.1101 7.94992 32.7116 7.94992 32.2201C7.94992 31.7285 7.55144 31.3301 7.05991 31.3301C6.56837 31.3301 6.16992 31.7285 6.16992 32.2201C6.16992 32.7116 6.56837 33.1101 7.05991 33.1101Z" fill="#464A51"/>
<path d="M20.37 32.2201C20.8615 32.2201 21.26 31.8216 21.26 31.3301C21.26 30.8385 20.8615 30.4401 20.37 30.4401C19.8784 30.4401 19.48 30.8385 19.48 31.3301C19.48 31.8216 19.8784 32.2201 20.37 32.2201Z" fill="#464A51"/>
</svg>
